G04 #@! TF.GenerationSoftware,KiCad,Pcbnew,(6.0.0)*
G04 #@! TF.CreationDate,2022-02-13T20:01:41+01:00*
G04 #@! TF.ProjectId,VolumeControl,566f6c75-6d65-4436-9f6e-74726f6c2e6b,rev?*
G04 #@! TF.SameCoordinates,Original*
G04 #@! TF.FileFunction,Legend,Top*
G04 #@! TF.FilePolarity,Positive*
%FSLAX46Y46*%
G04 Gerber Fmt 4.6, Leading zero omitted, Abs format (unit mm)*
G04 Created by KiCad (PCBNEW (6.0.0)) date 2022-02-13 20:01:41*
%MOMM*%
%LPD*%
G01*
G04 APERTURE LIST*
G04 Aperture macros list*
%AMRoundRect*
0 Rectangle with rounded corners*
0 $1 Rounding radius*
0 $2 $3 $4 $5 $6 $7 $8 $9 X,Y pos of 4 corners*
0 Add a 4 corners polygon primitive as box body*
4,1,4,$2,$3,$4,$5,$6,$7,$8,$9,$2,$3,0*
0 Add four circle primitives for the rounded corners*
1,1,$1+$1,$2,$3*
1,1,$1+$1,$4,$5*
1,1,$1+$1,$6,$7*
1,1,$1+$1,$8,$9*
0 Add four rect primitives between the rounded corners*
20,1,$1+$1,$2,$3,$4,$5,0*
20,1,$1+$1,$4,$5,$6,$7,0*
20,1,$1+$1,$6,$7,$8,$9,0*
20,1,$1+$1,$8,$9,$2,$3,0*%
G04 Aperture macros list end*
%ADD10C,0.150000*%
%ADD11C,0.120000*%
%ADD12O,1.600000X1.600000*%
%ADD13R,1.600000X1.600000*%
%ADD14C,1.400000*%
%ADD15C,1.600000*%
%ADD16R,1.700000X1.700000*%
%ADD17O,1.700000X1.700000*%
%ADD18RoundRect,0.250000X-0.725000X0.600000X-0.725000X-0.600000X0.725000X-0.600000X0.725000X0.600000X0*%
%ADD19O,1.950000X1.700000*%
%ADD20RoundRect,0.250000X-0.845000X0.620000X-0.845000X-0.620000X0.845000X-0.620000X0.845000X0.620000X0*%
%ADD21O,2.190000X1.740000*%
%ADD22R,1.400000X0.300000*%
%ADD23C,3.200000*%
%ADD24R,1.850000X1.850000*%
%ADD25C,1.850000*%
%ADD26R,2.600000X2.600000*%
%ADD27C,2.600000*%
G04 APERTURE END LIST*
D10*
X82910000Y-27148595D02*
X82862380Y-27243833D01*
X82862380Y-27386690D01*
X82910000Y-27529547D01*
X83005238Y-27624785D01*
X83100476Y-27672404D01*
X83290952Y-27720023D01*
X83433809Y-27720023D01*
X83624285Y-27672404D01*
X83719523Y-27624785D01*
X83814761Y-27529547D01*
X83862380Y-27386690D01*
X83862380Y-27291452D01*
X83814761Y-27148595D01*
X83767142Y-27100976D01*
X83433809Y-27100976D01*
X83433809Y-27291452D01*
X82814761Y-25958119D02*
X84100476Y-26815261D01*
X83814761Y-25672404D02*
X83862380Y-25529547D01*
X83862380Y-25291452D01*
X83814761Y-25196214D01*
X83767142Y-25148595D01*
X83671904Y-25100976D01*
X83576666Y-25100976D01*
X83481428Y-25148595D01*
X83433809Y-25196214D01*
X83386190Y-25291452D01*
X83338571Y-25481928D01*
X83290952Y-25577166D01*
X83243333Y-25624785D01*
X83148095Y-25672404D01*
X83052857Y-25672404D01*
X82957619Y-25624785D01*
X82910000Y-25577166D01*
X82862380Y-25481928D01*
X82862380Y-25243833D01*
X82910000Y-25100976D01*
X83862380Y-24529547D02*
X83814761Y-24624785D01*
X83767142Y-24672404D01*
X83671904Y-24720023D01*
X83386190Y-24720023D01*
X83290952Y-24672404D01*
X83243333Y-24624785D01*
X83195714Y-24529547D01*
X83195714Y-24386690D01*
X83243333Y-24291452D01*
X83290952Y-24243833D01*
X83386190Y-24196214D01*
X83671904Y-24196214D01*
X83767142Y-24243833D01*
X83814761Y-24291452D01*
X83862380Y-24386690D01*
X83862380Y-24529547D01*
X83195714Y-23339071D02*
X83862380Y-23339071D01*
X83195714Y-23767642D02*
X83719523Y-23767642D01*
X83814761Y-23720023D01*
X83862380Y-23624785D01*
X83862380Y-23481928D01*
X83814761Y-23386690D01*
X83767142Y-23339071D01*
X83195714Y-23005738D02*
X83195714Y-22624785D01*
X82862380Y-22862880D02*
X83719523Y-22862880D01*
X83814761Y-22815261D01*
X83862380Y-22720023D01*
X83862380Y-22624785D01*
X33212738Y-61410380D02*
X33546071Y-62410380D01*
X33879404Y-61410380D01*
X34784166Y-62315142D02*
X34736547Y-62362761D01*
X34593690Y-62410380D01*
X34498452Y-62410380D01*
X34355595Y-62362761D01*
X34260357Y-62267523D01*
X34212738Y-62172285D01*
X34165119Y-61981809D01*
X34165119Y-61838952D01*
X34212738Y-61648476D01*
X34260357Y-61553238D01*
X34355595Y-61458000D01*
X34498452Y-61410380D01*
X34593690Y-61410380D01*
X34736547Y-61458000D01*
X34784166Y-61505619D01*
X35355595Y-62410380D02*
X35260357Y-62362761D01*
X35212738Y-62315142D01*
X35165119Y-62219904D01*
X35165119Y-61934190D01*
X35212738Y-61838952D01*
X35260357Y-61791333D01*
X35355595Y-61743714D01*
X35498452Y-61743714D01*
X35593690Y-61791333D01*
X35641309Y-61838952D01*
X35688928Y-61934190D01*
X35688928Y-62219904D01*
X35641309Y-62315142D01*
X35593690Y-62362761D01*
X35498452Y-62410380D01*
X35355595Y-62410380D01*
X36117500Y-61743714D02*
X36117500Y-62410380D01*
X36117500Y-61838952D02*
X36165119Y-61791333D01*
X36260357Y-61743714D01*
X36403214Y-61743714D01*
X36498452Y-61791333D01*
X36546071Y-61886571D01*
X36546071Y-62410380D01*
X36879404Y-61743714D02*
X37260357Y-61743714D01*
X37022261Y-61410380D02*
X37022261Y-62267523D01*
X37069880Y-62362761D01*
X37165119Y-62410380D01*
X37260357Y-62410380D01*
X37593690Y-62410380D02*
X37593690Y-61743714D01*
X37593690Y-61934190D02*
X37641309Y-61838952D01*
X37688928Y-61791333D01*
X37784166Y-61743714D01*
X37879404Y-61743714D01*
X38355595Y-62410380D02*
X38260357Y-62362761D01*
X38212738Y-62315142D01*
X38165119Y-62219904D01*
X38165119Y-61934190D01*
X38212738Y-61838952D01*
X38260357Y-61791333D01*
X38355595Y-61743714D01*
X38498452Y-61743714D01*
X38593690Y-61791333D01*
X38641309Y-61838952D01*
X38688928Y-61934190D01*
X38688928Y-62219904D01*
X38641309Y-62315142D01*
X38593690Y-62362761D01*
X38498452Y-62410380D01*
X38355595Y-62410380D01*
X39260357Y-62410380D02*
X39165119Y-62362761D01*
X39117500Y-62267523D01*
X39117500Y-61410380D01*
X40165119Y-62410380D02*
X39593690Y-62410380D01*
X39879404Y-62410380D02*
X39879404Y-61410380D01*
X39784166Y-61553238D01*
X39688928Y-61648476D01*
X39593690Y-61696095D01*
X34117500Y-64020380D02*
X34117500Y-63020380D01*
X35022261Y-64020380D02*
X35022261Y-63020380D01*
X35022261Y-63972761D02*
X34927023Y-64020380D01*
X34736547Y-64020380D01*
X34641309Y-63972761D01*
X34593690Y-63925142D01*
X34546071Y-63829904D01*
X34546071Y-63544190D01*
X34593690Y-63448952D01*
X34641309Y-63401333D01*
X34736547Y-63353714D01*
X34927023Y-63353714D01*
X35022261Y-63401333D01*
X35879404Y-63972761D02*
X35784166Y-64020380D01*
X35593690Y-64020380D01*
X35498452Y-63972761D01*
X35450833Y-63877523D01*
X35450833Y-63496571D01*
X35498452Y-63401333D01*
X35593690Y-63353714D01*
X35784166Y-63353714D01*
X35879404Y-63401333D01*
X35927023Y-63496571D01*
X35927023Y-63591809D01*
X35450833Y-63687047D01*
X36736547Y-63972761D02*
X36641309Y-64020380D01*
X36450833Y-64020380D01*
X36355595Y-63972761D01*
X36307976Y-63877523D01*
X36307976Y-63496571D01*
X36355595Y-63401333D01*
X36450833Y-63353714D01*
X36641309Y-63353714D01*
X36736547Y-63401333D01*
X36784166Y-63496571D01*
X36784166Y-63591809D01*
X36307976Y-63687047D01*
X37879404Y-63353714D02*
X38117500Y-64020380D01*
X38355595Y-63353714D01*
X38879404Y-64020380D02*
X38784166Y-63972761D01*
X38736547Y-63925142D01*
X38688928Y-63829904D01*
X38688928Y-63544190D01*
X38736547Y-63448952D01*
X38784166Y-63401333D01*
X38879404Y-63353714D01*
X39022261Y-63353714D01*
X39117500Y-63401333D01*
X39165119Y-63448952D01*
X39212738Y-63544190D01*
X39212738Y-63829904D01*
X39165119Y-63925142D01*
X39117500Y-63972761D01*
X39022261Y-64020380D01*
X38879404Y-64020380D01*
X39641309Y-63353714D02*
X39641309Y-64020380D01*
X39641309Y-63448952D02*
X39688928Y-63401333D01*
X39784166Y-63353714D01*
X39927023Y-63353714D01*
X40022261Y-63401333D01*
X40069880Y-63496571D01*
X40069880Y-64020380D01*
X41212738Y-64020380D02*
X41736547Y-63353714D01*
X41212738Y-63353714D02*
X41736547Y-64020380D01*
X42546071Y-64020380D02*
X42546071Y-63496571D01*
X42498452Y-63401333D01*
X42403214Y-63353714D01*
X42212738Y-63353714D01*
X42117500Y-63401333D01*
X42546071Y-63972761D02*
X42450833Y-64020380D01*
X42212738Y-64020380D01*
X42117500Y-63972761D01*
X42069880Y-63877523D01*
X42069880Y-63782285D01*
X42117500Y-63687047D01*
X42212738Y-63639428D01*
X42450833Y-63639428D01*
X42546071Y-63591809D01*
X42974642Y-63972761D02*
X43069880Y-64020380D01*
X43260357Y-64020380D01*
X43355595Y-63972761D01*
X43403214Y-63877523D01*
X43403214Y-63829904D01*
X43355595Y-63734666D01*
X43260357Y-63687047D01*
X43117500Y-63687047D01*
X43022261Y-63639428D01*
X42974642Y-63544190D01*
X42974642Y-63496571D01*
X43022261Y-63401333D01*
X43117500Y-63353714D01*
X43260357Y-63353714D01*
X43355595Y-63401333D01*
X43736547Y-63353714D02*
X44260357Y-63353714D01*
X43736547Y-64020380D01*
X44260357Y-64020380D01*
X34069880Y-65344666D02*
X34546071Y-65344666D01*
X33974642Y-65630380D02*
X34307976Y-64630380D01*
X34641309Y-65630380D01*
X34974642Y-65630380D02*
X34974642Y-64963714D01*
X34974642Y-65154190D02*
X35022261Y-65058952D01*
X35069880Y-65011333D01*
X35165119Y-64963714D01*
X35260357Y-64963714D01*
X35593690Y-65630380D02*
X35593690Y-64630380D01*
X35593690Y-65011333D02*
X35688928Y-64963714D01*
X35879404Y-64963714D01*
X35974642Y-65011333D01*
X36022261Y-65058952D01*
X36069880Y-65154190D01*
X36069880Y-65439904D01*
X36022261Y-65535142D01*
X35974642Y-65582761D01*
X35879404Y-65630380D01*
X35688928Y-65630380D01*
X35593690Y-65582761D01*
X36879404Y-65582761D02*
X36784166Y-65630380D01*
X36593690Y-65630380D01*
X36498452Y-65582761D01*
X36450833Y-65487523D01*
X36450833Y-65106571D01*
X36498452Y-65011333D01*
X36593690Y-64963714D01*
X36784166Y-64963714D01*
X36879404Y-65011333D01*
X36927023Y-65106571D01*
X36927023Y-65201809D01*
X36450833Y-65297047D01*
X37355595Y-65630380D02*
X37355595Y-64963714D01*
X37355595Y-64630380D02*
X37307976Y-64678000D01*
X37355595Y-64725619D01*
X37403214Y-64678000D01*
X37355595Y-64630380D01*
X37355595Y-64725619D01*
X37688928Y-64963714D02*
X38069880Y-64963714D01*
X37831785Y-64630380D02*
X37831785Y-65487523D01*
X37879404Y-65582761D01*
X37974642Y-65630380D01*
X38069880Y-65630380D01*
X39069880Y-64963714D02*
X39307976Y-65630380D01*
X39546071Y-64963714D01*
X40069880Y-65630380D02*
X39974642Y-65582761D01*
X39927023Y-65535142D01*
X39879404Y-65439904D01*
X39879404Y-65154190D01*
X39927023Y-65058952D01*
X39974642Y-65011333D01*
X40069880Y-64963714D01*
X40212738Y-64963714D01*
X40307976Y-65011333D01*
X40355595Y-65058952D01*
X40403214Y-65154190D01*
X40403214Y-65439904D01*
X40355595Y-65535142D01*
X40307976Y-65582761D01*
X40212738Y-65630380D01*
X40069880Y-65630380D01*
X40831785Y-64963714D02*
X40831785Y-65630380D01*
X40831785Y-65058952D02*
X40879404Y-65011333D01*
X40974642Y-64963714D01*
X41117500Y-64963714D01*
X41212738Y-65011333D01*
X41260357Y-65106571D01*
X41260357Y-65630380D01*
X42831785Y-65106571D02*
X42974642Y-65154190D01*
X43022261Y-65201809D01*
X43069880Y-65297047D01*
X43069880Y-65439904D01*
X43022261Y-65535142D01*
X42974642Y-65582761D01*
X42879404Y-65630380D01*
X42498452Y-65630380D01*
X42498452Y-64630380D01*
X42831785Y-64630380D01*
X42927023Y-64678000D01*
X42974642Y-64725619D01*
X43022261Y-64820857D01*
X43022261Y-64916095D01*
X42974642Y-65011333D01*
X42927023Y-65058952D01*
X42831785Y-65106571D01*
X42498452Y-65106571D01*
X43498452Y-65630380D02*
X43498452Y-64963714D01*
X43498452Y-65154190D02*
X43546071Y-65058952D01*
X43593690Y-65011333D01*
X43688928Y-64963714D01*
X43784166Y-64963714D01*
X44546071Y-65630380D02*
X44546071Y-65106571D01*
X44498452Y-65011333D01*
X44403214Y-64963714D01*
X44212738Y-64963714D01*
X44117500Y-65011333D01*
X44546071Y-65582761D02*
X44450833Y-65630380D01*
X44212738Y-65630380D01*
X44117500Y-65582761D01*
X44069880Y-65487523D01*
X44069880Y-65392285D01*
X44117500Y-65297047D01*
X44212738Y-65249428D01*
X44450833Y-65249428D01*
X44546071Y-65201809D01*
X45022261Y-65630380D02*
X45022261Y-64963714D01*
X45022261Y-64630380D02*
X44974642Y-64678000D01*
X45022261Y-64725619D01*
X45069880Y-64678000D01*
X45022261Y-64630380D01*
X45022261Y-64725619D01*
X45498452Y-64963714D02*
X45498452Y-65630380D01*
X45498452Y-65058952D02*
X45546071Y-65011333D01*
X45641309Y-64963714D01*
X45784166Y-64963714D01*
X45879404Y-65011333D01*
X45927023Y-65106571D01*
X45927023Y-65630380D01*
X46403214Y-65630380D02*
X46403214Y-64630380D01*
X46831785Y-65630380D02*
X46831785Y-65106571D01*
X46784166Y-65011333D01*
X46688928Y-64963714D01*
X46546071Y-64963714D01*
X46450833Y-65011333D01*
X46403214Y-65058952D01*
X47736547Y-64963714D02*
X47736547Y-65630380D01*
X47307976Y-64963714D02*
X47307976Y-65487523D01*
X47355595Y-65582761D01*
X47450833Y-65630380D01*
X47593690Y-65630380D01*
X47688928Y-65582761D01*
X47736547Y-65535142D01*
X48212738Y-64963714D02*
X48212738Y-65630380D01*
X48212738Y-65058952D02*
X48260357Y-65011333D01*
X48355595Y-64963714D01*
X48498452Y-64963714D01*
X48593690Y-65011333D01*
X48641309Y-65106571D01*
X48641309Y-65630380D01*
X48974642Y-64963714D02*
X49355595Y-64963714D01*
X49117500Y-64630380D02*
X49117500Y-65487523D01*
X49165119Y-65582761D01*
X49260357Y-65630380D01*
X49355595Y-65630380D01*
X50069880Y-65582761D02*
X49974642Y-65630380D01*
X49784166Y-65630380D01*
X49688928Y-65582761D01*
X49641309Y-65487523D01*
X49641309Y-65106571D01*
X49688928Y-65011333D01*
X49784166Y-64963714D01*
X49974642Y-64963714D01*
X50069880Y-65011333D01*
X50117500Y-65106571D01*
X50117500Y-65201809D01*
X49641309Y-65297047D01*
X50546071Y-65630380D02*
X50546071Y-64963714D01*
X50546071Y-65154190D02*
X50593690Y-65058952D01*
X50641309Y-65011333D01*
X50736547Y-64963714D01*
X50831785Y-64963714D01*
X30583238Y-35212976D02*
X30535619Y-35355833D01*
X30535619Y-35593928D01*
X30583238Y-35689166D01*
X30630857Y-35736785D01*
X30726095Y-35784404D01*
X30821333Y-35784404D01*
X30916571Y-35736785D01*
X30964190Y-35689166D01*
X31011809Y-35593928D01*
X31059428Y-35403452D01*
X31107047Y-35308214D01*
X31154666Y-35260595D01*
X31249904Y-35212976D01*
X31345142Y-35212976D01*
X31440380Y-35260595D01*
X31488000Y-35308214D01*
X31535619Y-35403452D01*
X31535619Y-35641547D01*
X31488000Y-35784404D01*
X30535619Y-36212976D02*
X31535619Y-36212976D01*
X31535619Y-36593928D01*
X31488000Y-36689166D01*
X31440380Y-36736785D01*
X31345142Y-36784404D01*
X31202285Y-36784404D01*
X31107047Y-36736785D01*
X31059428Y-36689166D01*
X31011809Y-36593928D01*
X31011809Y-36212976D01*
X30535619Y-37212976D02*
X31535619Y-37212976D01*
X89514000Y-41372595D02*
X89466380Y-41467833D01*
X89466380Y-41610690D01*
X89514000Y-41753547D01*
X89609238Y-41848785D01*
X89704476Y-41896404D01*
X89894952Y-41944023D01*
X90037809Y-41944023D01*
X90228285Y-41896404D01*
X90323523Y-41848785D01*
X90418761Y-41753547D01*
X90466380Y-41610690D01*
X90466380Y-41515452D01*
X90418761Y-41372595D01*
X90371142Y-41324976D01*
X90037809Y-41324976D01*
X90037809Y-41515452D01*
X89418761Y-40182119D02*
X90704476Y-41039261D01*
X90466380Y-39372595D02*
X90466380Y-39848785D01*
X89466380Y-39848785D01*
X90466380Y-38896404D02*
X90418761Y-38991642D01*
X90371142Y-39039261D01*
X90275904Y-39086880D01*
X89990190Y-39086880D01*
X89894952Y-39039261D01*
X89847333Y-38991642D01*
X89799714Y-38896404D01*
X89799714Y-38753547D01*
X89847333Y-38658309D01*
X89894952Y-38610690D01*
X89990190Y-38563071D01*
X90275904Y-38563071D01*
X90371142Y-38610690D01*
X90418761Y-38658309D01*
X90466380Y-38753547D01*
X90466380Y-38896404D01*
X89799714Y-37705928D02*
X90466380Y-37705928D01*
X89799714Y-38134500D02*
X90323523Y-38134500D01*
X90418761Y-38086880D01*
X90466380Y-37991642D01*
X90466380Y-37848785D01*
X90418761Y-37753547D01*
X90371142Y-37705928D01*
X89799714Y-37372595D02*
X89799714Y-36991642D01*
X89466380Y-37229738D02*
X90323523Y-37229738D01*
X90418761Y-37182119D01*
X90466380Y-37086880D01*
X90466380Y-36991642D01*
X31535619Y-24941785D02*
X31535619Y-24465595D01*
X31059428Y-24417976D01*
X31107047Y-24465595D01*
X31154666Y-24560833D01*
X31154666Y-24798928D01*
X31107047Y-24894166D01*
X31059428Y-24941785D01*
X30964190Y-24989404D01*
X30726095Y-24989404D01*
X30630857Y-24941785D01*
X30583238Y-24894166D01*
X30535619Y-24798928D01*
X30535619Y-24560833D01*
X30583238Y-24465595D01*
X30630857Y-24417976D01*
X31202285Y-25322738D02*
X30535619Y-25560833D01*
X31202285Y-25798928D01*
X31583238Y-26894166D02*
X30297523Y-26037023D01*
X31488000Y-27751309D02*
X31535619Y-27656071D01*
X31535619Y-27513214D01*
X31488000Y-27370357D01*
X31392761Y-27275119D01*
X31297523Y-27227500D01*
X31107047Y-27179880D01*
X30964190Y-27179880D01*
X30773714Y-27227500D01*
X30678476Y-27275119D01*
X30583238Y-27370357D01*
X30535619Y-27513214D01*
X30535619Y-27608452D01*
X30583238Y-27751309D01*
X30630857Y-27798928D01*
X30964190Y-27798928D01*
X30964190Y-27608452D01*
X30535619Y-28227500D02*
X31535619Y-28227500D01*
X30535619Y-28798928D01*
X31535619Y-28798928D01*
X30535619Y-29275119D02*
X31535619Y-29275119D01*
X31535619Y-29513214D01*
X31488000Y-29656071D01*
X31392761Y-29751309D01*
X31297523Y-29798928D01*
X31107047Y-29846547D01*
X30964190Y-29846547D01*
X30773714Y-29798928D01*
X30678476Y-29751309D01*
X30583238Y-29656071D01*
X30535619Y-29513214D01*
X30535619Y-29275119D01*
X89514000Y-59660595D02*
X89466380Y-59755833D01*
X89466380Y-59898690D01*
X89514000Y-60041547D01*
X89609238Y-60136785D01*
X89704476Y-60184404D01*
X89894952Y-60232023D01*
X90037809Y-60232023D01*
X90228285Y-60184404D01*
X90323523Y-60136785D01*
X90418761Y-60041547D01*
X90466380Y-59898690D01*
X90466380Y-59803452D01*
X90418761Y-59660595D01*
X90371142Y-59612976D01*
X90037809Y-59612976D01*
X90037809Y-59803452D01*
X89418761Y-58470119D02*
X90704476Y-59327261D01*
X90466380Y-57660595D02*
X90466380Y-58136785D01*
X89466380Y-58136785D01*
X90466380Y-57184404D02*
X90418761Y-57279642D01*
X90371142Y-57327261D01*
X90275904Y-57374880D01*
X89990190Y-57374880D01*
X89894952Y-57327261D01*
X89847333Y-57279642D01*
X89799714Y-57184404D01*
X89799714Y-57041547D01*
X89847333Y-56946309D01*
X89894952Y-56898690D01*
X89990190Y-56851071D01*
X90275904Y-56851071D01*
X90371142Y-56898690D01*
X90418761Y-56946309D01*
X90466380Y-57041547D01*
X90466380Y-57184404D01*
X89799714Y-55993928D02*
X90466380Y-55993928D01*
X89799714Y-56422500D02*
X90323523Y-56422500D01*
X90418761Y-56374880D01*
X90466380Y-56279642D01*
X90466380Y-56136785D01*
X90418761Y-56041547D01*
X90371142Y-55993928D01*
X89799714Y-55660595D02*
X89799714Y-55279642D01*
X89466380Y-55517738D02*
X90323523Y-55517738D01*
X90418761Y-55470119D01*
X90466380Y-55374880D01*
X90466380Y-55279642D01*
G04 #@! TO.C,U3*
X77064380Y-61086904D02*
X77873904Y-61086904D01*
X77969142Y-61039285D01*
X78016761Y-60991666D01*
X78064380Y-60896428D01*
X78064380Y-60705952D01*
X78016761Y-60610714D01*
X77969142Y-60563095D01*
X77873904Y-60515476D01*
X77064380Y-60515476D01*
X77064380Y-60134523D02*
X77064380Y-59515476D01*
X77445333Y-59848809D01*
X77445333Y-59705952D01*
X77492952Y-59610714D01*
X77540571Y-59563095D01*
X77635809Y-59515476D01*
X77873904Y-59515476D01*
X77969142Y-59563095D01*
X78016761Y-59610714D01*
X78064380Y-59705952D01*
X78064380Y-59991666D01*
X78016761Y-60086904D01*
X77969142Y-60134523D01*
G04 #@! TO.C,C13*
X57777142Y-44553142D02*
X57729523Y-44600761D01*
X57586666Y-44648380D01*
X57491428Y-44648380D01*
X57348571Y-44600761D01*
X57253333Y-44505523D01*
X57205714Y-44410285D01*
X57158095Y-44219809D01*
X57158095Y-44076952D01*
X57205714Y-43886476D01*
X57253333Y-43791238D01*
X57348571Y-43696000D01*
X57491428Y-43648380D01*
X57586666Y-43648380D01*
X57729523Y-43696000D01*
X57777142Y-43743619D01*
X58729523Y-44648380D02*
X58158095Y-44648380D01*
X58443809Y-44648380D02*
X58443809Y-43648380D01*
X58348571Y-43791238D01*
X58253333Y-43886476D01*
X58158095Y-43934095D01*
X59062857Y-43648380D02*
X59681904Y-43648380D01*
X59348571Y-44029333D01*
X59491428Y-44029333D01*
X59586666Y-44076952D01*
X59634285Y-44124571D01*
X59681904Y-44219809D01*
X59681904Y-44457904D01*
X59634285Y-44553142D01*
X59586666Y-44600761D01*
X59491428Y-44648380D01*
X59205714Y-44648380D01*
X59110476Y-44600761D01*
X59062857Y-44553142D01*
G04 #@! TO.C,R8*
X66381333Y-66238380D02*
X66048000Y-65762190D01*
X65809904Y-66238380D02*
X65809904Y-65238380D01*
X66190857Y-65238380D01*
X66286095Y-65286000D01*
X66333714Y-65333619D01*
X66381333Y-65428857D01*
X66381333Y-65571714D01*
X66333714Y-65666952D01*
X66286095Y-65714571D01*
X66190857Y-65762190D01*
X65809904Y-65762190D01*
X66952761Y-65666952D02*
X66857523Y-65619333D01*
X66809904Y-65571714D01*
X66762285Y-65476476D01*
X66762285Y-65428857D01*
X66809904Y-65333619D01*
X66857523Y-65286000D01*
X66952761Y-65238380D01*
X67143238Y-65238380D01*
X67238476Y-65286000D01*
X67286095Y-65333619D01*
X67333714Y-65428857D01*
X67333714Y-65476476D01*
X67286095Y-65571714D01*
X67238476Y-65619333D01*
X67143238Y-65666952D01*
X66952761Y-65666952D01*
X66857523Y-65714571D01*
X66809904Y-65762190D01*
X66762285Y-65857428D01*
X66762285Y-66047904D01*
X66809904Y-66143142D01*
X66857523Y-66190761D01*
X66952761Y-66238380D01*
X67143238Y-66238380D01*
X67238476Y-66190761D01*
X67286095Y-66143142D01*
X67333714Y-66047904D01*
X67333714Y-65857428D01*
X67286095Y-65762190D01*
X67238476Y-65714571D01*
X67143238Y-65666952D01*
X70683523Y-64301714D02*
X70683523Y-64968380D01*
X70445428Y-63920761D02*
X70207333Y-64635047D01*
X70826380Y-64635047D01*
X71112095Y-63968380D02*
X71778761Y-63968380D01*
X71350190Y-64968380D01*
X72159714Y-64968380D02*
X72159714Y-63968380D01*
X72254952Y-64587428D02*
X72540666Y-64968380D01*
X72540666Y-64301714D02*
X72159714Y-64682666D01*
G04 #@! TO.C,JP1*
X80798666Y-28447380D02*
X80798666Y-29161666D01*
X80751047Y-29304523D01*
X80655809Y-29399761D01*
X80512952Y-29447380D01*
X80417714Y-29447380D01*
X81274857Y-29447380D02*
X81274857Y-28447380D01*
X81655809Y-28447380D01*
X81751047Y-28495000D01*
X81798666Y-28542619D01*
X81846285Y-28637857D01*
X81846285Y-28780714D01*
X81798666Y-28875952D01*
X81751047Y-28923571D01*
X81655809Y-28971190D01*
X81274857Y-28971190D01*
X82798666Y-29447380D02*
X82227238Y-29447380D01*
X82512952Y-29447380D02*
X82512952Y-28447380D01*
X82417714Y-28590238D01*
X82322476Y-28685476D01*
X82227238Y-28733095D01*
G04 #@! TO.C,C3*
X54443333Y-53697142D02*
X54395714Y-53744761D01*
X54252857Y-53792380D01*
X54157619Y-53792380D01*
X54014761Y-53744761D01*
X53919523Y-53649523D01*
X53871904Y-53554285D01*
X53824285Y-53363809D01*
X53824285Y-53220952D01*
X53871904Y-53030476D01*
X53919523Y-52935238D01*
X54014761Y-52840000D01*
X54157619Y-52792380D01*
X54252857Y-52792380D01*
X54395714Y-52840000D01*
X54443333Y-52887619D01*
X54776666Y-52792380D02*
X55395714Y-52792380D01*
X55062380Y-53173333D01*
X55205238Y-53173333D01*
X55300476Y-53220952D01*
X55348095Y-53268571D01*
X55395714Y-53363809D01*
X55395714Y-53601904D01*
X55348095Y-53697142D01*
X55300476Y-53744761D01*
X55205238Y-53792380D01*
X54919523Y-53792380D01*
X54824285Y-53744761D01*
X54776666Y-53697142D01*
G04 #@! TO.C,R10*
X78097142Y-36774380D02*
X77763809Y-36298190D01*
X77525714Y-36774380D02*
X77525714Y-35774380D01*
X77906666Y-35774380D01*
X78001904Y-35822000D01*
X78049523Y-35869619D01*
X78097142Y-35964857D01*
X78097142Y-36107714D01*
X78049523Y-36202952D01*
X78001904Y-36250571D01*
X77906666Y-36298190D01*
X77525714Y-36298190D01*
X79049523Y-36774380D02*
X78478095Y-36774380D01*
X78763809Y-36774380D02*
X78763809Y-35774380D01*
X78668571Y-35917238D01*
X78573333Y-36012476D01*
X78478095Y-36060095D01*
X79668571Y-35774380D02*
X79763809Y-35774380D01*
X79859047Y-35822000D01*
X79906666Y-35869619D01*
X79954285Y-35964857D01*
X80001904Y-36155333D01*
X80001904Y-36393428D01*
X79954285Y-36583904D01*
X79906666Y-36679142D01*
X79859047Y-36726761D01*
X79763809Y-36774380D01*
X79668571Y-36774380D01*
X79573333Y-36726761D01*
X79525714Y-36679142D01*
X79478095Y-36583904D01*
X79430476Y-36393428D01*
X79430476Y-36155333D01*
X79478095Y-35964857D01*
X79525714Y-35869619D01*
X79573333Y-35822000D01*
X79668571Y-35774380D01*
X70210095Y-36123619D02*
X70257714Y-36076000D01*
X70352952Y-36028380D01*
X70591047Y-36028380D01*
X70686285Y-36076000D01*
X70733904Y-36123619D01*
X70781523Y-36218857D01*
X70781523Y-36314095D01*
X70733904Y-36456952D01*
X70162476Y-37028380D01*
X70781523Y-37028380D01*
X71400571Y-36028380D02*
X71495809Y-36028380D01*
X71591047Y-36076000D01*
X71638666Y-36123619D01*
X71686285Y-36218857D01*
X71733904Y-36409333D01*
X71733904Y-36647428D01*
X71686285Y-36837904D01*
X71638666Y-36933142D01*
X71591047Y-36980761D01*
X71495809Y-37028380D01*
X71400571Y-37028380D01*
X71305333Y-36980761D01*
X71257714Y-36933142D01*
X71210095Y-36837904D01*
X71162476Y-36647428D01*
X71162476Y-36409333D01*
X71210095Y-36218857D01*
X71257714Y-36123619D01*
X71305333Y-36076000D01*
X71400571Y-36028380D01*
X72162476Y-37028380D02*
X72162476Y-36028380D01*
X72733904Y-37028380D02*
X72305333Y-36456952D01*
X72733904Y-36028380D02*
X72162476Y-36599809D01*
G04 #@! TO.C,R6*
X64095333Y-44394380D02*
X63762000Y-43918190D01*
X63523904Y-44394380D02*
X63523904Y-43394380D01*
X63904857Y-43394380D01*
X64000095Y-43442000D01*
X64047714Y-43489619D01*
X64095333Y-43584857D01*
X64095333Y-43727714D01*
X64047714Y-43822952D01*
X64000095Y-43870571D01*
X63904857Y-43918190D01*
X63523904Y-43918190D01*
X64952476Y-43394380D02*
X64762000Y-43394380D01*
X64666761Y-43442000D01*
X64619142Y-43489619D01*
X64523904Y-43632476D01*
X64476285Y-43822952D01*
X64476285Y-44203904D01*
X64523904Y-44299142D01*
X64571523Y-44346761D01*
X64666761Y-44394380D01*
X64857238Y-44394380D01*
X64952476Y-44346761D01*
X65000095Y-44299142D01*
X65047714Y-44203904D01*
X65047714Y-43965809D01*
X65000095Y-43870571D01*
X64952476Y-43822952D01*
X64857238Y-43775333D01*
X64666761Y-43775333D01*
X64571523Y-43822952D01*
X64523904Y-43870571D01*
X64476285Y-43965809D01*
X71032761Y-44394380D02*
X70461333Y-44394380D01*
X70747047Y-44394380D02*
X70747047Y-43394380D01*
X70651809Y-43537238D01*
X70556571Y-43632476D01*
X70461333Y-43680095D01*
X71413714Y-43489619D02*
X71461333Y-43442000D01*
X71556571Y-43394380D01*
X71794666Y-43394380D01*
X71889904Y-43442000D01*
X71937523Y-43489619D01*
X71985142Y-43584857D01*
X71985142Y-43680095D01*
X71937523Y-43822952D01*
X71366095Y-44394380D01*
X71985142Y-44394380D01*
X72413714Y-44394380D02*
X72413714Y-43394380D01*
X72508952Y-44013428D02*
X72794666Y-44394380D01*
X72794666Y-43727714D02*
X72413714Y-44108666D01*
G04 #@! TO.C,R14*
X79621142Y-17724380D02*
X79287809Y-17248190D01*
X79049714Y-17724380D02*
X79049714Y-16724380D01*
X79430666Y-16724380D01*
X79525904Y-16772000D01*
X79573523Y-16819619D01*
X79621142Y-16914857D01*
X79621142Y-17057714D01*
X79573523Y-17152952D01*
X79525904Y-17200571D01*
X79430666Y-17248190D01*
X79049714Y-17248190D01*
X80573523Y-17724380D02*
X80002095Y-17724380D01*
X80287809Y-17724380D02*
X80287809Y-16724380D01*
X80192571Y-16867238D01*
X80097333Y-16962476D01*
X80002095Y-17010095D01*
X81430666Y-17057714D02*
X81430666Y-17724380D01*
X81192571Y-16676761D02*
X80954476Y-17391047D01*
X81573523Y-17391047D01*
X71953523Y-17978380D02*
X71382095Y-17978380D01*
X71667809Y-17978380D02*
X71667809Y-16978380D01*
X71572571Y-17121238D01*
X71477333Y-17216476D01*
X71382095Y-17264095D01*
X72572571Y-16978380D02*
X72667809Y-16978380D01*
X72763047Y-17026000D01*
X72810666Y-17073619D01*
X72858285Y-17168857D01*
X72905904Y-17359333D01*
X72905904Y-17597428D01*
X72858285Y-17787904D01*
X72810666Y-17883142D01*
X72763047Y-17930761D01*
X72667809Y-17978380D01*
X72572571Y-17978380D01*
X72477333Y-17930761D01*
X72429714Y-17883142D01*
X72382095Y-17787904D01*
X72334476Y-17597428D01*
X72334476Y-17359333D01*
X72382095Y-17168857D01*
X72429714Y-17073619D01*
X72477333Y-17026000D01*
X72572571Y-16978380D01*
X73334476Y-17978380D02*
X73334476Y-16978380D01*
X73905904Y-17978380D02*
X73477333Y-17406952D01*
X73905904Y-16978380D02*
X73334476Y-17549809D01*
G04 #@! TO.C,C6*
X81195333Y-44427142D02*
X81147714Y-44474761D01*
X81004857Y-44522380D01*
X80909619Y-44522380D01*
X80766761Y-44474761D01*
X80671523Y-44379523D01*
X80623904Y-44284285D01*
X80576285Y-44093809D01*
X80576285Y-43950952D01*
X80623904Y-43760476D01*
X80671523Y-43665238D01*
X80766761Y-43570000D01*
X80909619Y-43522380D01*
X81004857Y-43522380D01*
X81147714Y-43570000D01*
X81195333Y-43617619D01*
X82052476Y-43522380D02*
X81862000Y-43522380D01*
X81766761Y-43570000D01*
X81719142Y-43617619D01*
X81623904Y-43760476D01*
X81576285Y-43950952D01*
X81576285Y-44331904D01*
X81623904Y-44427142D01*
X81671523Y-44474761D01*
X81766761Y-44522380D01*
X81957238Y-44522380D01*
X82052476Y-44474761D01*
X82100095Y-44427142D01*
X82147714Y-44331904D01*
X82147714Y-44093809D01*
X82100095Y-43998571D01*
X82052476Y-43950952D01*
X81957238Y-43903333D01*
X81766761Y-43903333D01*
X81671523Y-43950952D01*
X81623904Y-43998571D01*
X81576285Y-44093809D01*
G04 #@! TO.C,J1*
X36022380Y-53673333D02*
X36736666Y-53673333D01*
X36879523Y-53720952D01*
X36974761Y-53816190D01*
X37022380Y-53959047D01*
X37022380Y-54054285D01*
X37022380Y-52673333D02*
X37022380Y-53244761D01*
X37022380Y-52959047D02*
X36022380Y-52959047D01*
X36165238Y-53054285D01*
X36260476Y-53149523D01*
X36308095Y-53244761D01*
G04 #@! TO.C,J4*
X27606666Y-29722380D02*
X27606666Y-30436666D01*
X27559047Y-30579523D01*
X27463809Y-30674761D01*
X27320952Y-30722380D01*
X27225714Y-30722380D01*
X28511428Y-30055714D02*
X28511428Y-30722380D01*
X28273333Y-29674761D02*
X28035238Y-30389047D01*
X28654285Y-30389047D01*
G04 #@! TO.C,J2*
X27606666Y-42422380D02*
X27606666Y-43136666D01*
X27559047Y-43279523D01*
X27463809Y-43374761D01*
X27320952Y-43422380D01*
X27225714Y-43422380D01*
X28035238Y-42517619D02*
X28082857Y-42470000D01*
X28178095Y-42422380D01*
X28416190Y-42422380D01*
X28511428Y-42470000D01*
X28559047Y-42517619D01*
X28606666Y-42612857D01*
X28606666Y-42708095D01*
X28559047Y-42850952D01*
X27987619Y-43422380D01*
X28606666Y-43422380D01*
G04 #@! TO.C,J7*
X85177380Y-22558333D02*
X85891666Y-22558333D01*
X86034523Y-22605952D01*
X86129761Y-22701190D01*
X86177380Y-22844047D01*
X86177380Y-22939285D01*
X85177380Y-22177380D02*
X85177380Y-21510714D01*
X86177380Y-21939285D01*
G04 #@! TO.C,J5*
X85177380Y-55578333D02*
X85891666Y-55578333D01*
X86034523Y-55625952D01*
X86129761Y-55721190D01*
X86177380Y-55864047D01*
X86177380Y-55959285D01*
X85177380Y-54625952D02*
X85177380Y-55102142D01*
X85653571Y-55149761D01*
X85605952Y-55102142D01*
X85558333Y-55006904D01*
X85558333Y-54768809D01*
X85605952Y-54673571D01*
X85653571Y-54625952D01*
X85748809Y-54578333D01*
X85986904Y-54578333D01*
X86082142Y-54625952D01*
X86129761Y-54673571D01*
X86177380Y-54768809D01*
X86177380Y-55006904D01*
X86129761Y-55102142D01*
X86082142Y-55149761D01*
G04 #@! TO.C,C12*
X53713142Y-56491142D02*
X53665523Y-56538761D01*
X53522666Y-56586380D01*
X53427428Y-56586380D01*
X53284571Y-56538761D01*
X53189333Y-56443523D01*
X53141714Y-56348285D01*
X53094095Y-56157809D01*
X53094095Y-56014952D01*
X53141714Y-55824476D01*
X53189333Y-55729238D01*
X53284571Y-55634000D01*
X53427428Y-55586380D01*
X53522666Y-55586380D01*
X53665523Y-55634000D01*
X53713142Y-55681619D01*
X54665523Y-56586380D02*
X54094095Y-56586380D01*
X54379809Y-56586380D02*
X54379809Y-55586380D01*
X54284571Y-55729238D01*
X54189333Y-55824476D01*
X54094095Y-55872095D01*
X55046476Y-55681619D02*
X55094095Y-55634000D01*
X55189333Y-55586380D01*
X55427428Y-55586380D01*
X55522666Y-55634000D01*
X55570285Y-55681619D01*
X55617904Y-55776857D01*
X55617904Y-55872095D01*
X55570285Y-56014952D01*
X54998857Y-56586380D01*
X55617904Y-56586380D01*
G04 #@! TO.C,C5*
X81195333Y-59667142D02*
X81147714Y-59714761D01*
X81004857Y-59762380D01*
X80909619Y-59762380D01*
X80766761Y-59714761D01*
X80671523Y-59619523D01*
X80623904Y-59524285D01*
X80576285Y-59333809D01*
X80576285Y-59190952D01*
X80623904Y-59000476D01*
X80671523Y-58905238D01*
X80766761Y-58810000D01*
X80909619Y-58762380D01*
X81004857Y-58762380D01*
X81147714Y-58810000D01*
X81195333Y-58857619D01*
X82100095Y-58762380D02*
X81623904Y-58762380D01*
X81576285Y-59238571D01*
X81623904Y-59190952D01*
X81719142Y-59143333D01*
X81957238Y-59143333D01*
X82052476Y-59190952D01*
X82100095Y-59238571D01*
X82147714Y-59333809D01*
X82147714Y-59571904D01*
X82100095Y-59667142D01*
X82052476Y-59714761D01*
X81957238Y-59762380D01*
X81719142Y-59762380D01*
X81623904Y-59714761D01*
X81576285Y-59667142D01*
G04 #@! TO.C,C8*
X47699142Y-38520666D02*
X47746761Y-38568285D01*
X47794380Y-38711142D01*
X47794380Y-38806380D01*
X47746761Y-38949238D01*
X47651523Y-39044476D01*
X47556285Y-39092095D01*
X47365809Y-39139714D01*
X47222952Y-39139714D01*
X47032476Y-39092095D01*
X46937238Y-39044476D01*
X46842000Y-38949238D01*
X46794380Y-38806380D01*
X46794380Y-38711142D01*
X46842000Y-38568285D01*
X46889619Y-38520666D01*
X47222952Y-37949238D02*
X47175333Y-38044476D01*
X47127714Y-38092095D01*
X47032476Y-38139714D01*
X46984857Y-38139714D01*
X46889619Y-38092095D01*
X46842000Y-38044476D01*
X46794380Y-37949238D01*
X46794380Y-37758761D01*
X46842000Y-37663523D01*
X46889619Y-37615904D01*
X46984857Y-37568285D01*
X47032476Y-37568285D01*
X47127714Y-37615904D01*
X47175333Y-37663523D01*
X47222952Y-37758761D01*
X47222952Y-37949238D01*
X47270571Y-38044476D01*
X47318190Y-38092095D01*
X47413428Y-38139714D01*
X47603904Y-38139714D01*
X47699142Y-38092095D01*
X47746761Y-38044476D01*
X47794380Y-37949238D01*
X47794380Y-37758761D01*
X47746761Y-37663523D01*
X47699142Y-37615904D01*
X47603904Y-37568285D01*
X47413428Y-37568285D01*
X47318190Y-37615904D01*
X47270571Y-37663523D01*
X47222952Y-37758761D01*
X47950380Y-32746666D02*
X47950380Y-33318095D01*
X47950380Y-33032380D02*
X46950380Y-33032380D01*
X47093238Y-33127619D01*
X47188476Y-33222857D01*
X47236095Y-33318095D01*
X47283714Y-31889523D02*
X47950380Y-31889523D01*
X47283714Y-32318095D02*
X47807523Y-32318095D01*
X47902761Y-32270476D01*
X47950380Y-32175238D01*
X47950380Y-32032380D01*
X47902761Y-31937142D01*
X47855142Y-31889523D01*
G04 #@! TO.C,U2*
X53467095Y-47458380D02*
X53467095Y-48267904D01*
X53514714Y-48363142D01*
X53562333Y-48410761D01*
X53657571Y-48458380D01*
X53848047Y-48458380D01*
X53943285Y-48410761D01*
X53990904Y-48363142D01*
X54038523Y-48267904D01*
X54038523Y-47458380D01*
X54467095Y-47553619D02*
X54514714Y-47506000D01*
X54609952Y-47458380D01*
X54848047Y-47458380D01*
X54943285Y-47506000D01*
X54990904Y-47553619D01*
X55038523Y-47648857D01*
X55038523Y-47744095D01*
X54990904Y-47886952D01*
X54419476Y-48458380D01*
X55038523Y-48458380D01*
G04 #@! TO.C,R15*
X61920380Y-22740857D02*
X61444190Y-23074190D01*
X61920380Y-23312285D02*
X60920380Y-23312285D01*
X60920380Y-22931333D01*
X60968000Y-22836095D01*
X61015619Y-22788476D01*
X61110857Y-22740857D01*
X61253714Y-22740857D01*
X61348952Y-22788476D01*
X61396571Y-22836095D01*
X61444190Y-22931333D01*
X61444190Y-23312285D01*
X61920380Y-21788476D02*
X61920380Y-22359904D01*
X61920380Y-22074190D02*
X60920380Y-22074190D01*
X61063238Y-22169428D01*
X61158476Y-22264666D01*
X61206095Y-22359904D01*
X60920380Y-20883714D02*
X60920380Y-21359904D01*
X61396571Y-21407523D01*
X61348952Y-21359904D01*
X61301333Y-21264666D01*
X61301333Y-21026571D01*
X61348952Y-20931333D01*
X61396571Y-20883714D01*
X61491809Y-20836095D01*
X61729904Y-20836095D01*
X61825142Y-20883714D01*
X61872761Y-20931333D01*
X61920380Y-21026571D01*
X61920380Y-21264666D01*
X61872761Y-21359904D01*
X61825142Y-21407523D01*
X64206380Y-23110476D02*
X64206380Y-23681904D01*
X64206380Y-23396190D02*
X63206380Y-23396190D01*
X63349238Y-23491428D01*
X63444476Y-23586666D01*
X63492095Y-23681904D01*
X63206380Y-22491428D02*
X63206380Y-22396190D01*
X63254000Y-22300952D01*
X63301619Y-22253333D01*
X63396857Y-22205714D01*
X63587333Y-22158095D01*
X63825428Y-22158095D01*
X64015904Y-22205714D01*
X64111142Y-22253333D01*
X64158761Y-22300952D01*
X64206380Y-22396190D01*
X64206380Y-22491428D01*
X64158761Y-22586666D01*
X64111142Y-22634285D01*
X64015904Y-22681904D01*
X63825428Y-22729523D01*
X63587333Y-22729523D01*
X63396857Y-22681904D01*
X63301619Y-22634285D01*
X63254000Y-22586666D01*
X63206380Y-22491428D01*
X64206380Y-21729523D02*
X63206380Y-21729523D01*
X64206380Y-21158095D02*
X63634952Y-21586666D01*
X63206380Y-21158095D02*
X63777809Y-21729523D01*
G04 #@! TO.C,C14*
X62841142Y-38488857D02*
X62888761Y-38536476D01*
X62936380Y-38679333D01*
X62936380Y-38774571D01*
X62888761Y-38917428D01*
X62793523Y-39012666D01*
X62698285Y-39060285D01*
X62507809Y-39107904D01*
X62364952Y-39107904D01*
X62174476Y-39060285D01*
X62079238Y-39012666D01*
X61984000Y-38917428D01*
X61936380Y-38774571D01*
X61936380Y-38679333D01*
X61984000Y-38536476D01*
X62031619Y-38488857D01*
X62936380Y-37536476D02*
X62936380Y-38107904D01*
X62936380Y-37822190D02*
X61936380Y-37822190D01*
X62079238Y-37917428D01*
X62174476Y-38012666D01*
X62222095Y-38107904D01*
X62269714Y-36679333D02*
X62936380Y-36679333D01*
X61888761Y-36917428D02*
X62603047Y-37155523D01*
X62603047Y-36536476D01*
X62015714Y-33762857D02*
X62682380Y-33762857D01*
X62110952Y-33762857D02*
X62063333Y-33715238D01*
X62015714Y-33620000D01*
X62015714Y-33477142D01*
X62063333Y-33381904D01*
X62158571Y-33334285D01*
X62682380Y-33334285D01*
X62587142Y-32858095D02*
X62634761Y-32810476D01*
X62682380Y-32858095D01*
X62634761Y-32905714D01*
X62587142Y-32858095D01*
X62682380Y-32858095D01*
X62682380Y-32381904D02*
X61682380Y-32381904D01*
X62063333Y-32381904D02*
X62015714Y-32286666D01*
X62015714Y-32096190D01*
X62063333Y-32000952D01*
X62110952Y-31953333D01*
X62206190Y-31905714D01*
X62491904Y-31905714D01*
X62587142Y-31953333D01*
X62634761Y-32000952D01*
X62682380Y-32096190D01*
X62682380Y-32286666D01*
X62634761Y-32381904D01*
X62587142Y-31477142D02*
X62634761Y-31429523D01*
X62682380Y-31477142D01*
X62634761Y-31524761D01*
X62587142Y-31477142D01*
X62682380Y-31477142D01*
G04 #@! TO.C,U4*
X76922380Y-29336904D02*
X77731904Y-29336904D01*
X77827142Y-29289285D01*
X77874761Y-29241666D01*
X77922380Y-29146428D01*
X77922380Y-28955952D01*
X77874761Y-28860714D01*
X77827142Y-28813095D01*
X77731904Y-28765476D01*
X76922380Y-28765476D01*
X77255714Y-27860714D02*
X77922380Y-27860714D01*
X76874761Y-28098809D02*
X77589047Y-28336904D01*
X77589047Y-27717857D01*
G04 #@! TO.C,C1*
X38060333Y-56999142D02*
X38012714Y-57046761D01*
X37869857Y-57094380D01*
X37774619Y-57094380D01*
X37631761Y-57046761D01*
X37536523Y-56951523D01*
X37488904Y-56856285D01*
X37441285Y-56665809D01*
X37441285Y-56522952D01*
X37488904Y-56332476D01*
X37536523Y-56237238D01*
X37631761Y-56142000D01*
X37774619Y-56094380D01*
X37869857Y-56094380D01*
X38012714Y-56142000D01*
X38060333Y-56189619D01*
X39012714Y-57094380D02*
X38441285Y-57094380D01*
X38727000Y-57094380D02*
X38727000Y-56094380D01*
X38631761Y-56237238D01*
X38536523Y-56332476D01*
X38441285Y-56380095D01*
G04 #@! TO.C,C2*
X37806333Y-50649142D02*
X37758714Y-50696761D01*
X37615857Y-50744380D01*
X37520619Y-50744380D01*
X37377761Y-50696761D01*
X37282523Y-50601523D01*
X37234904Y-50506285D01*
X37187285Y-50315809D01*
X37187285Y-50172952D01*
X37234904Y-49982476D01*
X37282523Y-49887238D01*
X37377761Y-49792000D01*
X37520619Y-49744380D01*
X37615857Y-49744380D01*
X37758714Y-49792000D01*
X37806333Y-49839619D01*
X38187285Y-49839619D02*
X38234904Y-49792000D01*
X38330142Y-49744380D01*
X38568238Y-49744380D01*
X38663476Y-49792000D01*
X38711095Y-49839619D01*
X38758714Y-49934857D01*
X38758714Y-50030095D01*
X38711095Y-50172952D01*
X38139666Y-50744380D01*
X38758714Y-50744380D01*
G04 #@! TO.C,R11*
X63365142Y-40584380D02*
X63031809Y-40108190D01*
X62793714Y-40584380D02*
X62793714Y-39584380D01*
X63174666Y-39584380D01*
X63269904Y-39632000D01*
X63317523Y-39679619D01*
X63365142Y-39774857D01*
X63365142Y-39917714D01*
X63317523Y-40012952D01*
X63269904Y-40060571D01*
X63174666Y-40108190D01*
X62793714Y-40108190D01*
X64317523Y-40584380D02*
X63746095Y-40584380D01*
X64031809Y-40584380D02*
X64031809Y-39584380D01*
X63936571Y-39727238D01*
X63841333Y-39822476D01*
X63746095Y-39870095D01*
X65269904Y-40584380D02*
X64698476Y-40584380D01*
X64984190Y-40584380D02*
X64984190Y-39584380D01*
X64888952Y-39727238D01*
X64793714Y-39822476D01*
X64698476Y-39870095D01*
X70366095Y-39679619D02*
X70413714Y-39632000D01*
X70508952Y-39584380D01*
X70747047Y-39584380D01*
X70842285Y-39632000D01*
X70889904Y-39679619D01*
X70937523Y-39774857D01*
X70937523Y-39870095D01*
X70889904Y-40012952D01*
X70318476Y-40584380D01*
X70937523Y-40584380D01*
X71556571Y-39584380D02*
X71651809Y-39584380D01*
X71747047Y-39632000D01*
X71794666Y-39679619D01*
X71842285Y-39774857D01*
X71889904Y-39965333D01*
X71889904Y-40203428D01*
X71842285Y-40393904D01*
X71794666Y-40489142D01*
X71747047Y-40536761D01*
X71651809Y-40584380D01*
X71556571Y-40584380D01*
X71461333Y-40536761D01*
X71413714Y-40489142D01*
X71366095Y-40393904D01*
X71318476Y-40203428D01*
X71318476Y-39965333D01*
X71366095Y-39774857D01*
X71413714Y-39679619D01*
X71461333Y-39632000D01*
X71556571Y-39584380D01*
X72318476Y-40584380D02*
X72318476Y-39584380D01*
X72889904Y-40584380D02*
X72461333Y-40012952D01*
X72889904Y-39584380D02*
X72318476Y-40155809D01*
G04 #@! TO.C,C4*
X54316333Y-63730142D02*
X54268714Y-63777761D01*
X54125857Y-63825380D01*
X54030619Y-63825380D01*
X53887761Y-63777761D01*
X53792523Y-63682523D01*
X53744904Y-63587285D01*
X53697285Y-63396809D01*
X53697285Y-63253952D01*
X53744904Y-63063476D01*
X53792523Y-62968238D01*
X53887761Y-62873000D01*
X54030619Y-62825380D01*
X54125857Y-62825380D01*
X54268714Y-62873000D01*
X54316333Y-62920619D01*
X55173476Y-63158714D02*
X55173476Y-63825380D01*
X54935380Y-62777761D02*
X54697285Y-63492047D01*
X55316333Y-63492047D01*
G04 #@! TO.C,R12*
X55316380Y-38996857D02*
X54840190Y-39330190D01*
X55316380Y-39568285D02*
X54316380Y-39568285D01*
X54316380Y-39187333D01*
X54364000Y-39092095D01*
X54411619Y-39044476D01*
X54506857Y-38996857D01*
X54649714Y-38996857D01*
X54744952Y-39044476D01*
X54792571Y-39092095D01*
X54840190Y-39187333D01*
X54840190Y-39568285D01*
X55316380Y-38044476D02*
X55316380Y-38615904D01*
X55316380Y-38330190D02*
X54316380Y-38330190D01*
X54459238Y-38425428D01*
X54554476Y-38520666D01*
X54602095Y-38615904D01*
X54411619Y-37663523D02*
X54364000Y-37615904D01*
X54316380Y-37520666D01*
X54316380Y-37282571D01*
X54364000Y-37187333D01*
X54411619Y-37139714D01*
X54506857Y-37092095D01*
X54602095Y-37092095D01*
X54744952Y-37139714D01*
X55316380Y-37711142D01*
X55316380Y-37092095D01*
X55570380Y-31654666D02*
X55570380Y-32226095D01*
X55570380Y-31940380D02*
X54570380Y-31940380D01*
X54713238Y-32035619D01*
X54808476Y-32130857D01*
X54856095Y-32226095D01*
X54570380Y-31035619D02*
X54570380Y-30940380D01*
X54618000Y-30845142D01*
X54665619Y-30797523D01*
X54760857Y-30749904D01*
X54951333Y-30702285D01*
X55189428Y-30702285D01*
X55379904Y-30749904D01*
X55475142Y-30797523D01*
X55522761Y-30845142D01*
X55570380Y-30940380D01*
X55570380Y-31035619D01*
X55522761Y-31130857D01*
X55475142Y-31178476D01*
X55379904Y-31226095D01*
X55189428Y-31273714D01*
X54951333Y-31273714D01*
X54760857Y-31226095D01*
X54665619Y-31178476D01*
X54618000Y-31130857D01*
X54570380Y-31035619D01*
X54570380Y-30083238D02*
X54570380Y-29988000D01*
X54618000Y-29892761D01*
X54665619Y-29845142D01*
X54760857Y-29797523D01*
X54951333Y-29749904D01*
X55189428Y-29749904D01*
X55379904Y-29797523D01*
X55475142Y-29845142D01*
X55522761Y-29892761D01*
X55570380Y-29988000D01*
X55570380Y-30083238D01*
X55522761Y-30178476D01*
X55475142Y-30226095D01*
X55379904Y-30273714D01*
X55189428Y-30321333D01*
X54951333Y-30321333D01*
X54760857Y-30273714D01*
X54665619Y-30226095D01*
X54618000Y-30178476D01*
X54570380Y-30083238D01*
G04 #@! TO.C,R16*
X78097142Y-32964380D02*
X77763809Y-32488190D01*
X77525714Y-32964380D02*
X77525714Y-31964380D01*
X77906666Y-31964380D01*
X78001904Y-32012000D01*
X78049523Y-32059619D01*
X78097142Y-32154857D01*
X78097142Y-32297714D01*
X78049523Y-32392952D01*
X78001904Y-32440571D01*
X77906666Y-32488190D01*
X77525714Y-32488190D01*
X79049523Y-32964380D02*
X78478095Y-32964380D01*
X78763809Y-32964380D02*
X78763809Y-31964380D01*
X78668571Y-32107238D01*
X78573333Y-32202476D01*
X78478095Y-32250095D01*
X79906666Y-31964380D02*
X79716190Y-31964380D01*
X79620952Y-32012000D01*
X79573333Y-32059619D01*
X79478095Y-32202476D01*
X79430476Y-32392952D01*
X79430476Y-32773904D01*
X79478095Y-32869142D01*
X79525714Y-32916761D01*
X79620952Y-32964380D01*
X79811428Y-32964380D01*
X79906666Y-32916761D01*
X79954285Y-32869142D01*
X80001904Y-32773904D01*
X80001904Y-32535809D01*
X79954285Y-32440571D01*
X79906666Y-32392952D01*
X79811428Y-32345333D01*
X79620952Y-32345333D01*
X79525714Y-32392952D01*
X79478095Y-32440571D01*
X79430476Y-32535809D01*
X70781523Y-32964380D02*
X70210095Y-32964380D01*
X70495809Y-32964380D02*
X70495809Y-31964380D01*
X70400571Y-32107238D01*
X70305333Y-32202476D01*
X70210095Y-32250095D01*
X71400571Y-31964380D02*
X71495809Y-31964380D01*
X71591047Y-32012000D01*
X71638666Y-32059619D01*
X71686285Y-32154857D01*
X71733904Y-32345333D01*
X71733904Y-32583428D01*
X71686285Y-32773904D01*
X71638666Y-32869142D01*
X71591047Y-32916761D01*
X71495809Y-32964380D01*
X71400571Y-32964380D01*
X71305333Y-32916761D01*
X71257714Y-32869142D01*
X71210095Y-32773904D01*
X71162476Y-32583428D01*
X71162476Y-32345333D01*
X71210095Y-32154857D01*
X71257714Y-32059619D01*
X71305333Y-32012000D01*
X71400571Y-31964380D01*
X72162476Y-32964380D02*
X72162476Y-31964380D01*
X72733904Y-32964380D02*
X72305333Y-32392952D01*
X72733904Y-31964380D02*
X72162476Y-32535809D01*
G04 #@! TO.C,J6*
X85177380Y-41608333D02*
X85891666Y-41608333D01*
X86034523Y-41655952D01*
X86129761Y-41751190D01*
X86177380Y-41894047D01*
X86177380Y-41989285D01*
X85177380Y-40703571D02*
X85177380Y-40894047D01*
X85225000Y-40989285D01*
X85272619Y-41036904D01*
X85415476Y-41132142D01*
X85605952Y-41179761D01*
X85986904Y-41179761D01*
X86082142Y-41132142D01*
X86129761Y-41084523D01*
X86177380Y-40989285D01*
X86177380Y-40798809D01*
X86129761Y-40703571D01*
X86082142Y-40655952D01*
X85986904Y-40608333D01*
X85748809Y-40608333D01*
X85653571Y-40655952D01*
X85605952Y-40703571D01*
X85558333Y-40798809D01*
X85558333Y-40989285D01*
X85605952Y-41084523D01*
X85653571Y-41132142D01*
X85748809Y-41179761D01*
G04 #@! TO.C,R13*
X51633380Y-39250857D02*
X51157190Y-39584190D01*
X51633380Y-39822285D02*
X50633380Y-39822285D01*
X50633380Y-39441333D01*
X50681000Y-39346095D01*
X50728619Y-39298476D01*
X50823857Y-39250857D01*
X50966714Y-39250857D01*
X51061952Y-39298476D01*
X51109571Y-39346095D01*
X51157190Y-39441333D01*
X51157190Y-39822285D01*
X51633380Y-38298476D02*
X51633380Y-38869904D01*
X51633380Y-38584190D02*
X50633380Y-38584190D01*
X50776238Y-38679428D01*
X50871476Y-38774666D01*
X50919095Y-38869904D01*
X50633380Y-37965142D02*
X50633380Y-37346095D01*
X51014333Y-37679428D01*
X51014333Y-37536571D01*
X51061952Y-37441333D01*
X51109571Y-37393714D01*
X51204809Y-37346095D01*
X51442904Y-37346095D01*
X51538142Y-37393714D01*
X51585761Y-37441333D01*
X51633380Y-37536571D01*
X51633380Y-37822285D01*
X51585761Y-37917523D01*
X51538142Y-37965142D01*
X51760380Y-31781666D02*
X51760380Y-32353095D01*
X51760380Y-32067380D02*
X50760380Y-32067380D01*
X50903238Y-32162619D01*
X50998476Y-32257857D01*
X51046095Y-32353095D01*
X50760380Y-31162619D02*
X50760380Y-31067380D01*
X50808000Y-30972142D01*
X50855619Y-30924523D01*
X50950857Y-30876904D01*
X51141333Y-30829285D01*
X51379428Y-30829285D01*
X51569904Y-30876904D01*
X51665142Y-30924523D01*
X51712761Y-30972142D01*
X51760380Y-31067380D01*
X51760380Y-31162619D01*
X51712761Y-31257857D01*
X51665142Y-31305476D01*
X51569904Y-31353095D01*
X51379428Y-31400714D01*
X51141333Y-31400714D01*
X50950857Y-31353095D01*
X50855619Y-31305476D01*
X50808000Y-31257857D01*
X50760380Y-31162619D01*
X50760380Y-30210238D02*
X50760380Y-30115000D01*
X50808000Y-30019761D01*
X50855619Y-29972142D01*
X50950857Y-29924523D01*
X51141333Y-29876904D01*
X51379428Y-29876904D01*
X51569904Y-29924523D01*
X51665142Y-29972142D01*
X51712761Y-30019761D01*
X51760380Y-30115000D01*
X51760380Y-30210238D01*
X51712761Y-30305476D01*
X51665142Y-30353095D01*
X51569904Y-30400714D01*
X51379428Y-30448333D01*
X51141333Y-30448333D01*
X50950857Y-30400714D01*
X50855619Y-30353095D01*
X50808000Y-30305476D01*
X50760380Y-30210238D01*
G04 #@! TO.C,R5*
X65984380Y-51220666D02*
X65508190Y-51554000D01*
X65984380Y-51792095D02*
X64984380Y-51792095D01*
X64984380Y-51411142D01*
X65032000Y-51315904D01*
X65079619Y-51268285D01*
X65174857Y-51220666D01*
X65317714Y-51220666D01*
X65412952Y-51268285D01*
X65460571Y-51315904D01*
X65508190Y-51411142D01*
X65508190Y-51792095D01*
X64984380Y-50315904D02*
X64984380Y-50792095D01*
X65460571Y-50839714D01*
X65412952Y-50792095D01*
X65365333Y-50696857D01*
X65365333Y-50458761D01*
X65412952Y-50363523D01*
X65460571Y-50315904D01*
X65555809Y-50268285D01*
X65793904Y-50268285D01*
X65889142Y-50315904D01*
X65936761Y-50363523D01*
X65984380Y-50458761D01*
X65984380Y-50696857D01*
X65936761Y-50792095D01*
X65889142Y-50839714D01*
X64460380Y-56221238D02*
X64460380Y-56792666D01*
X64460380Y-56506952D02*
X63460380Y-56506952D01*
X63603238Y-56602190D01*
X63698476Y-56697428D01*
X63746095Y-56792666D01*
X63555619Y-55840285D02*
X63508000Y-55792666D01*
X63460380Y-55697428D01*
X63460380Y-55459333D01*
X63508000Y-55364095D01*
X63555619Y-55316476D01*
X63650857Y-55268857D01*
X63746095Y-55268857D01*
X63888952Y-55316476D01*
X64460380Y-55887904D01*
X64460380Y-55268857D01*
X64460380Y-54840285D02*
X63460380Y-54840285D01*
X64079428Y-54745047D02*
X64460380Y-54459333D01*
X63793714Y-54459333D02*
X64174666Y-54840285D01*
G04 #@! TO.C,C9*
X79605142Y-53379666D02*
X79652761Y-53427285D01*
X79700380Y-53570142D01*
X79700380Y-53665380D01*
X79652761Y-53808238D01*
X79557523Y-53903476D01*
X79462285Y-53951095D01*
X79271809Y-53998714D01*
X79128952Y-53998714D01*
X78938476Y-53951095D01*
X78843238Y-53903476D01*
X78748000Y-53808238D01*
X78700380Y-53665380D01*
X78700380Y-53570142D01*
X78748000Y-53427285D01*
X78795619Y-53379666D01*
X79700380Y-52903476D02*
X79700380Y-52713000D01*
X79652761Y-52617761D01*
X79605142Y-52570142D01*
X79462285Y-52474904D01*
X79271809Y-52427285D01*
X78890857Y-52427285D01*
X78795619Y-52474904D01*
X78748000Y-52522523D01*
X78700380Y-52617761D01*
X78700380Y-52808238D01*
X78748000Y-52903476D01*
X78795619Y-52951095D01*
X78890857Y-52998714D01*
X79128952Y-52998714D01*
X79224190Y-52951095D01*
X79271809Y-52903476D01*
X79319428Y-52808238D01*
X79319428Y-52617761D01*
X79271809Y-52522523D01*
X79224190Y-52474904D01*
X79128952Y-52427285D01*
G04 #@! TO.C,U1*
X53594095Y-57745380D02*
X53594095Y-58554904D01*
X53641714Y-58650142D01*
X53689333Y-58697761D01*
X53784571Y-58745380D01*
X53975047Y-58745380D01*
X54070285Y-58697761D01*
X54117904Y-58650142D01*
X54165523Y-58554904D01*
X54165523Y-57745380D01*
X55165523Y-58745380D02*
X54594095Y-58745380D01*
X54879809Y-58745380D02*
X54879809Y-57745380D01*
X54784571Y-57888238D01*
X54689333Y-57983476D01*
X54594095Y-58031095D01*
G04 #@! TO.C,R9*
X64095333Y-48204380D02*
X63762000Y-47728190D01*
X63523904Y-48204380D02*
X63523904Y-47204380D01*
X63904857Y-47204380D01*
X64000095Y-47252000D01*
X64047714Y-47299619D01*
X64095333Y-47394857D01*
X64095333Y-47537714D01*
X64047714Y-47632952D01*
X64000095Y-47680571D01*
X63904857Y-47728190D01*
X63523904Y-47728190D01*
X64571523Y-48204380D02*
X64762000Y-48204380D01*
X64857238Y-48156761D01*
X64904857Y-48109142D01*
X65000095Y-47966285D01*
X65047714Y-47775809D01*
X65047714Y-47394857D01*
X65000095Y-47299619D01*
X64952476Y-47252000D01*
X64857238Y-47204380D01*
X64666761Y-47204380D01*
X64571523Y-47252000D01*
X64523904Y-47299619D01*
X64476285Y-47394857D01*
X64476285Y-47632952D01*
X64523904Y-47728190D01*
X64571523Y-47775809D01*
X64666761Y-47823428D01*
X64857238Y-47823428D01*
X64952476Y-47775809D01*
X65000095Y-47728190D01*
X65047714Y-47632952D01*
X70937523Y-47791714D02*
X70937523Y-48458380D01*
X70699428Y-47410761D02*
X70461333Y-48125047D01*
X71080380Y-48125047D01*
X71366095Y-47458380D02*
X72032761Y-47458380D01*
X71604190Y-48458380D01*
X72413714Y-48458380D02*
X72413714Y-47458380D01*
X72508952Y-48077428D02*
X72794666Y-48458380D01*
X72794666Y-47791714D02*
X72413714Y-48172666D01*
G04 #@! TO.C,C7*
X59031142Y-38012666D02*
X59078761Y-38060285D01*
X59126380Y-38203142D01*
X59126380Y-38298380D01*
X59078761Y-38441238D01*
X58983523Y-38536476D01*
X58888285Y-38584095D01*
X58697809Y-38631714D01*
X58554952Y-38631714D01*
X58364476Y-38584095D01*
X58269238Y-38536476D01*
X58174000Y-38441238D01*
X58126380Y-38298380D01*
X58126380Y-38203142D01*
X58174000Y-38060285D01*
X58221619Y-38012666D01*
X58126380Y-37679333D02*
X58126380Y-37012666D01*
X59126380Y-37441238D01*
X59126380Y-32746666D02*
X59126380Y-33318095D01*
X59126380Y-33032380D02*
X58126380Y-33032380D01*
X58269238Y-33127619D01*
X58364476Y-33222857D01*
X58412095Y-33318095D01*
X58459714Y-31889523D02*
X59126380Y-31889523D01*
X58459714Y-32318095D02*
X58983523Y-32318095D01*
X59078761Y-32270476D01*
X59126380Y-32175238D01*
X59126380Y-32032380D01*
X59078761Y-31937142D01*
X59031142Y-31889523D01*
G04 #@! TO.C,PS1*
X38409714Y-36552380D02*
X38409714Y-35552380D01*
X38790666Y-35552380D01*
X38885904Y-35600000D01*
X38933523Y-35647619D01*
X38981142Y-35742857D01*
X38981142Y-35885714D01*
X38933523Y-35980952D01*
X38885904Y-36028571D01*
X38790666Y-36076190D01*
X38409714Y-36076190D01*
X39362095Y-36504761D02*
X39504952Y-36552380D01*
X39743047Y-36552380D01*
X39838285Y-36504761D01*
X39885904Y-36457142D01*
X39933523Y-36361904D01*
X39933523Y-36266666D01*
X39885904Y-36171428D01*
X39838285Y-36123809D01*
X39743047Y-36076190D01*
X39552571Y-36028571D01*
X39457333Y-35980952D01*
X39409714Y-35933333D01*
X39362095Y-35838095D01*
X39362095Y-35742857D01*
X39409714Y-35647619D01*
X39457333Y-35600000D01*
X39552571Y-35552380D01*
X39790666Y-35552380D01*
X39933523Y-35600000D01*
X40885904Y-36552380D02*
X40314476Y-36552380D01*
X40600190Y-36552380D02*
X40600190Y-35552380D01*
X40504952Y-35695238D01*
X40409714Y-35790476D01*
X40314476Y-35838095D01*
G04 #@! TO.C,C10*
X87069142Y-30457142D02*
X87021523Y-30504761D01*
X86878666Y-30552380D01*
X86783428Y-30552380D01*
X86640571Y-30504761D01*
X86545333Y-30409523D01*
X86497714Y-30314285D01*
X86450095Y-30123809D01*
X86450095Y-29980952D01*
X86497714Y-29790476D01*
X86545333Y-29695238D01*
X86640571Y-29600000D01*
X86783428Y-29552380D01*
X86878666Y-29552380D01*
X87021523Y-29600000D01*
X87069142Y-29647619D01*
X88021523Y-30552380D02*
X87450095Y-30552380D01*
X87735809Y-30552380D02*
X87735809Y-29552380D01*
X87640571Y-29695238D01*
X87545333Y-29790476D01*
X87450095Y-29838095D01*
X88640571Y-29552380D02*
X88735809Y-29552380D01*
X88831047Y-29600000D01*
X88878666Y-29647619D01*
X88926285Y-29742857D01*
X88973904Y-29933333D01*
X88973904Y-30171428D01*
X88926285Y-30361904D01*
X88878666Y-30457142D01*
X88831047Y-30504761D01*
X88735809Y-30552380D01*
X88640571Y-30552380D01*
X88545333Y-30504761D01*
X88497714Y-30457142D01*
X88450095Y-30361904D01*
X88402476Y-30171428D01*
X88402476Y-29933333D01*
X88450095Y-29742857D01*
X88497714Y-29647619D01*
X88545333Y-29600000D01*
X88640571Y-29552380D01*
G04 #@! TO.C,J3*
X47164666Y-25106380D02*
X47164666Y-25820666D01*
X47117047Y-25963523D01*
X47021809Y-26058761D01*
X46878952Y-26106380D01*
X46783714Y-26106380D01*
X47545619Y-25106380D02*
X48164666Y-25106380D01*
X47831333Y-25487333D01*
X47974190Y-25487333D01*
X48069428Y-25534952D01*
X48117047Y-25582571D01*
X48164666Y-25677809D01*
X48164666Y-25915904D01*
X48117047Y-26011142D01*
X48069428Y-26058761D01*
X47974190Y-26106380D01*
X47688476Y-26106380D01*
X47593238Y-26058761D01*
X47545619Y-26011142D01*
G04 #@! TO.C,C11*
X79478142Y-21597857D02*
X79525761Y-21645476D01*
X79573380Y-21788333D01*
X79573380Y-21883571D01*
X79525761Y-22026428D01*
X79430523Y-22121666D01*
X79335285Y-22169285D01*
X79144809Y-22216904D01*
X79001952Y-22216904D01*
X78811476Y-22169285D01*
X78716238Y-22121666D01*
X78621000Y-22026428D01*
X78573380Y-21883571D01*
X78573380Y-21788333D01*
X78621000Y-21645476D01*
X78668619Y-21597857D01*
X79573380Y-20645476D02*
X79573380Y-21216904D01*
X79573380Y-20931190D02*
X78573380Y-20931190D01*
X78716238Y-21026428D01*
X78811476Y-21121666D01*
X78859095Y-21216904D01*
X79573380Y-19693095D02*
X79573380Y-20264523D01*
X79573380Y-19978809D02*
X78573380Y-19978809D01*
X78716238Y-20074047D01*
X78811476Y-20169285D01*
X78859095Y-20264523D01*
D11*
G04 #@! TO.C,U3*
X76612000Y-55710000D02*
G75*
G03*
X76612000Y-57710000I0J-1000000D01*
G01*
X66272000Y-51570000D02*
X66272000Y-61850000D01*
X66332000Y-54060000D02*
X66332000Y-59360000D01*
X76672000Y-51570000D02*
X66272000Y-51570000D01*
X66332000Y-59360000D02*
X76612000Y-59360000D01*
X76672000Y-61850000D02*
X76672000Y-51570000D01*
X76612000Y-59360000D02*
X76612000Y-57710000D01*
X66272000Y-61850000D02*
X76672000Y-61850000D01*
X76612000Y-54060000D02*
X66332000Y-54060000D01*
X76612000Y-55710000D02*
X76612000Y-54060000D01*
G04 #@! TO.C,C13*
X60840000Y-45108000D02*
X56000000Y-45108000D01*
X60840000Y-47348000D02*
X56000000Y-47348000D01*
X56000000Y-47348000D02*
X56000000Y-45108000D01*
X60840000Y-47348000D02*
X60840000Y-45108000D01*
G04 #@! TO.C,R8*
X74742000Y-65700000D02*
X74742000Y-62960000D01*
X75512000Y-64330000D02*
X74742000Y-64330000D01*
X68202000Y-62960000D02*
X68202000Y-65700000D01*
X68202000Y-65700000D02*
X74742000Y-65700000D01*
X74742000Y-62960000D02*
X68202000Y-62960000D01*
X67432000Y-64330000D02*
X68202000Y-64330000D01*
G04 #@! TO.C,JP1*
X80302000Y-31325000D02*
X80302000Y-29995000D01*
X80302000Y-32595000D02*
X82962000Y-32595000D01*
X80302000Y-32595000D02*
X80302000Y-37735000D01*
X82962000Y-32595000D02*
X82962000Y-37735000D01*
X80302000Y-37735000D02*
X82962000Y-37735000D01*
X80302000Y-29995000D02*
X81632000Y-29995000D01*
G04 #@! TO.C,C3*
X60840000Y-54460000D02*
X56000000Y-54460000D01*
X60840000Y-52220000D02*
X56000000Y-52220000D01*
X56000000Y-54460000D02*
X56000000Y-52220000D01*
X60840000Y-54460000D02*
X60840000Y-52220000D01*
G04 #@! TO.C,R10*
X68202000Y-35020000D02*
X68202000Y-37760000D01*
X67432000Y-36390000D02*
X68202000Y-36390000D01*
X74742000Y-35020000D02*
X68202000Y-35020000D01*
X74742000Y-37760000D02*
X74742000Y-35020000D01*
X68202000Y-37760000D02*
X74742000Y-37760000D01*
X75512000Y-36390000D02*
X74742000Y-36390000D01*
G04 #@! TO.C,R6*
X74742000Y-45380000D02*
X74742000Y-42640000D01*
X74742000Y-42640000D02*
X68202000Y-42640000D01*
X68202000Y-42640000D02*
X68202000Y-45380000D01*
X68202000Y-45380000D02*
X74742000Y-45380000D01*
X75512000Y-44010000D02*
X74742000Y-44010000D01*
X67432000Y-44010000D02*
X68202000Y-44010000D01*
G04 #@! TO.C,R14*
X69472000Y-18710000D02*
X76012000Y-18710000D01*
X76012000Y-15970000D02*
X69472000Y-15970000D01*
X76012000Y-18710000D02*
X76012000Y-15970000D01*
X68702000Y-17340000D02*
X69472000Y-17340000D01*
X69472000Y-15970000D02*
X69472000Y-18710000D01*
X76782000Y-17340000D02*
X76012000Y-17340000D01*
G04 #@! TO.C,C6*
X81882000Y-45292000D02*
X81882000Y-46780000D01*
X81882000Y-48860000D02*
X81882000Y-50348000D01*
X82643000Y-48860000D02*
X82643000Y-50067000D01*
X83283000Y-48860000D02*
X83283000Y-49563000D01*
X83563000Y-46437000D02*
X83563000Y-49203000D01*
X81802000Y-45277000D02*
X81802000Y-46780000D01*
X81722000Y-48860000D02*
X81722000Y-50376000D01*
X82803000Y-45671000D02*
X82803000Y-46780000D01*
X82243000Y-48860000D02*
X82243000Y-50248000D01*
X83363000Y-46167000D02*
X83363000Y-46780000D01*
X83043000Y-48860000D02*
X83043000Y-49791000D01*
X82883000Y-48860000D02*
X82883000Y-49915000D01*
X83723000Y-46722000D02*
X83723000Y-48918000D01*
X83003000Y-48860000D02*
X83003000Y-49824000D01*
X81682000Y-48860000D02*
X81682000Y-50381000D01*
X83163000Y-45956000D02*
X83163000Y-46780000D01*
X83323000Y-48860000D02*
X83323000Y-49519000D01*
X83003000Y-45816000D02*
X83003000Y-46780000D01*
X81922000Y-45300000D02*
X81922000Y-46780000D01*
X82923000Y-45755000D02*
X82923000Y-46780000D01*
X83363000Y-48860000D02*
X83363000Y-49473000D01*
X81842000Y-45284000D02*
X81842000Y-46780000D01*
X81962000Y-45309000D02*
X81962000Y-46780000D01*
X81562000Y-45247000D02*
X81562000Y-46780000D01*
X83683000Y-46642000D02*
X83683000Y-48998000D01*
X82683000Y-45596000D02*
X82683000Y-46780000D01*
X82483000Y-48860000D02*
X82483000Y-50149000D01*
X83243000Y-46035000D02*
X83243000Y-46780000D01*
X82323000Y-45422000D02*
X82323000Y-46780000D01*
X83403000Y-46215000D02*
X83403000Y-49425000D01*
X82763000Y-48860000D02*
X82763000Y-49995000D01*
X83083000Y-48860000D02*
X83083000Y-49757000D01*
X82443000Y-48860000D02*
X82443000Y-50168000D01*
X82083000Y-48860000D02*
X82083000Y-50300000D01*
X82002000Y-45319000D02*
X82002000Y-46780000D01*
X81962000Y-48860000D02*
X81962000Y-50331000D01*
X82843000Y-45698000D02*
X82843000Y-46780000D01*
X82323000Y-48860000D02*
X82323000Y-50218000D01*
X82283000Y-48860000D02*
X82283000Y-50234000D01*
X83763000Y-46809000D02*
X83763000Y-48831000D01*
X83883000Y-47143000D02*
X83883000Y-48497000D01*
X83923000Y-47302000D02*
X83923000Y-48338000D01*
X82843000Y-48860000D02*
X82843000Y-49942000D01*
X81842000Y-48860000D02*
X81842000Y-50356000D01*
X82523000Y-48860000D02*
X82523000Y-50130000D01*
X82523000Y-45510000D02*
X82523000Y-46780000D01*
X82603000Y-48860000D02*
X82603000Y-50088000D01*
X83163000Y-48860000D02*
X83163000Y-49684000D01*
X82203000Y-48860000D02*
X82203000Y-50262000D01*
X81722000Y-45264000D02*
X81722000Y-46780000D01*
X81482000Y-45242000D02*
X81482000Y-46780000D01*
X81362000Y-48860000D02*
X81362000Y-50400000D01*
X83283000Y-46077000D02*
X83283000Y-46780000D01*
X82923000Y-48860000D02*
X82923000Y-49885000D01*
X81682000Y-45259000D02*
X81682000Y-46780000D01*
X81442000Y-48860000D02*
X81442000Y-50399000D01*
X81762000Y-45270000D02*
X81762000Y-46780000D01*
X81362000Y-45240000D02*
X81362000Y-46780000D01*
X82163000Y-45365000D02*
X82163000Y-46780000D01*
X78557225Y-46345000D02*
X79057225Y-46345000D01*
X82042000Y-48860000D02*
X82042000Y-50311000D01*
X83523000Y-46377000D02*
X83523000Y-49263000D01*
X82603000Y-45552000D02*
X82603000Y-46780000D01*
X82203000Y-45378000D02*
X82203000Y-46780000D01*
X81922000Y-48860000D02*
X81922000Y-50340000D01*
X83243000Y-48860000D02*
X83243000Y-49605000D01*
X82723000Y-45620000D02*
X82723000Y-46780000D01*
X83603000Y-46501000D02*
X83603000Y-49139000D01*
X82683000Y-48860000D02*
X82683000Y-50044000D01*
X83803000Y-46905000D02*
X83803000Y-48735000D01*
X82163000Y-48860000D02*
X82163000Y-50275000D01*
X83043000Y-45849000D02*
X83043000Y-46780000D01*
X83323000Y-46121000D02*
X83323000Y-46780000D01*
X81402000Y-48860000D02*
X81402000Y-50400000D01*
X82002000Y-48860000D02*
X82002000Y-50321000D01*
X82123000Y-45352000D02*
X82123000Y-46780000D01*
X78807225Y-46095000D02*
X78807225Y-46595000D01*
X83203000Y-45994000D02*
X83203000Y-46780000D01*
X82283000Y-45406000D02*
X82283000Y-46780000D01*
X82563000Y-48860000D02*
X82563000Y-50110000D01*
X81522000Y-45244000D02*
X81522000Y-46780000D01*
X82243000Y-45392000D02*
X82243000Y-46780000D01*
X81482000Y-48860000D02*
X81482000Y-50398000D01*
X82803000Y-48860000D02*
X82803000Y-49969000D01*
X82563000Y-45530000D02*
X82563000Y-46780000D01*
X81602000Y-48860000D02*
X81602000Y-50389000D01*
X82403000Y-45455000D02*
X82403000Y-46780000D01*
X83203000Y-48860000D02*
X83203000Y-49646000D01*
X82042000Y-45329000D02*
X82042000Y-46780000D01*
X83483000Y-46320000D02*
X83483000Y-49320000D01*
X81642000Y-45255000D02*
X81642000Y-46780000D01*
X82363000Y-48860000D02*
X82363000Y-50202000D01*
X82883000Y-45725000D02*
X82883000Y-46780000D01*
X82963000Y-48860000D02*
X82963000Y-49855000D01*
X81442000Y-45241000D02*
X81442000Y-46780000D01*
X83443000Y-46266000D02*
X83443000Y-49374000D01*
X83083000Y-45883000D02*
X83083000Y-46780000D01*
X81402000Y-45240000D02*
X81402000Y-46780000D01*
X81602000Y-45251000D02*
X81602000Y-46780000D01*
X82363000Y-45438000D02*
X82363000Y-46780000D01*
X82083000Y-45340000D02*
X82083000Y-46780000D01*
X83123000Y-48860000D02*
X83123000Y-49721000D01*
X83123000Y-45919000D02*
X83123000Y-46780000D01*
X81762000Y-48860000D02*
X81762000Y-50370000D01*
X83963000Y-47536000D02*
X83963000Y-48104000D01*
X83643000Y-46569000D02*
X83643000Y-49071000D01*
X82723000Y-48860000D02*
X82723000Y-50020000D01*
X82403000Y-48860000D02*
X82403000Y-50185000D01*
X82443000Y-45472000D02*
X82443000Y-46780000D01*
X82963000Y-45785000D02*
X82963000Y-46780000D01*
X82643000Y-45573000D02*
X82643000Y-46780000D01*
X81642000Y-48860000D02*
X81642000Y-50385000D01*
X81562000Y-48860000D02*
X81562000Y-50393000D01*
X82483000Y-45491000D02*
X82483000Y-46780000D01*
X82763000Y-45645000D02*
X82763000Y-46780000D01*
X81802000Y-48860000D02*
X81802000Y-50363000D01*
X82123000Y-48860000D02*
X82123000Y-50288000D01*
X81522000Y-48860000D02*
X81522000Y-50396000D01*
X83843000Y-47015000D02*
X83843000Y-48625000D01*
X83982000Y-47820000D02*
G75*
G03*
X83982000Y-47820000I-2620000J0D01*
G01*
G04 #@! TO.C,J1*
X33220000Y-48290000D02*
X33220000Y-49040000D01*
X35770000Y-47990000D02*
X34520000Y-47990000D01*
X29510000Y-48280000D02*
X29510000Y-58400000D01*
X34720000Y-58390000D02*
X35470000Y-58390000D01*
X35470000Y-48290000D02*
X34720000Y-48290000D01*
X33220000Y-57640000D02*
X30270000Y-57640000D01*
X35480000Y-48280000D02*
X29510000Y-48280000D01*
X30270000Y-49040000D02*
X30270000Y-53340000D01*
X35770000Y-49240000D02*
X35770000Y-47990000D01*
X35470000Y-55090000D02*
X35470000Y-51590000D01*
X34720000Y-51590000D02*
X34720000Y-55090000D01*
X29510000Y-58400000D02*
X35480000Y-58400000D01*
X34720000Y-50090000D02*
X35470000Y-50090000D01*
X33220000Y-58390000D02*
X33220000Y-57640000D01*
X30270000Y-57640000D02*
X30270000Y-53340000D01*
X34720000Y-56590000D02*
X34720000Y-58390000D01*
X35470000Y-58390000D02*
X35470000Y-56590000D01*
X35480000Y-58400000D02*
X35480000Y-48280000D01*
X34720000Y-48290000D02*
X34720000Y-50090000D01*
X35470000Y-56590000D02*
X34720000Y-56590000D01*
X34720000Y-55090000D02*
X35470000Y-55090000D01*
X33220000Y-49040000D02*
X30270000Y-49040000D01*
X35470000Y-50090000D02*
X35470000Y-48290000D01*
X35470000Y-51590000D02*
X34720000Y-51590000D01*
G04 #@! TO.C,J4*
X29270000Y-29270000D02*
X27940000Y-29270000D01*
X29270000Y-27940000D02*
X29270000Y-29270000D01*
X26610000Y-26670000D02*
X26610000Y-24070000D01*
X29270000Y-24070000D02*
X26610000Y-24070000D01*
X29270000Y-26670000D02*
X26610000Y-26670000D01*
X29270000Y-26670000D02*
X29270000Y-24070000D01*
G04 #@! TO.C,J2*
X29270000Y-31690000D02*
X26610000Y-31690000D01*
X29270000Y-39370000D02*
X26610000Y-39370000D01*
X29270000Y-41970000D02*
X27940000Y-41970000D01*
X29270000Y-39370000D02*
X29270000Y-31690000D01*
X26610000Y-39370000D02*
X26610000Y-31690000D01*
X29270000Y-40640000D02*
X29270000Y-41970000D01*
G04 #@! TO.C,J7*
X90412000Y-24160000D02*
X90412000Y-25760000D01*
X85992000Y-27500000D02*
X84992000Y-27500000D01*
X84992000Y-23580000D02*
X84992000Y-28880000D01*
X86522000Y-27250000D02*
X85992000Y-27500000D01*
X84992000Y-24960000D02*
X85992000Y-24960000D01*
X90412000Y-28300000D02*
X91012000Y-28300000D01*
X86522000Y-25210000D02*
X86522000Y-27250000D01*
X90412000Y-25760000D02*
X91012000Y-25760000D01*
X84992000Y-25210000D02*
X85992000Y-25210000D01*
X91012000Y-23580000D02*
X84992000Y-23580000D01*
X89982000Y-23290000D02*
X85982000Y-23290000D01*
X85992000Y-24960000D02*
X86522000Y-25210000D01*
X90412000Y-26700000D02*
X90412000Y-28300000D01*
X91012000Y-24160000D02*
X90412000Y-24160000D01*
X91012000Y-28880000D02*
X91012000Y-23580000D01*
X85992000Y-24960000D02*
X85992000Y-27500000D01*
X84992000Y-28880000D02*
X91012000Y-28880000D01*
X91012000Y-26700000D02*
X90412000Y-26700000D01*
X84992000Y-27250000D02*
X85992000Y-27250000D01*
G04 #@! TO.C,J5*
X84992000Y-50610000D02*
X85992000Y-50610000D01*
X85992000Y-50360000D02*
X86522000Y-50610000D01*
X91012000Y-48980000D02*
X84992000Y-48980000D01*
X90412000Y-49560000D02*
X90412000Y-51160000D01*
X90412000Y-52100000D02*
X90412000Y-53700000D01*
X85992000Y-52900000D02*
X84992000Y-52900000D01*
X84992000Y-54280000D02*
X91012000Y-54280000D01*
X90412000Y-53700000D02*
X91012000Y-53700000D01*
X91012000Y-54280000D02*
X91012000Y-48980000D01*
X91012000Y-52100000D02*
X90412000Y-52100000D01*
X84992000Y-52650000D02*
X85992000Y-52650000D01*
X84992000Y-48980000D02*
X84992000Y-54280000D01*
X89982000Y-48690000D02*
X85982000Y-48690000D01*
X84992000Y-50360000D02*
X85992000Y-50360000D01*
X91012000Y-49560000D02*
X90412000Y-49560000D01*
X85992000Y-50360000D02*
X85992000Y-52900000D01*
X90412000Y-51160000D02*
X91012000Y-51160000D01*
X86522000Y-52650000D02*
X85992000Y-52900000D01*
X86522000Y-50610000D02*
X86522000Y-52650000D01*
G04 #@! TO.C,C12*
X60840000Y-57254000D02*
X60840000Y-55014000D01*
X60840000Y-57254000D02*
X56000000Y-57254000D01*
X60840000Y-55014000D02*
X56000000Y-55014000D01*
X56000000Y-57254000D02*
X56000000Y-55014000D01*
G04 #@! TO.C,C5*
X81442000Y-64100000D02*
X81442000Y-65639000D01*
X83283000Y-64100000D02*
X83283000Y-64803000D01*
X82723000Y-60860000D02*
X82723000Y-62020000D01*
X81402000Y-64100000D02*
X81402000Y-65640000D01*
X81642000Y-64100000D02*
X81642000Y-65625000D01*
X81722000Y-60504000D02*
X81722000Y-62020000D01*
X81522000Y-60484000D02*
X81522000Y-62020000D01*
X81882000Y-60532000D02*
X81882000Y-62020000D01*
X82483000Y-60731000D02*
X82483000Y-62020000D01*
X83643000Y-61809000D02*
X83643000Y-64311000D01*
X81682000Y-60499000D02*
X81682000Y-62020000D01*
X81922000Y-64100000D02*
X81922000Y-65580000D01*
X81722000Y-64100000D02*
X81722000Y-65616000D01*
X82042000Y-60569000D02*
X82042000Y-62020000D01*
X81922000Y-60540000D02*
X81922000Y-62020000D01*
X82763000Y-64100000D02*
X82763000Y-65235000D01*
X83523000Y-61617000D02*
X83523000Y-64503000D01*
X82083000Y-64100000D02*
X82083000Y-65540000D01*
X82923000Y-60995000D02*
X82923000Y-62020000D01*
X83243000Y-64100000D02*
X83243000Y-64845000D01*
X82443000Y-60712000D02*
X82443000Y-62020000D01*
X82603000Y-64100000D02*
X82603000Y-65328000D01*
X82923000Y-64100000D02*
X82923000Y-65125000D01*
X83843000Y-62255000D02*
X83843000Y-63865000D01*
X81522000Y-64100000D02*
X81522000Y-65636000D01*
X81362000Y-60480000D02*
X81362000Y-62020000D01*
X83323000Y-64100000D02*
X83323000Y-64759000D01*
X83403000Y-61455000D02*
X83403000Y-64665000D01*
X83003000Y-61056000D02*
X83003000Y-62020000D01*
X82963000Y-61025000D02*
X82963000Y-62020000D01*
X82843000Y-64100000D02*
X82843000Y-65182000D01*
X83283000Y-61317000D02*
X83283000Y-62020000D01*
X81602000Y-64100000D02*
X81602000Y-65629000D01*
X82403000Y-64100000D02*
X82403000Y-65425000D01*
X82403000Y-60695000D02*
X82403000Y-62020000D01*
X81562000Y-60487000D02*
X81562000Y-62020000D01*
X82803000Y-64100000D02*
X82803000Y-65209000D01*
X81802000Y-60517000D02*
X81802000Y-62020000D01*
X83763000Y-62049000D02*
X83763000Y-64071000D01*
X82483000Y-64100000D02*
X82483000Y-65389000D01*
X82163000Y-60605000D02*
X82163000Y-62020000D01*
X81682000Y-64100000D02*
X81682000Y-65621000D01*
X82883000Y-64100000D02*
X82883000Y-65155000D01*
X82203000Y-60618000D02*
X82203000Y-62020000D01*
X81802000Y-64100000D02*
X81802000Y-65603000D01*
X81562000Y-64100000D02*
X81562000Y-65633000D01*
X82042000Y-64100000D02*
X82042000Y-65551000D01*
X83083000Y-61123000D02*
X83083000Y-62020000D01*
X81402000Y-60480000D02*
X81402000Y-62020000D01*
X82683000Y-60836000D02*
X82683000Y-62020000D01*
X82283000Y-64100000D02*
X82283000Y-65474000D01*
X82123000Y-64100000D02*
X82123000Y-65528000D01*
X82563000Y-64100000D02*
X82563000Y-65350000D01*
X81482000Y-64100000D02*
X81482000Y-65638000D01*
X82843000Y-60938000D02*
X82843000Y-62020000D01*
X78557225Y-61585000D02*
X79057225Y-61585000D01*
X83723000Y-61962000D02*
X83723000Y-64158000D01*
X81962000Y-60549000D02*
X81962000Y-62020000D01*
X82723000Y-64100000D02*
X82723000Y-65260000D01*
X83203000Y-64100000D02*
X83203000Y-64886000D01*
X82363000Y-60678000D02*
X82363000Y-62020000D01*
X83803000Y-62145000D02*
X83803000Y-63975000D01*
X82243000Y-60632000D02*
X82243000Y-62020000D01*
X82283000Y-60646000D02*
X82283000Y-62020000D01*
X82643000Y-60813000D02*
X82643000Y-62020000D01*
X82883000Y-60965000D02*
X82883000Y-62020000D01*
X83123000Y-61159000D02*
X83123000Y-62020000D01*
X83483000Y-61560000D02*
X83483000Y-64560000D01*
X81642000Y-60495000D02*
X81642000Y-62020000D01*
X83163000Y-64100000D02*
X83163000Y-64924000D01*
X82803000Y-60911000D02*
X82803000Y-62020000D01*
X82603000Y-60792000D02*
X82603000Y-62020000D01*
X81362000Y-64100000D02*
X81362000Y-65640000D01*
X83323000Y-61361000D02*
X83323000Y-62020000D01*
X82083000Y-60580000D02*
X82083000Y-62020000D01*
X81442000Y-60481000D02*
X81442000Y-62020000D01*
X83363000Y-61407000D02*
X83363000Y-62020000D01*
X83083000Y-64100000D02*
X83083000Y-64997000D01*
X83003000Y-64100000D02*
X83003000Y-65064000D01*
X78807225Y-61335000D02*
X78807225Y-61835000D01*
X83123000Y-64100000D02*
X83123000Y-64961000D01*
X83363000Y-64100000D02*
X83363000Y-64713000D01*
X82563000Y-60770000D02*
X82563000Y-62020000D01*
X82323000Y-64100000D02*
X82323000Y-65458000D01*
X82523000Y-60750000D02*
X82523000Y-62020000D01*
X81762000Y-64100000D02*
X81762000Y-65610000D01*
X83563000Y-61677000D02*
X83563000Y-64443000D01*
X82323000Y-60662000D02*
X82323000Y-62020000D01*
X82002000Y-60559000D02*
X82002000Y-62020000D01*
X81762000Y-60510000D02*
X81762000Y-62020000D01*
X81482000Y-60482000D02*
X81482000Y-62020000D01*
X83043000Y-61089000D02*
X83043000Y-62020000D01*
X81842000Y-60524000D02*
X81842000Y-62020000D01*
X81962000Y-64100000D02*
X81962000Y-65571000D01*
X83603000Y-61741000D02*
X83603000Y-64379000D01*
X83443000Y-61506000D02*
X83443000Y-64614000D01*
X82523000Y-64100000D02*
X82523000Y-65370000D01*
X81882000Y-64100000D02*
X81882000Y-65588000D01*
X83883000Y-62383000D02*
X83883000Y-63737000D01*
X83243000Y-61275000D02*
X83243000Y-62020000D01*
X82683000Y-64100000D02*
X82683000Y-65284000D01*
X83963000Y-62776000D02*
X83963000Y-63344000D01*
X82243000Y-64100000D02*
X82243000Y-65488000D01*
X82203000Y-64100000D02*
X82203000Y-65502000D01*
X82643000Y-64100000D02*
X82643000Y-65307000D01*
X83163000Y-61196000D02*
X83163000Y-62020000D01*
X82163000Y-64100000D02*
X82163000Y-65515000D01*
X82123000Y-60592000D02*
X82123000Y-62020000D01*
X82763000Y-60885000D02*
X82763000Y-62020000D01*
X82963000Y-64100000D02*
X82963000Y-65095000D01*
X83683000Y-61882000D02*
X83683000Y-64238000D01*
X81602000Y-60491000D02*
X81602000Y-62020000D01*
X82363000Y-64100000D02*
X82363000Y-65442000D01*
X82443000Y-64100000D02*
X82443000Y-65408000D01*
X83203000Y-61234000D02*
X83203000Y-62020000D01*
X81842000Y-64100000D02*
X81842000Y-65596000D01*
X82002000Y-64100000D02*
X82002000Y-65561000D01*
X83923000Y-62542000D02*
X83923000Y-63578000D01*
X83043000Y-64100000D02*
X83043000Y-65031000D01*
X83982000Y-63060000D02*
G75*
G03*
X83982000Y-63060000I-2620000J0D01*
G01*
G04 #@! TO.C,C8*
X45972000Y-28960000D02*
X45972000Y-36200000D01*
X48712000Y-36200000D02*
X45972000Y-36200000D01*
X48712000Y-28960000D02*
X48712000Y-36200000D01*
X48712000Y-28960000D02*
X45972000Y-28960000D01*
D10*
G04 #@! TO.C,U2*
X56745000Y-51459000D02*
X60095000Y-51459000D01*
X56745000Y-48109000D02*
X56745000Y-48334000D01*
X60095000Y-48109000D02*
X60095000Y-48409000D01*
X56745000Y-48109000D02*
X60095000Y-48109000D01*
X56745000Y-48334000D02*
X55520000Y-48334000D01*
X60095000Y-51459000D02*
X60095000Y-51159000D01*
X56745000Y-51459000D02*
X56745000Y-51159000D01*
D11*
G04 #@! TO.C,R15*
X65222000Y-25690000D02*
X65222000Y-19150000D01*
X62482000Y-25690000D02*
X65222000Y-25690000D01*
X62482000Y-19150000D02*
X62482000Y-25690000D01*
X65222000Y-19150000D02*
X62482000Y-19150000D01*
X63852000Y-26460000D02*
X63852000Y-25690000D01*
X63852000Y-18380000D02*
X63852000Y-19150000D01*
G04 #@! TO.C,C14*
X63952000Y-36240000D02*
X63952000Y-29000000D01*
X61212000Y-29000000D02*
X63952000Y-29000000D01*
X61212000Y-36240000D02*
X61212000Y-29000000D01*
X61212000Y-36240000D02*
X63952000Y-36240000D01*
G04 #@! TO.C,U4*
X66262000Y-30110000D02*
X76662000Y-30110000D01*
X76662000Y-19830000D02*
X66262000Y-19830000D01*
X76602000Y-22320000D02*
X66322000Y-22320000D01*
X76602000Y-23970000D02*
X76602000Y-22320000D01*
X66322000Y-27620000D02*
X76602000Y-27620000D01*
X66322000Y-22320000D02*
X66322000Y-27620000D01*
X76662000Y-30110000D02*
X76662000Y-19830000D01*
X66262000Y-19830000D02*
X66262000Y-30110000D01*
X76602000Y-27620000D02*
X76602000Y-25970000D01*
X76602000Y-23970000D02*
G75*
G03*
X76602000Y-25970000I0J-1000000D01*
G01*
G04 #@! TO.C,C1*
X42072000Y-57750000D02*
X42072000Y-59289000D01*
X42873000Y-54282000D02*
X42873000Y-55670000D01*
X44513000Y-56033000D02*
X44513000Y-57387000D01*
X44113000Y-55210000D02*
X44113000Y-58210000D01*
X43873000Y-57750000D02*
X43873000Y-58495000D01*
X43393000Y-57750000D02*
X43393000Y-58885000D01*
X43313000Y-54486000D02*
X43313000Y-55670000D01*
X42232000Y-57750000D02*
X42232000Y-59279000D01*
X44313000Y-55532000D02*
X44313000Y-57888000D01*
X42953000Y-57750000D02*
X42953000Y-59108000D01*
X43513000Y-57750000D02*
X43513000Y-58805000D01*
X42552000Y-54190000D02*
X42552000Y-55670000D01*
X42753000Y-54242000D02*
X42753000Y-55670000D01*
X42072000Y-54131000D02*
X42072000Y-55670000D01*
X42312000Y-54149000D02*
X42312000Y-55670000D01*
X43593000Y-54675000D02*
X43593000Y-55670000D01*
X42913000Y-54296000D02*
X42913000Y-55670000D01*
X42512000Y-57750000D02*
X42512000Y-59238000D01*
X43793000Y-57750000D02*
X43793000Y-58574000D01*
X42472000Y-57750000D02*
X42472000Y-59246000D01*
X44593000Y-56426000D02*
X44593000Y-56994000D01*
X43953000Y-57750000D02*
X43953000Y-58409000D01*
X43353000Y-54510000D02*
X43353000Y-55670000D01*
X42873000Y-57750000D02*
X42873000Y-59138000D01*
X39187225Y-55235000D02*
X39687225Y-55235000D01*
X42232000Y-54141000D02*
X42232000Y-55670000D01*
X42032000Y-54130000D02*
X42032000Y-55670000D01*
X42472000Y-54174000D02*
X42472000Y-55670000D01*
X44073000Y-55156000D02*
X44073000Y-58264000D01*
X42592000Y-57750000D02*
X42592000Y-59221000D01*
X43753000Y-54809000D02*
X43753000Y-55670000D01*
X43873000Y-54925000D02*
X43873000Y-55670000D01*
X43313000Y-57750000D02*
X43313000Y-58934000D01*
X43113000Y-57750000D02*
X43113000Y-59039000D01*
X43993000Y-55057000D02*
X43993000Y-55670000D01*
X43153000Y-57750000D02*
X43153000Y-59020000D01*
X43753000Y-57750000D02*
X43753000Y-58611000D01*
X42793000Y-57750000D02*
X42793000Y-59165000D01*
X42592000Y-54199000D02*
X42592000Y-55670000D01*
X43433000Y-57750000D02*
X43433000Y-58859000D01*
X43033000Y-54345000D02*
X43033000Y-55670000D01*
X43433000Y-54561000D02*
X43433000Y-55670000D01*
X43793000Y-54846000D02*
X43793000Y-55670000D01*
X43393000Y-54535000D02*
X43393000Y-55670000D01*
X42672000Y-57750000D02*
X42672000Y-59201000D01*
X43633000Y-54706000D02*
X43633000Y-55670000D01*
X43473000Y-54588000D02*
X43473000Y-55670000D01*
X43913000Y-57750000D02*
X43913000Y-58453000D01*
X42112000Y-57750000D02*
X42112000Y-59288000D01*
X42713000Y-54230000D02*
X42713000Y-55670000D01*
X43713000Y-54773000D02*
X43713000Y-55670000D01*
X42392000Y-54160000D02*
X42392000Y-55670000D01*
X42833000Y-54268000D02*
X42833000Y-55670000D01*
X39437225Y-54985000D02*
X39437225Y-55485000D01*
X44153000Y-55267000D02*
X44153000Y-58153000D01*
X43033000Y-57750000D02*
X43033000Y-59075000D01*
X42032000Y-57750000D02*
X42032000Y-59290000D01*
X42993000Y-57750000D02*
X42993000Y-59092000D01*
X41992000Y-54130000D02*
X41992000Y-55670000D01*
X42352000Y-57750000D02*
X42352000Y-59266000D01*
X42953000Y-54312000D02*
X42953000Y-55670000D01*
X42312000Y-57750000D02*
X42312000Y-59271000D01*
X42272000Y-54145000D02*
X42272000Y-55670000D01*
X42632000Y-54209000D02*
X42632000Y-55670000D01*
X44433000Y-55795000D02*
X44433000Y-57625000D01*
X41992000Y-57750000D02*
X41992000Y-59290000D01*
X42672000Y-54219000D02*
X42672000Y-55670000D01*
X43673000Y-54739000D02*
X43673000Y-55670000D01*
X44353000Y-55612000D02*
X44353000Y-57808000D01*
X43073000Y-54362000D02*
X43073000Y-55670000D01*
X42112000Y-54132000D02*
X42112000Y-55670000D01*
X42833000Y-57750000D02*
X42833000Y-59152000D01*
X42272000Y-57750000D02*
X42272000Y-59275000D01*
X42432000Y-54167000D02*
X42432000Y-55670000D01*
X43113000Y-54381000D02*
X43113000Y-55670000D01*
X43233000Y-54442000D02*
X43233000Y-55670000D01*
X42993000Y-54328000D02*
X42993000Y-55670000D01*
X43833000Y-54884000D02*
X43833000Y-55670000D01*
X43513000Y-54615000D02*
X43513000Y-55670000D01*
X43593000Y-57750000D02*
X43593000Y-58745000D01*
X44193000Y-55327000D02*
X44193000Y-58093000D01*
X42632000Y-57750000D02*
X42632000Y-59211000D01*
X44473000Y-55905000D02*
X44473000Y-57515000D01*
X44033000Y-55105000D02*
X44033000Y-58315000D01*
X42352000Y-54154000D02*
X42352000Y-55670000D01*
X42192000Y-57750000D02*
X42192000Y-59283000D01*
X43633000Y-57750000D02*
X43633000Y-58714000D01*
X43953000Y-55011000D02*
X43953000Y-55670000D01*
X43193000Y-57750000D02*
X43193000Y-59000000D01*
X43473000Y-57750000D02*
X43473000Y-58832000D01*
X44233000Y-55391000D02*
X44233000Y-58029000D01*
X44393000Y-55699000D02*
X44393000Y-57721000D01*
X43273000Y-57750000D02*
X43273000Y-58957000D01*
X43993000Y-57750000D02*
X43993000Y-58363000D01*
X42753000Y-57750000D02*
X42753000Y-59178000D01*
X42152000Y-57750000D02*
X42152000Y-59286000D01*
X43713000Y-57750000D02*
X43713000Y-58647000D01*
X42793000Y-54255000D02*
X42793000Y-55670000D01*
X44273000Y-55459000D02*
X44273000Y-57961000D01*
X42432000Y-57750000D02*
X42432000Y-59253000D01*
X42552000Y-57750000D02*
X42552000Y-59230000D01*
X43673000Y-57750000D02*
X43673000Y-58681000D01*
X42152000Y-54134000D02*
X42152000Y-55670000D01*
X43833000Y-57750000D02*
X43833000Y-58536000D01*
X42512000Y-54182000D02*
X42512000Y-55670000D01*
X42392000Y-57750000D02*
X42392000Y-59260000D01*
X43193000Y-54420000D02*
X43193000Y-55670000D01*
X43553000Y-54645000D02*
X43553000Y-55670000D01*
X43233000Y-57750000D02*
X43233000Y-58978000D01*
X43553000Y-57750000D02*
X43553000Y-58775000D01*
X43913000Y-54967000D02*
X43913000Y-55670000D01*
X43073000Y-57750000D02*
X43073000Y-59058000D01*
X43273000Y-54463000D02*
X43273000Y-55670000D01*
X43153000Y-54400000D02*
X43153000Y-55670000D01*
X42913000Y-57750000D02*
X42913000Y-59124000D01*
X42713000Y-57750000D02*
X42713000Y-59190000D01*
X44553000Y-56192000D02*
X44553000Y-57228000D01*
X42192000Y-54137000D02*
X42192000Y-55670000D01*
X43353000Y-57750000D02*
X43353000Y-58910000D01*
X44612000Y-56710000D02*
G75*
G03*
X44612000Y-56710000I-2620000J0D01*
G01*
G04 #@! TO.C,C2*
X43233000Y-48092000D02*
X43233000Y-49320000D01*
X42592000Y-51400000D02*
X42592000Y-52871000D01*
X43433000Y-51400000D02*
X43433000Y-52509000D01*
X42913000Y-47946000D02*
X42913000Y-49320000D01*
X42873000Y-51400000D02*
X42873000Y-52788000D01*
X39437225Y-48635000D02*
X39437225Y-49135000D01*
X43273000Y-51400000D02*
X43273000Y-52607000D01*
X42032000Y-51400000D02*
X42032000Y-52940000D01*
X42152000Y-47784000D02*
X42152000Y-49320000D01*
X43633000Y-48356000D02*
X43633000Y-49320000D01*
X42032000Y-47780000D02*
X42032000Y-49320000D01*
X43073000Y-51400000D02*
X43073000Y-52708000D01*
X43913000Y-48617000D02*
X43913000Y-49320000D01*
X42152000Y-51400000D02*
X42152000Y-52936000D01*
X43113000Y-48031000D02*
X43113000Y-49320000D01*
X42512000Y-51400000D02*
X42512000Y-52888000D01*
X42392000Y-47810000D02*
X42392000Y-49320000D01*
X43753000Y-48459000D02*
X43753000Y-49320000D01*
X43393000Y-48185000D02*
X43393000Y-49320000D01*
X43873000Y-51400000D02*
X43873000Y-52145000D01*
X43353000Y-51400000D02*
X43353000Y-52560000D01*
X42232000Y-47791000D02*
X42232000Y-49320000D01*
X42793000Y-51400000D02*
X42793000Y-52815000D01*
X42552000Y-47840000D02*
X42552000Y-49320000D01*
X43513000Y-48265000D02*
X43513000Y-49320000D01*
X41992000Y-51400000D02*
X41992000Y-52940000D01*
X43073000Y-48012000D02*
X43073000Y-49320000D01*
X44193000Y-48977000D02*
X44193000Y-51743000D01*
X43793000Y-48496000D02*
X43793000Y-49320000D01*
X44153000Y-48917000D02*
X44153000Y-51803000D01*
X43393000Y-51400000D02*
X43393000Y-52535000D01*
X43713000Y-48423000D02*
X43713000Y-49320000D01*
X42793000Y-47905000D02*
X42793000Y-49320000D01*
X44233000Y-49041000D02*
X44233000Y-51679000D01*
X44273000Y-49109000D02*
X44273000Y-51611000D01*
X42672000Y-51400000D02*
X42672000Y-52851000D01*
X42112000Y-47782000D02*
X42112000Y-49320000D01*
X42272000Y-47795000D02*
X42272000Y-49320000D01*
X42352000Y-47804000D02*
X42352000Y-49320000D01*
X42873000Y-47932000D02*
X42873000Y-49320000D01*
X43473000Y-48238000D02*
X43473000Y-49320000D01*
X43713000Y-51400000D02*
X43713000Y-52297000D01*
X42432000Y-47817000D02*
X42432000Y-49320000D01*
X43153000Y-48050000D02*
X43153000Y-49320000D01*
X43353000Y-48160000D02*
X43353000Y-49320000D01*
X44513000Y-49683000D02*
X44513000Y-51037000D01*
X44113000Y-48860000D02*
X44113000Y-51860000D01*
X43993000Y-48707000D02*
X43993000Y-49320000D01*
X42472000Y-51400000D02*
X42472000Y-52896000D01*
X43553000Y-48295000D02*
X43553000Y-49320000D01*
X44593000Y-50076000D02*
X44593000Y-50644000D01*
X42993000Y-51400000D02*
X42993000Y-52742000D01*
X42632000Y-47859000D02*
X42632000Y-49320000D01*
X43313000Y-48136000D02*
X43313000Y-49320000D01*
X43553000Y-51400000D02*
X43553000Y-52425000D01*
X43153000Y-51400000D02*
X43153000Y-52670000D01*
X43953000Y-48661000D02*
X43953000Y-49320000D01*
X41992000Y-47780000D02*
X41992000Y-49320000D01*
X43233000Y-51400000D02*
X43233000Y-52628000D01*
X42713000Y-51400000D02*
X42713000Y-52840000D01*
X43833000Y-48534000D02*
X43833000Y-49320000D01*
X44433000Y-49445000D02*
X44433000Y-51275000D01*
X42432000Y-51400000D02*
X42432000Y-52903000D01*
X43873000Y-48575000D02*
X43873000Y-49320000D01*
X43273000Y-48113000D02*
X43273000Y-49320000D01*
X42913000Y-51400000D02*
X42913000Y-52774000D01*
X43753000Y-51400000D02*
X43753000Y-52261000D01*
X43433000Y-48211000D02*
X43433000Y-49320000D01*
X44313000Y-49182000D02*
X44313000Y-51538000D01*
X43633000Y-51400000D02*
X43633000Y-52364000D01*
X43953000Y-51400000D02*
X43953000Y-52059000D01*
X42632000Y-51400000D02*
X42632000Y-52861000D01*
X44473000Y-49555000D02*
X44473000Y-51165000D01*
X42472000Y-47824000D02*
X42472000Y-49320000D01*
X42352000Y-51400000D02*
X42352000Y-52916000D01*
X42552000Y-51400000D02*
X42552000Y-52880000D01*
X43193000Y-48070000D02*
X43193000Y-49320000D01*
X42592000Y-47849000D02*
X42592000Y-49320000D01*
X42833000Y-47918000D02*
X42833000Y-49320000D01*
X43113000Y-51400000D02*
X43113000Y-52689000D01*
X43033000Y-51400000D02*
X43033000Y-52725000D01*
X43473000Y-51400000D02*
X43473000Y-52482000D01*
X44073000Y-48806000D02*
X44073000Y-51914000D01*
X42953000Y-47962000D02*
X42953000Y-49320000D01*
X43793000Y-51400000D02*
X43793000Y-52224000D01*
X43593000Y-48325000D02*
X43593000Y-49320000D01*
X42312000Y-51400000D02*
X42312000Y-52921000D01*
X42312000Y-47799000D02*
X42312000Y-49320000D01*
X44393000Y-49349000D02*
X44393000Y-51371000D01*
X43913000Y-51400000D02*
X43913000Y-52103000D01*
X43513000Y-51400000D02*
X43513000Y-52455000D01*
X42753000Y-47892000D02*
X42753000Y-49320000D01*
X44033000Y-48755000D02*
X44033000Y-51965000D01*
X42192000Y-51400000D02*
X42192000Y-52933000D01*
X43673000Y-51400000D02*
X43673000Y-52331000D01*
X44353000Y-49262000D02*
X44353000Y-51458000D01*
X43593000Y-51400000D02*
X43593000Y-52395000D01*
X43993000Y-51400000D02*
X43993000Y-52013000D01*
X44553000Y-49842000D02*
X44553000Y-50878000D01*
X39187225Y-48885000D02*
X39687225Y-48885000D01*
X42192000Y-47787000D02*
X42192000Y-49320000D01*
X43833000Y-51400000D02*
X43833000Y-52186000D01*
X43033000Y-47995000D02*
X43033000Y-49320000D01*
X42833000Y-51400000D02*
X42833000Y-52802000D01*
X42112000Y-51400000D02*
X42112000Y-52938000D01*
X42993000Y-47978000D02*
X42993000Y-49320000D01*
X43313000Y-51400000D02*
X43313000Y-52584000D01*
X42953000Y-51400000D02*
X42953000Y-52758000D01*
X42672000Y-47869000D02*
X42672000Y-49320000D01*
X42272000Y-51400000D02*
X42272000Y-52925000D01*
X42072000Y-47781000D02*
X42072000Y-49320000D01*
X43673000Y-48389000D02*
X43673000Y-49320000D01*
X42392000Y-51400000D02*
X42392000Y-52910000D01*
X43193000Y-51400000D02*
X43193000Y-52650000D01*
X42232000Y-51400000D02*
X42232000Y-52929000D01*
X42512000Y-47832000D02*
X42512000Y-49320000D01*
X42753000Y-51400000D02*
X42753000Y-52828000D01*
X42072000Y-51400000D02*
X42072000Y-52939000D01*
X42713000Y-47880000D02*
X42713000Y-49320000D01*
X44612000Y-50360000D02*
G75*
G03*
X44612000Y-50360000I-2620000J0D01*
G01*
G04 #@! TO.C,R11*
X74742000Y-38830000D02*
X68202000Y-38830000D01*
X74742000Y-41570000D02*
X74742000Y-38830000D01*
X68202000Y-41570000D02*
X74742000Y-41570000D01*
X68202000Y-38830000D02*
X68202000Y-41570000D01*
X67432000Y-40200000D02*
X68202000Y-40200000D01*
X75512000Y-40200000D02*
X74742000Y-40200000D01*
G04 #@! TO.C,C4*
X60860000Y-64620000D02*
X60860000Y-62380000D01*
X60860000Y-64620000D02*
X56020000Y-64620000D01*
X60860000Y-62380000D02*
X56020000Y-62380000D01*
X56020000Y-64620000D02*
X56020000Y-62380000D01*
G04 #@! TO.C,R12*
X56332000Y-27845000D02*
X53592000Y-27845000D01*
X54962000Y-35155000D02*
X54962000Y-34385000D01*
X53592000Y-27845000D02*
X53592000Y-34385000D01*
X56332000Y-34385000D02*
X56332000Y-27845000D01*
X53592000Y-34385000D02*
X56332000Y-34385000D01*
X54962000Y-27075000D02*
X54962000Y-27845000D01*
G04 #@! TO.C,R16*
X74742000Y-31210000D02*
X68202000Y-31210000D01*
X75512000Y-32580000D02*
X74742000Y-32580000D01*
X74742000Y-33950000D02*
X74742000Y-31210000D01*
X68202000Y-31210000D02*
X68202000Y-33950000D01*
X68202000Y-33950000D02*
X74742000Y-33950000D01*
X67432000Y-32580000D02*
X68202000Y-32580000D01*
G04 #@! TO.C,J6*
X85992000Y-46804000D02*
X84992000Y-46804000D01*
X91012000Y-42884000D02*
X84992000Y-42884000D01*
X91012000Y-48184000D02*
X91012000Y-42884000D01*
X84992000Y-48184000D02*
X91012000Y-48184000D01*
X84992000Y-44514000D02*
X85992000Y-44514000D01*
X85992000Y-44264000D02*
X85992000Y-46804000D01*
X86522000Y-46554000D02*
X85992000Y-46804000D01*
X91012000Y-43464000D02*
X90412000Y-43464000D01*
X90412000Y-43464000D02*
X90412000Y-45064000D01*
X91012000Y-46004000D02*
X90412000Y-46004000D01*
X85992000Y-44264000D02*
X86522000Y-44514000D01*
X84992000Y-44264000D02*
X85992000Y-44264000D01*
X90412000Y-45064000D02*
X91012000Y-45064000D01*
X90412000Y-47604000D02*
X91012000Y-47604000D01*
X84992000Y-46554000D02*
X85992000Y-46554000D01*
X86522000Y-44514000D02*
X86522000Y-46554000D01*
X84992000Y-42884000D02*
X84992000Y-48184000D01*
X90412000Y-46004000D02*
X90412000Y-47604000D01*
X89982000Y-42594000D02*
X85982000Y-42594000D01*
G04 #@! TO.C,R13*
X49782000Y-34385000D02*
X52522000Y-34385000D01*
X52522000Y-27845000D02*
X49782000Y-27845000D01*
X51152000Y-27075000D02*
X51152000Y-27845000D01*
X52522000Y-34385000D02*
X52522000Y-27845000D01*
X51152000Y-35155000D02*
X51152000Y-34385000D01*
X49782000Y-27845000D02*
X49782000Y-34385000D01*
G04 #@! TO.C,R5*
X62482000Y-58710000D02*
X65222000Y-58710000D01*
X62482000Y-52170000D02*
X62482000Y-58710000D01*
X65222000Y-58710000D02*
X65222000Y-52170000D01*
X63852000Y-51400000D02*
X63852000Y-52170000D01*
X65222000Y-52170000D02*
X62482000Y-52170000D01*
X63852000Y-59480000D02*
X63852000Y-58710000D01*
G04 #@! TO.C,C9*
X77972000Y-54310000D02*
X80212000Y-54310000D01*
X77972000Y-59150000D02*
X80212000Y-59150000D01*
X77972000Y-59150000D02*
X77972000Y-54310000D01*
X80212000Y-59150000D02*
X80212000Y-54310000D01*
D10*
G04 #@! TO.C,U1*
X56745000Y-58269000D02*
X56745000Y-58494000D01*
X56745000Y-61619000D02*
X60095000Y-61619000D01*
X60095000Y-61619000D02*
X60095000Y-61319000D01*
X56745000Y-58494000D02*
X55520000Y-58494000D01*
X60095000Y-58269000D02*
X60095000Y-58569000D01*
X56745000Y-61619000D02*
X56745000Y-61319000D01*
X56745000Y-58269000D02*
X60095000Y-58269000D01*
D11*
G04 #@! TO.C,R9*
X74742000Y-49190000D02*
X74742000Y-46450000D01*
X68202000Y-46450000D02*
X68202000Y-49190000D01*
X74742000Y-46450000D02*
X68202000Y-46450000D01*
X67432000Y-47820000D02*
X68202000Y-47820000D01*
X68202000Y-49190000D02*
X74742000Y-49190000D01*
X75512000Y-47820000D02*
X74742000Y-47820000D01*
G04 #@! TO.C,C7*
X57402000Y-36200000D02*
X60142000Y-36200000D01*
X57402000Y-28960000D02*
X60142000Y-28960000D01*
X60142000Y-36200000D02*
X60142000Y-28960000D01*
X57402000Y-36200000D02*
X57402000Y-28960000D01*
G04 #@! TO.C,PS1*
X36164000Y-15790000D02*
X36164000Y-35010000D01*
X43384000Y-35310000D02*
X43384000Y-34060000D01*
X36164000Y-35010000D02*
X43084000Y-35010000D01*
X43084000Y-15790000D02*
X36164000Y-15790000D01*
X42134000Y-35310000D02*
X43384000Y-35310000D01*
X43084000Y-35010000D02*
X43084000Y-15790000D01*
G04 #@! TO.C,C10*
X88713000Y-31468000D02*
X88713000Y-32810000D01*
X87752000Y-31270000D02*
X87752000Y-32810000D01*
X88192000Y-34890000D02*
X88192000Y-36386000D01*
X89353000Y-34890000D02*
X89353000Y-35854000D01*
X88633000Y-31436000D02*
X88633000Y-32810000D01*
X88753000Y-34890000D02*
X88753000Y-36215000D01*
X84907225Y-32375000D02*
X85407225Y-32375000D01*
X88152000Y-31307000D02*
X88152000Y-32810000D01*
X89113000Y-31675000D02*
X89113000Y-32810000D01*
X90113000Y-32839000D02*
X90113000Y-34861000D01*
X89313000Y-31815000D02*
X89313000Y-32810000D01*
X88593000Y-31422000D02*
X88593000Y-32810000D01*
X89433000Y-31913000D02*
X89433000Y-32810000D01*
X90153000Y-32935000D02*
X90153000Y-34765000D01*
X89073000Y-31650000D02*
X89073000Y-32810000D01*
X88833000Y-31521000D02*
X88833000Y-32810000D01*
X88072000Y-34890000D02*
X88072000Y-36406000D01*
X87992000Y-34890000D02*
X87992000Y-36415000D01*
X87912000Y-31277000D02*
X87912000Y-32810000D01*
X89993000Y-32599000D02*
X89993000Y-35101000D01*
X89753000Y-32245000D02*
X89753000Y-35455000D01*
X88953000Y-34890000D02*
X88953000Y-36118000D01*
X89473000Y-31949000D02*
X89473000Y-32810000D01*
X88112000Y-31300000D02*
X88112000Y-32810000D01*
X89793000Y-32296000D02*
X89793000Y-35404000D01*
X87952000Y-31281000D02*
X87952000Y-32810000D01*
X87832000Y-31272000D02*
X87832000Y-32810000D01*
X87912000Y-34890000D02*
X87912000Y-36423000D01*
X88392000Y-34890000D02*
X88392000Y-36341000D01*
X89033000Y-31626000D02*
X89033000Y-32810000D01*
X88352000Y-34890000D02*
X88352000Y-36351000D01*
X89513000Y-34890000D02*
X89513000Y-35714000D01*
X89393000Y-34890000D02*
X89393000Y-35821000D01*
X88312000Y-31339000D02*
X88312000Y-32810000D01*
X88032000Y-34890000D02*
X88032000Y-36411000D01*
X88513000Y-31395000D02*
X88513000Y-32810000D01*
X89393000Y-31879000D02*
X89393000Y-32810000D01*
X88352000Y-31349000D02*
X88352000Y-32810000D01*
X88312000Y-34890000D02*
X88312000Y-36361000D01*
X88232000Y-34890000D02*
X88232000Y-36378000D01*
X87832000Y-34890000D02*
X87832000Y-36428000D01*
X89273000Y-31785000D02*
X89273000Y-32810000D01*
X90273000Y-33332000D02*
X90273000Y-34368000D01*
X89193000Y-31728000D02*
X89193000Y-32810000D01*
X88553000Y-31408000D02*
X88553000Y-32810000D01*
X88473000Y-34890000D02*
X88473000Y-36318000D01*
X90193000Y-33045000D02*
X90193000Y-34655000D01*
X89153000Y-31701000D02*
X89153000Y-32810000D01*
X88873000Y-34890000D02*
X88873000Y-36160000D01*
X88913000Y-34890000D02*
X88913000Y-36140000D01*
X88032000Y-31289000D02*
X88032000Y-32810000D01*
X89713000Y-32197000D02*
X89713000Y-32810000D01*
X87992000Y-31285000D02*
X87992000Y-32810000D01*
X88753000Y-31485000D02*
X88753000Y-32810000D01*
X88232000Y-31322000D02*
X88232000Y-32810000D01*
X89953000Y-32531000D02*
X89953000Y-35169000D01*
X88993000Y-34890000D02*
X88993000Y-36097000D01*
X88793000Y-31502000D02*
X88793000Y-32810000D01*
X87872000Y-31274000D02*
X87872000Y-32810000D01*
X88553000Y-34890000D02*
X88553000Y-36292000D01*
X89073000Y-34890000D02*
X89073000Y-36050000D01*
X89673000Y-34890000D02*
X89673000Y-35549000D01*
X89353000Y-31846000D02*
X89353000Y-32810000D01*
X89633000Y-32107000D02*
X89633000Y-32810000D01*
X89513000Y-31986000D02*
X89513000Y-32810000D01*
X87952000Y-34890000D02*
X87952000Y-36419000D01*
X88192000Y-31314000D02*
X88192000Y-32810000D01*
X89233000Y-31755000D02*
X89233000Y-32810000D01*
X88833000Y-34890000D02*
X88833000Y-36179000D01*
X89593000Y-32065000D02*
X89593000Y-32810000D01*
X89553000Y-34890000D02*
X89553000Y-35676000D01*
X89153000Y-34890000D02*
X89153000Y-35999000D01*
X89873000Y-32407000D02*
X89873000Y-35293000D01*
X88112000Y-34890000D02*
X88112000Y-36400000D01*
X88953000Y-31582000D02*
X88953000Y-32810000D01*
X87792000Y-34890000D02*
X87792000Y-36429000D01*
X88793000Y-34890000D02*
X88793000Y-36198000D01*
X88433000Y-34890000D02*
X88433000Y-36330000D01*
X87712000Y-31270000D02*
X87712000Y-32810000D01*
X88513000Y-34890000D02*
X88513000Y-36305000D01*
X89833000Y-32350000D02*
X89833000Y-35350000D01*
X89233000Y-34890000D02*
X89233000Y-35945000D01*
X88633000Y-34890000D02*
X88633000Y-36264000D01*
X89033000Y-34890000D02*
X89033000Y-36074000D01*
X89273000Y-34890000D02*
X89273000Y-35915000D01*
X88272000Y-34890000D02*
X88272000Y-36370000D01*
X87872000Y-34890000D02*
X87872000Y-36426000D01*
X88433000Y-31370000D02*
X88433000Y-32810000D01*
X88392000Y-31359000D02*
X88392000Y-32810000D01*
X89193000Y-34890000D02*
X89193000Y-35972000D01*
X88993000Y-31603000D02*
X88993000Y-32810000D01*
X88473000Y-31382000D02*
X88473000Y-32810000D01*
X90233000Y-33173000D02*
X90233000Y-34527000D01*
X88152000Y-34890000D02*
X88152000Y-36393000D01*
X88593000Y-34890000D02*
X88593000Y-36278000D01*
X87752000Y-34890000D02*
X87752000Y-36430000D01*
X88873000Y-31540000D02*
X88873000Y-32810000D01*
X89673000Y-32151000D02*
X89673000Y-32810000D01*
X90033000Y-32672000D02*
X90033000Y-35028000D01*
X89713000Y-34890000D02*
X89713000Y-35503000D01*
X89553000Y-32024000D02*
X89553000Y-32810000D01*
X89913000Y-32467000D02*
X89913000Y-35233000D01*
X90073000Y-32752000D02*
X90073000Y-34948000D01*
X90313000Y-33566000D02*
X90313000Y-34134000D01*
X88673000Y-31452000D02*
X88673000Y-32810000D01*
X89593000Y-34890000D02*
X89593000Y-35635000D01*
X89473000Y-34890000D02*
X89473000Y-35751000D01*
X87712000Y-34890000D02*
X87712000Y-36430000D01*
X88072000Y-31294000D02*
X88072000Y-32810000D01*
X89433000Y-34890000D02*
X89433000Y-35787000D01*
X89113000Y-34890000D02*
X89113000Y-36025000D01*
X85157225Y-32125000D02*
X85157225Y-32625000D01*
X88272000Y-31330000D02*
X88272000Y-32810000D01*
X87792000Y-31271000D02*
X87792000Y-32810000D01*
X89313000Y-34890000D02*
X89313000Y-35885000D01*
X89633000Y-34890000D02*
X89633000Y-35593000D01*
X88713000Y-34890000D02*
X88713000Y-36232000D01*
X88673000Y-34890000D02*
X88673000Y-36248000D01*
X88913000Y-31560000D02*
X88913000Y-32810000D01*
X90332000Y-33850000D02*
G75*
G03*
X90332000Y-33850000I-2620000J0D01*
G01*
G04 #@! TO.C,J3*
X60392000Y-16812000D02*
X45272000Y-16812000D01*
X56444000Y-21966000D02*
X56551000Y-21859000D01*
X46444000Y-21966000D02*
X46824000Y-21586000D01*
X60632000Y-15012000D02*
X60232000Y-15012000D01*
X60392000Y-15712000D02*
X45272000Y-15712000D01*
X51444000Y-21966000D02*
X51824000Y-21586000D01*
X54090000Y-19320000D02*
X54485000Y-18924000D01*
X45272000Y-24372000D02*
X45272000Y-15252000D01*
X60392000Y-24372000D02*
X60392000Y-15252000D01*
X59380000Y-19031000D02*
X59486000Y-18924000D01*
X48839000Y-19038000D02*
X49219000Y-18658000D01*
X49090000Y-19320000D02*
X49485000Y-18924000D01*
X59114000Y-18765000D02*
X59220000Y-18658000D01*
X53839000Y-19038000D02*
X54219000Y-18658000D01*
X56178000Y-21700000D02*
X56285000Y-21593000D01*
X46178000Y-21700000D02*
X46573000Y-21304000D01*
X51178000Y-21700000D02*
X51573000Y-21304000D01*
X60392000Y-24372000D02*
X45272000Y-24372000D01*
X60632000Y-15652000D02*
X60632000Y-15012000D01*
X60392000Y-15252000D02*
X45272000Y-15252000D01*
X60012000Y-20312000D02*
G75*
G03*
X60012000Y-20312000I-2180000J0D01*
G01*
X55012000Y-20312000D02*
G75*
G03*
X55012000Y-20312000I-2180000J0D01*
G01*
X50012000Y-20312000D02*
G75*
G03*
X50012000Y-20312000I-2180000J0D01*
G01*
G04 #@! TO.C,C11*
X80212000Y-27400000D02*
X80212000Y-22560000D01*
X77972000Y-27400000D02*
X80212000Y-27400000D01*
X77972000Y-27400000D02*
X77972000Y-22560000D01*
X77972000Y-22560000D02*
X80212000Y-22560000D01*
G04 #@! TD*
%LPC*%
D12*
G04 #@! TO.C,U3*
X75282000Y-60520000D03*
X72742000Y-60520000D03*
X70202000Y-60520000D03*
X67662000Y-60520000D03*
X67662000Y-52900000D03*
X70202000Y-52900000D03*
X72742000Y-52900000D03*
D13*
X75282000Y-52900000D03*
G04 #@! TD*
D14*
G04 #@! TO.C,C13*
X59670000Y-46228000D03*
X57170000Y-46228000D03*
G04 #@! TD*
D15*
G04 #@! TO.C,R8*
X66392000Y-64330000D03*
D12*
X76552000Y-64330000D03*
G04 #@! TD*
D16*
G04 #@! TO.C,JP1*
X81632000Y-31325000D03*
D17*
X81632000Y-33865000D03*
X81632000Y-36405000D03*
G04 #@! TD*
D14*
G04 #@! TO.C,C3*
X59670000Y-53340000D03*
X57170000Y-53340000D03*
G04 #@! TD*
D15*
G04 #@! TO.C,R10*
X76552000Y-36390000D03*
D12*
X66392000Y-36390000D03*
G04 #@! TD*
D15*
G04 #@! TO.C,R6*
X66392000Y-44010000D03*
D12*
X76552000Y-44010000D03*
G04 #@! TD*
D15*
G04 #@! TO.C,R14*
X67662000Y-17340000D03*
D12*
X77822000Y-17340000D03*
G04 #@! TD*
D13*
G04 #@! TO.C,C6*
X80362000Y-47820000D03*
D15*
X82362000Y-47820000D03*
G04 #@! TD*
D18*
G04 #@! TO.C,J1*
X33020000Y-50840000D03*
D19*
X33020000Y-53340000D03*
X33020000Y-55840000D03*
G04 #@! TD*
D16*
G04 #@! TO.C,J4*
X27940000Y-27940000D03*
D17*
X27940000Y-25400000D03*
G04 #@! TD*
D16*
G04 #@! TO.C,J2*
X27940000Y-40640000D03*
D17*
X27940000Y-38100000D03*
X27940000Y-35560000D03*
X27940000Y-33020000D03*
G04 #@! TD*
D20*
G04 #@! TO.C,J7*
X87982000Y-24960000D03*
D21*
X87982000Y-27500000D03*
G04 #@! TD*
D20*
G04 #@! TO.C,J5*
X87982000Y-50360000D03*
D21*
X87982000Y-52900000D03*
G04 #@! TD*
D14*
G04 #@! TO.C,C12*
X59670000Y-56134000D03*
X57170000Y-56134000D03*
G04 #@! TD*
D13*
G04 #@! TO.C,C5*
X80362000Y-63060000D03*
D15*
X82362000Y-63060000D03*
G04 #@! TD*
G04 #@! TO.C,C8*
X47342000Y-30080000D03*
X47342000Y-35080000D03*
G04 #@! TD*
D22*
G04 #@! TO.C,U2*
X56220000Y-48784000D03*
X56220000Y-49284000D03*
X56220000Y-49784000D03*
X56220000Y-50284000D03*
X56220000Y-50784000D03*
X60620000Y-50784000D03*
X60620000Y-50284000D03*
X60620000Y-49784000D03*
X60620000Y-49284000D03*
X60620000Y-48784000D03*
G04 #@! TD*
D15*
G04 #@! TO.C,R15*
X63852000Y-27500000D03*
D12*
X63852000Y-17340000D03*
G04 #@! TD*
D15*
G04 #@! TO.C,C14*
X62582000Y-35120000D03*
X62582000Y-30120000D03*
G04 #@! TD*
D13*
G04 #@! TO.C,U4*
X75272000Y-21160000D03*
D12*
X72732000Y-21160000D03*
X70192000Y-21160000D03*
X67652000Y-21160000D03*
X67652000Y-28780000D03*
X70192000Y-28780000D03*
X72732000Y-28780000D03*
X75272000Y-28780000D03*
G04 #@! TD*
D13*
G04 #@! TO.C,C1*
X40992000Y-56710000D03*
D15*
X42992000Y-56710000D03*
G04 #@! TD*
D13*
G04 #@! TO.C,C2*
X40992000Y-50360000D03*
D15*
X42992000Y-50360000D03*
G04 #@! TD*
G04 #@! TO.C,R11*
X66392000Y-40200000D03*
D12*
X76552000Y-40200000D03*
G04 #@! TD*
D14*
G04 #@! TO.C,C4*
X59690000Y-63500000D03*
X57190000Y-63500000D03*
G04 #@! TD*
D15*
G04 #@! TO.C,R12*
X54962000Y-36195000D03*
D12*
X54962000Y-26035000D03*
G04 #@! TD*
D23*
G04 #@! TO.C,Ref\u002A\u002A*
X87982000Y-63060000D03*
G04 #@! TD*
D15*
G04 #@! TO.C,R16*
X76552000Y-32580000D03*
D12*
X66392000Y-32580000D03*
G04 #@! TD*
D20*
G04 #@! TO.C,J6*
X87982000Y-44264000D03*
D21*
X87982000Y-46804000D03*
G04 #@! TD*
D15*
G04 #@! TO.C,R13*
X51152000Y-26035000D03*
D12*
X51152000Y-36195000D03*
G04 #@! TD*
D15*
G04 #@! TO.C,R5*
X63852000Y-50360000D03*
D12*
X63852000Y-60520000D03*
G04 #@! TD*
D23*
G04 #@! TO.C,REF\u002A\u002A*
X28956000Y-62992000D03*
G04 #@! TD*
G04 #@! TO.C,REF\u002A\u002A*
X87982000Y-18610000D03*
G04 #@! TD*
G04 #@! TO.C,REF\u002A\u002A*
X28956000Y-18610000D03*
G04 #@! TD*
D14*
G04 #@! TO.C,C9*
X79092000Y-57980000D03*
X79092000Y-55480000D03*
G04 #@! TD*
D22*
G04 #@! TO.C,U1*
X56220000Y-58944000D03*
X56220000Y-59444000D03*
X56220000Y-59944000D03*
X56220000Y-60444000D03*
X56220000Y-60944000D03*
X60620000Y-60944000D03*
X60620000Y-60444000D03*
X60620000Y-59944000D03*
X60620000Y-59444000D03*
X60620000Y-58944000D03*
G04 #@! TD*
D15*
G04 #@! TO.C,R9*
X66392000Y-47820000D03*
D12*
X76552000Y-47820000D03*
G04 #@! TD*
D15*
G04 #@! TO.C,C7*
X58772000Y-35080000D03*
X58772000Y-30080000D03*
G04 #@! TD*
D24*
G04 #@! TO.C,PS1*
X37524000Y-32610000D03*
D25*
X37524000Y-30070000D03*
X37524000Y-24990000D03*
X37524000Y-22450000D03*
X37524000Y-19910000D03*
G04 #@! TD*
D13*
G04 #@! TO.C,C10*
X86712000Y-33850000D03*
D15*
X88712000Y-33850000D03*
G04 #@! TD*
D26*
G04 #@! TO.C,J3*
X57832000Y-20312000D03*
D27*
X52832000Y-20312000D03*
X47832000Y-20312000D03*
G04 #@! TD*
D14*
G04 #@! TO.C,C11*
X79092000Y-26230000D03*
X79092000Y-23730000D03*
G04 #@! TD*
M02*
