M48
; DRILL file {KiCad (6.0.0)} date Sun Feb 13 20:02:53 2022
; FORMAT={-:-/ absolute / metric / decimal}
; #@! TF.CreationDate,2022-02-13T20:02:53+01:00
; #@! TF.GenerationSoftware,Kicad,Pcbnew,(6.0.0)
; #@! TF.FileFunction,Plated,1,2,PTH
FMAT,2
METRIC
; #@! TA.AperFunction,Plated,PTH,ViaDrill
T1C0.400
; #@! TA.AperFunction,Plated,PTH,ComponentDrill
T2C0.700
; #@! TA.AperFunction,Plated,PTH,ComponentDrill
T3C0.800
; #@! TA.AperFunction,Plated,PTH,ComponentDrill
T4C0.850
; #@! TA.AperFunction,Plated,PTH,ComponentDrill
T5C0.950
; #@! TA.AperFunction,Plated,PTH,ComponentDrill
T6C1.000
; #@! TA.AperFunction,Plated,PTH,ComponentDrill
T7C1.190
; #@! TA.AperFunction,Plated,PTH,ComponentDrill
T8C1.300
%
G90
G05
T1
X52.07Y-50.292
X52.07Y-53.086
X52.07Y-60.96
X58.42Y-59.944
X58.928Y-50.8
X60.198Y-51.816
X84.172Y-44.645
X84.172Y-50.36
T2
X57.17Y-46.228
X57.17Y-53.34
X57.17Y-56.134
X57.19Y-63.5
X59.67Y-46.228
X59.67Y-53.34
X59.67Y-56.134
X59.69Y-63.5
X79.092Y-23.73
X79.092Y-26.23
X79.092Y-55.48
X79.092Y-57.98
T3
X40.992Y-50.36
X40.992Y-56.71
X42.992Y-50.36
X42.992Y-56.71
X47.342Y-30.08
X47.342Y-35.08
X51.152Y-26.035
X51.152Y-36.195
X54.962Y-26.035
X54.962Y-36.195
X58.772Y-30.08
X58.772Y-35.08
X62.582Y-30.12
X62.582Y-35.12
X63.852Y-17.34
X63.852Y-27.5
X63.852Y-50.36
X63.852Y-60.52
X66.392Y-32.58
X66.392Y-36.39
X66.392Y-40.2
X66.392Y-44.01
X66.392Y-47.82
X66.392Y-64.33
X67.652Y-21.16
X67.652Y-28.78
X67.662Y-17.34
X67.662Y-52.9
X67.662Y-60.52
X70.192Y-21.16
X70.192Y-28.78
X70.202Y-52.9
X70.202Y-60.52
X72.732Y-21.16
X72.732Y-28.78
X72.742Y-52.9
X72.742Y-60.52
X75.272Y-21.16
X75.272Y-28.78
X75.282Y-52.9
X75.282Y-60.52
X76.552Y-32.58
X76.552Y-36.39
X76.552Y-40.2
X76.552Y-44.01
X76.552Y-47.82
X76.552Y-64.33
X77.822Y-17.34
X80.362Y-47.82
X80.362Y-63.06
X82.362Y-47.82
X82.362Y-63.06
X86.712Y-33.85
X88.712Y-33.85
T4
X37.524Y-19.91
X37.524Y-22.45
X37.524Y-24.99
X37.524Y-30.07
X37.524Y-32.61
T5
X33.02Y-50.84
X33.02Y-53.34
X33.02Y-55.84
T6
X27.94Y-25.4
X27.94Y-27.94
X27.94Y-33.02
X27.94Y-35.56
X27.94Y-38.1
X27.94Y-40.64
X81.632Y-31.325
X81.632Y-33.865
X81.632Y-36.405
T7
X87.982Y-24.96
X87.982Y-27.5
X87.982Y-44.264
X87.982Y-46.804
X87.982Y-50.36
X87.982Y-52.9
T8
X47.832Y-20.312
X52.832Y-20.312
X57.832Y-20.312
T0
M30
