%FSLAX45Y45*%
G04 Gerber Fmt 4.5, Leading zero omitted, Abs format (unit mm)*
G04 Created by KiCad (PCBNEW (6.0.0)) date 2022-02-13 20:03:09*
%MOMM*%
%LPD*%
G01*
G04 APERTURE LIST*
%TA.AperFunction,Profile*%
%ADD10C,0.100000*%
%TD*%
%ADD11C,0.200000*%
%ADD12C,0.040000*%
%ADD13C,0.070000*%
%ADD14C,0.080000*%
%ADD15C,0.085000*%
%ADD16C,0.095000*%
%ADD17C,0.100000*%
%ADD18C,0.119000*%
%ADD19C,0.130000*%
G04 APERTURE END LIST*
D10*
X2524400Y-6687000D02*
X9179200Y-6687000D01*
X9179200Y-6687000D02*
X9179200Y-1480000D01*
X9179200Y-1480000D02*
X2524400Y-1480000D01*
X2524400Y-1480000D02*
X2524400Y-6687000D01*
D11*
D12*
X5187000Y-5009200D02*
X5227000Y-5049200D01*
X5227000Y-5009200D02*
X5187000Y-5049200D01*
X5187000Y-5288600D02*
X5227000Y-5328600D01*
X5227000Y-5288600D02*
X5187000Y-5328600D01*
X5187000Y-6076000D02*
X5227000Y-6116000D01*
X5227000Y-6076000D02*
X5187000Y-6116000D01*
X5822000Y-5974400D02*
X5862000Y-6014400D01*
X5862000Y-5974400D02*
X5822000Y-6014400D01*
X5872800Y-5060000D02*
X5912800Y-5100000D01*
X5912800Y-5060000D02*
X5872800Y-5100000D01*
X5999800Y-5161600D02*
X6039800Y-5201600D01*
X6039800Y-5161600D02*
X5999800Y-5201600D01*
X8397200Y-4444500D02*
X8437200Y-4484500D01*
X8437200Y-4444500D02*
X8397200Y-4484500D01*
X8397200Y-5016000D02*
X8437200Y-5056000D01*
X8437200Y-5016000D02*
X8397200Y-5056000D01*
D13*
X5752000Y-4622800D02*
G75*
G03*
X5752000Y-4622800I-35000J0D01*
G01*
X5752000Y-5334000D02*
G75*
G03*
X5752000Y-5334000I-35000J0D01*
G01*
X5752000Y-5613400D02*
G75*
G03*
X5752000Y-5613400I-35000J0D01*
G01*
X5754000Y-6350000D02*
G75*
G03*
X5754000Y-6350000I-35000J0D01*
G01*
X6002000Y-4622800D02*
G75*
G03*
X6002000Y-4622800I-35000J0D01*
G01*
X6002000Y-5334000D02*
G75*
G03*
X6002000Y-5334000I-35000J0D01*
G01*
X6002000Y-5613400D02*
G75*
G03*
X6002000Y-5613400I-35000J0D01*
G01*
X6004000Y-6350000D02*
G75*
G03*
X6004000Y-6350000I-35000J0D01*
G01*
X7944200Y-2373000D02*
G75*
G03*
X7944200Y-2373000I-35000J0D01*
G01*
X7944200Y-2623000D02*
G75*
G03*
X7944200Y-2623000I-35000J0D01*
G01*
X7944200Y-5548000D02*
G75*
G03*
X7944200Y-5548000I-35000J0D01*
G01*
X7944200Y-5798000D02*
G75*
G03*
X7944200Y-5798000I-35000J0D01*
G01*
D14*
X4099200Y-4996000D02*
X4099200Y-5076000D01*
X4059200Y-5036000D02*
X4139200Y-5036000D01*
X4099200Y-5631000D02*
X4099200Y-5711000D01*
X4059200Y-5671000D02*
X4139200Y-5671000D01*
X4299200Y-4996000D02*
X4299200Y-5076000D01*
X4259200Y-5036000D02*
X4339200Y-5036000D01*
X4299200Y-5631000D02*
X4299200Y-5711000D01*
X4259200Y-5671000D02*
X4339200Y-5671000D01*
X4734200Y-2968000D02*
X4734200Y-3048000D01*
X4694200Y-3008000D02*
X4774200Y-3008000D01*
X4734200Y-3468000D02*
X4734200Y-3548000D01*
X4694200Y-3508000D02*
X4774200Y-3508000D01*
X5115200Y-2563500D02*
X5115200Y-2643500D01*
X5075200Y-2603500D02*
X5155200Y-2603500D01*
X5115200Y-3579500D02*
X5115200Y-3659500D01*
X5075200Y-3619500D02*
X5155200Y-3619500D01*
X5496200Y-2563500D02*
X5496200Y-2643500D01*
X5456200Y-2603500D02*
X5536200Y-2603500D01*
X5496200Y-3579500D02*
X5496200Y-3659500D01*
X5456200Y-3619500D02*
X5536200Y-3619500D01*
X5877200Y-2968000D02*
X5877200Y-3048000D01*
X5837200Y-3008000D02*
X5917200Y-3008000D01*
X5877200Y-3468000D02*
X5877200Y-3548000D01*
X5837200Y-3508000D02*
X5917200Y-3508000D01*
X6258200Y-2972000D02*
X6258200Y-3052000D01*
X6218200Y-3012000D02*
X6298200Y-3012000D01*
X6258200Y-3472000D02*
X6258200Y-3552000D01*
X6218200Y-3512000D02*
X6298200Y-3512000D01*
X6385200Y-1694000D02*
X6385200Y-1774000D01*
X6345200Y-1734000D02*
X6425200Y-1734000D01*
X6385200Y-2710000D02*
X6385200Y-2790000D01*
X6345200Y-2750000D02*
X6425200Y-2750000D01*
X6385200Y-4996000D02*
X6385200Y-5076000D01*
X6345200Y-5036000D02*
X6425200Y-5036000D01*
X6385200Y-6012000D02*
X6385200Y-6092000D01*
X6345200Y-6052000D02*
X6425200Y-6052000D01*
X6639200Y-3218000D02*
X6639200Y-3298000D01*
X6599200Y-3258000D02*
X6679200Y-3258000D01*
X6639200Y-3599000D02*
X6639200Y-3679000D01*
X6599200Y-3639000D02*
X6679200Y-3639000D01*
X6639200Y-3980000D02*
X6639200Y-4060000D01*
X6599200Y-4020000D02*
X6679200Y-4020000D01*
X6639200Y-4361000D02*
X6639200Y-4441000D01*
X6599200Y-4401000D02*
X6679200Y-4401000D01*
X6639200Y-4742000D02*
X6639200Y-4822000D01*
X6599200Y-4782000D02*
X6679200Y-4782000D01*
X6639200Y-6393000D02*
X6639200Y-6473000D01*
X6599200Y-6433000D02*
X6679200Y-6433000D01*
X6765200Y-2076000D02*
X6765200Y-2156000D01*
X6725200Y-2116000D02*
X6805200Y-2116000D01*
X6765200Y-2838000D02*
X6765200Y-2918000D01*
X6725200Y-2878000D02*
X6805200Y-2878000D01*
X6766200Y-1694000D02*
X6766200Y-1774000D01*
X6726200Y-1734000D02*
X6806200Y-1734000D01*
X6766200Y-5250000D02*
X6766200Y-5330000D01*
X6726200Y-5290000D02*
X6806200Y-5290000D01*
X6766200Y-6012000D02*
X6766200Y-6092000D01*
X6726200Y-6052000D02*
X6806200Y-6052000D01*
X7019200Y-2076000D02*
X7019200Y-2156000D01*
X6979200Y-2116000D02*
X7059200Y-2116000D01*
X7019200Y-2838000D02*
X7019200Y-2918000D01*
X6979200Y-2878000D02*
X7059200Y-2878000D01*
X7020200Y-5250000D02*
X7020200Y-5330000D01*
X6980200Y-5290000D02*
X7060200Y-5290000D01*
X7020200Y-6012000D02*
X7020200Y-6092000D01*
X6980200Y-6052000D02*
X7060200Y-6052000D01*
X7273200Y-2076000D02*
X7273200Y-2156000D01*
X7233200Y-2116000D02*
X7313200Y-2116000D01*
X7273200Y-2838000D02*
X7273200Y-2918000D01*
X7233200Y-2878000D02*
X7313200Y-2878000D01*
X7274200Y-5250000D02*
X7274200Y-5330000D01*
X7234200Y-5290000D02*
X7314200Y-5290000D01*
X7274200Y-6012000D02*
X7274200Y-6092000D01*
X7234200Y-6052000D02*
X7314200Y-6052000D01*
X7527200Y-2076000D02*
X7527200Y-2156000D01*
X7487200Y-2116000D02*
X7567200Y-2116000D01*
X7527200Y-2838000D02*
X7527200Y-2918000D01*
X7487200Y-2878000D02*
X7567200Y-2878000D01*
X7528200Y-5250000D02*
X7528200Y-5330000D01*
X7488200Y-5290000D02*
X7568200Y-5290000D01*
X7528200Y-6012000D02*
X7528200Y-6092000D01*
X7488200Y-6052000D02*
X7568200Y-6052000D01*
X7655200Y-3218000D02*
X7655200Y-3298000D01*
X7615200Y-3258000D02*
X7695200Y-3258000D01*
X7655200Y-3599000D02*
X7655200Y-3679000D01*
X7615200Y-3639000D02*
X7695200Y-3639000D01*
X7655200Y-3980000D02*
X7655200Y-4060000D01*
X7615200Y-4020000D02*
X7695200Y-4020000D01*
X7655200Y-4361000D02*
X7655200Y-4441000D01*
X7615200Y-4401000D02*
X7695200Y-4401000D01*
X7655200Y-4742000D02*
X7655200Y-4822000D01*
X7615200Y-4782000D02*
X7695200Y-4782000D01*
X7655200Y-6393000D02*
X7655200Y-6473000D01*
X7615200Y-6433000D02*
X7695200Y-6433000D01*
X7782200Y-1694000D02*
X7782200Y-1774000D01*
X7742200Y-1734000D02*
X7822200Y-1734000D01*
X8036200Y-4742000D02*
X8036200Y-4822000D01*
X7996200Y-4782000D02*
X8076200Y-4782000D01*
X8036200Y-6266000D02*
X8036200Y-6346000D01*
X7996200Y-6306000D02*
X8076200Y-6306000D01*
X8236200Y-4742000D02*
X8236200Y-4822000D01*
X8196200Y-4782000D02*
X8276200Y-4782000D01*
X8236200Y-6266000D02*
X8236200Y-6346000D01*
X8196200Y-6306000D02*
X8276200Y-6306000D01*
X8671200Y-3345000D02*
X8671200Y-3425000D01*
X8631200Y-3385000D02*
X8711200Y-3385000D01*
X8871200Y-3345000D02*
X8871200Y-3425000D01*
X8831200Y-3385000D02*
X8911200Y-3385000D01*
D15*
X3782452Y-2021052D02*
X3782452Y-1960948D01*
X3722348Y-1960948D01*
X3722348Y-2021052D01*
X3782452Y-2021052D01*
X3782452Y-2275052D02*
X3782452Y-2214948D01*
X3722348Y-2214948D01*
X3722348Y-2275052D01*
X3782452Y-2275052D01*
X3782452Y-2529052D02*
X3782452Y-2468948D01*
X3722348Y-2468948D01*
X3722348Y-2529052D01*
X3782452Y-2529052D01*
X3782452Y-3037052D02*
X3782452Y-2976948D01*
X3722348Y-2976948D01*
X3722348Y-3037052D01*
X3782452Y-3037052D01*
X3782452Y-3291052D02*
X3782452Y-3230948D01*
X3722348Y-3230948D01*
X3722348Y-3291052D01*
X3782452Y-3291052D01*
D16*
X3302000Y-5131500D02*
X3349500Y-5084000D01*
X3302000Y-5036500D01*
X3254500Y-5084000D01*
X3302000Y-5131500D01*
X3302000Y-5381500D02*
X3349500Y-5334000D01*
X3302000Y-5286500D01*
X3254500Y-5334000D01*
X3302000Y-5381500D01*
X3302000Y-5631500D02*
X3349500Y-5584000D01*
X3302000Y-5536500D01*
X3254500Y-5584000D01*
X3302000Y-5631500D01*
D17*
X2744000Y-2490000D02*
X2844000Y-2590000D01*
X2844000Y-2490000D02*
X2744000Y-2590000D01*
X2844000Y-2540000D02*
G75*
G03*
X2844000Y-2540000I-50000J0D01*
G01*
X2744000Y-2744000D02*
X2844000Y-2844000D01*
X2844000Y-2744000D02*
X2744000Y-2844000D01*
X2844000Y-2794000D02*
G75*
G03*
X2844000Y-2794000I-50000J0D01*
G01*
X2744000Y-3252000D02*
X2844000Y-3352000D01*
X2844000Y-3252000D02*
X2744000Y-3352000D01*
X2844000Y-3302000D02*
G75*
G03*
X2844000Y-3302000I-50000J0D01*
G01*
X2744000Y-3506000D02*
X2844000Y-3606000D01*
X2844000Y-3506000D02*
X2744000Y-3606000D01*
X2844000Y-3556000D02*
G75*
G03*
X2844000Y-3556000I-50000J0D01*
G01*
X2744000Y-3760000D02*
X2844000Y-3860000D01*
X2844000Y-3760000D02*
X2744000Y-3860000D01*
X2844000Y-3810000D02*
G75*
G03*
X2844000Y-3810000I-50000J0D01*
G01*
X2744000Y-4014000D02*
X2844000Y-4114000D01*
X2844000Y-4014000D02*
X2744000Y-4114000D01*
X2844000Y-4064000D02*
G75*
G03*
X2844000Y-4064000I-50000J0D01*
G01*
X8113200Y-3082500D02*
X8213200Y-3182500D01*
X8213200Y-3082500D02*
X8113200Y-3182500D01*
X8213200Y-3132500D02*
G75*
G03*
X8213200Y-3132500I-50000J0D01*
G01*
X8113200Y-3336500D02*
X8213200Y-3436500D01*
X8213200Y-3336500D02*
X8113200Y-3436500D01*
X8213200Y-3386500D02*
G75*
G03*
X8213200Y-3386500I-50000J0D01*
G01*
X8113200Y-3590500D02*
X8213200Y-3690500D01*
X8213200Y-3590500D02*
X8113200Y-3690500D01*
X8213200Y-3640500D02*
G75*
G03*
X8213200Y-3640500I-50000J0D01*
G01*
D18*
X8738700Y-2436500D02*
X8857700Y-2555500D01*
X8857700Y-2436500D02*
X8738700Y-2555500D01*
X8798200Y-2436500D02*
X8798200Y-2555500D01*
X8738700Y-2496000D02*
X8857700Y-2496000D01*
X8738700Y-2690500D02*
X8857700Y-2809500D01*
X8857700Y-2690500D02*
X8738700Y-2809500D01*
X8798200Y-2690500D02*
X8798200Y-2809500D01*
X8738700Y-2750000D02*
X8857700Y-2750000D01*
X8738700Y-4366900D02*
X8857700Y-4485900D01*
X8857700Y-4366900D02*
X8738700Y-4485900D01*
X8798200Y-4366900D02*
X8798200Y-4485900D01*
X8738700Y-4426400D02*
X8857700Y-4426400D01*
X8738700Y-4620900D02*
X8857700Y-4739900D01*
X8857700Y-4620900D02*
X8738700Y-4739900D01*
X8798200Y-4620900D02*
X8798200Y-4739900D01*
X8738700Y-4680400D02*
X8857700Y-4680400D01*
X8738700Y-4976500D02*
X8857700Y-5095500D01*
X8857700Y-4976500D02*
X8738700Y-5095500D01*
X8798200Y-4976500D02*
X8798200Y-5095500D01*
X8738700Y-5036000D02*
X8857700Y-5036000D01*
X8738700Y-5230500D02*
X8857700Y-5349500D01*
X8857700Y-5230500D02*
X8738700Y-5349500D01*
X8798200Y-5230500D02*
X8798200Y-5349500D01*
X8738700Y-5290000D02*
X8857700Y-5290000D01*
D19*
X4718200Y-1966200D02*
X4848200Y-2096200D01*
X4848200Y-1966200D02*
X4718200Y-2096200D01*
X4829162Y-2077162D02*
X4829162Y-1985238D01*
X4737238Y-1985238D01*
X4737238Y-2077162D01*
X4829162Y-2077162D01*
X5218200Y-1966200D02*
X5348200Y-2096200D01*
X5348200Y-1966200D02*
X5218200Y-2096200D01*
X5329162Y-2077162D02*
X5329162Y-1985238D01*
X5237238Y-1985238D01*
X5237238Y-2077162D01*
X5329162Y-2077162D01*
X5718200Y-1966200D02*
X5848200Y-2096200D01*
X5848200Y-1966200D02*
X5718200Y-2096200D01*
X5829162Y-2077162D02*
X5829162Y-1985238D01*
X5737238Y-1985238D01*
X5737238Y-2077162D01*
X5829162Y-2077162D01*
D11*
X2777019Y-7002476D02*
X2777019Y-6802476D01*
X2824638Y-6802476D01*
X2853209Y-6812000D01*
X2872257Y-6831048D01*
X2881781Y-6850095D01*
X2891305Y-6888190D01*
X2891305Y-6916762D01*
X2881781Y-6954857D01*
X2872257Y-6973905D01*
X2853209Y-6992952D01*
X2824638Y-7002476D01*
X2777019Y-7002476D01*
X2977019Y-7002476D02*
X2977019Y-6869143D01*
X2977019Y-6907238D02*
X2986543Y-6888190D01*
X2996067Y-6878667D01*
X3015114Y-6869143D01*
X3034162Y-6869143D01*
X3100828Y-7002476D02*
X3100828Y-6869143D01*
X3100828Y-6802476D02*
X3091305Y-6812000D01*
X3100828Y-6821524D01*
X3110352Y-6812000D01*
X3100828Y-6802476D01*
X3100828Y-6821524D01*
X3224638Y-7002476D02*
X3205590Y-6992952D01*
X3196067Y-6973905D01*
X3196067Y-6802476D01*
X3329400Y-7002476D02*
X3310352Y-6992952D01*
X3300828Y-6973905D01*
X3300828Y-6802476D01*
X3557971Y-7002476D02*
X3557971Y-6802476D01*
X3624638Y-6945333D01*
X3691305Y-6802476D01*
X3691305Y-7002476D01*
X3872257Y-7002476D02*
X3872257Y-6897714D01*
X3862733Y-6878667D01*
X3843686Y-6869143D01*
X3805590Y-6869143D01*
X3786543Y-6878667D01*
X3872257Y-6992952D02*
X3853209Y-7002476D01*
X3805590Y-7002476D01*
X3786543Y-6992952D01*
X3777019Y-6973905D01*
X3777019Y-6954857D01*
X3786543Y-6935809D01*
X3805590Y-6926286D01*
X3853209Y-6926286D01*
X3872257Y-6916762D01*
X3967495Y-6869143D02*
X3967495Y-7069143D01*
X3967495Y-6878667D02*
X3986543Y-6869143D01*
X4024638Y-6869143D01*
X4043686Y-6878667D01*
X4053209Y-6888190D01*
X4062733Y-6907238D01*
X4062733Y-6964381D01*
X4053209Y-6983428D01*
X4043686Y-6992952D01*
X4024638Y-7002476D01*
X3986543Y-7002476D01*
X3967495Y-6992952D01*
X4148448Y-6983428D02*
X4157971Y-6992952D01*
X4148448Y-7002476D01*
X4138924Y-6992952D01*
X4148448Y-6983428D01*
X4148448Y-7002476D01*
X4148448Y-6878667D02*
X4157971Y-6888190D01*
X4148448Y-6897714D01*
X4138924Y-6888190D01*
X4148448Y-6878667D01*
X4148448Y-6897714D01*
D12*
X2479400Y-7312000D02*
X2519400Y-7352000D01*
X2519400Y-7312000D02*
X2479400Y-7352000D01*
D11*
X2815114Y-7222476D02*
X2834162Y-7222476D01*
X2853209Y-7232000D01*
X2862733Y-7241524D01*
X2872257Y-7260571D01*
X2881781Y-7298667D01*
X2881781Y-7346286D01*
X2872257Y-7384381D01*
X2862733Y-7403428D01*
X2853209Y-7412952D01*
X2834162Y-7422476D01*
X2815114Y-7422476D01*
X2796067Y-7412952D01*
X2786543Y-7403428D01*
X2777019Y-7384381D01*
X2767495Y-7346286D01*
X2767495Y-7298667D01*
X2777019Y-7260571D01*
X2786543Y-7241524D01*
X2796067Y-7232000D01*
X2815114Y-7222476D01*
X2967495Y-7403428D02*
X2977019Y-7412952D01*
X2967495Y-7422476D01*
X2957971Y-7412952D01*
X2967495Y-7403428D01*
X2967495Y-7422476D01*
X3148448Y-7289143D02*
X3148448Y-7422476D01*
X3100828Y-7212952D02*
X3053209Y-7355809D01*
X3177019Y-7355809D01*
X3291305Y-7222476D02*
X3310352Y-7222476D01*
X3329400Y-7232000D01*
X3338924Y-7241524D01*
X3348448Y-7260571D01*
X3357971Y-7298667D01*
X3357971Y-7346286D01*
X3348448Y-7384381D01*
X3338924Y-7403428D01*
X3329400Y-7412952D01*
X3310352Y-7422476D01*
X3291305Y-7422476D01*
X3272257Y-7412952D01*
X3262733Y-7403428D01*
X3253209Y-7384381D01*
X3243686Y-7346286D01*
X3243686Y-7298667D01*
X3253209Y-7260571D01*
X3262733Y-7241524D01*
X3272257Y-7232000D01*
X3291305Y-7222476D01*
X3481781Y-7222476D02*
X3500828Y-7222476D01*
X3519876Y-7232000D01*
X3529400Y-7241524D01*
X3538924Y-7260571D01*
X3548448Y-7298667D01*
X3548448Y-7346286D01*
X3538924Y-7384381D01*
X3529400Y-7403428D01*
X3519876Y-7412952D01*
X3500828Y-7422476D01*
X3481781Y-7422476D01*
X3462733Y-7412952D01*
X3453209Y-7403428D01*
X3443686Y-7384381D01*
X3434162Y-7346286D01*
X3434162Y-7298667D01*
X3443686Y-7260571D01*
X3453209Y-7241524D01*
X3462733Y-7232000D01*
X3481781Y-7222476D01*
X3634162Y-7422476D02*
X3634162Y-7289143D01*
X3634162Y-7308190D02*
X3643686Y-7298667D01*
X3662733Y-7289143D01*
X3691305Y-7289143D01*
X3710352Y-7298667D01*
X3719876Y-7317714D01*
X3719876Y-7422476D01*
X3719876Y-7317714D02*
X3729400Y-7298667D01*
X3748448Y-7289143D01*
X3777019Y-7289143D01*
X3796067Y-7298667D01*
X3805590Y-7317714D01*
X3805590Y-7422476D01*
X3900828Y-7422476D02*
X3900828Y-7289143D01*
X3900828Y-7308190D02*
X3910352Y-7298667D01*
X3929400Y-7289143D01*
X3957971Y-7289143D01*
X3977019Y-7298667D01*
X3986543Y-7317714D01*
X3986543Y-7422476D01*
X3986543Y-7317714D02*
X3996067Y-7298667D01*
X4015114Y-7289143D01*
X4043686Y-7289143D01*
X4062733Y-7298667D01*
X4072257Y-7317714D01*
X4072257Y-7422476D01*
X4462733Y-7212952D02*
X4291305Y-7470095D01*
X4719876Y-7222476D02*
X4738924Y-7222476D01*
X4757971Y-7232000D01*
X4767495Y-7241524D01*
X4777019Y-7260571D01*
X4786543Y-7298667D01*
X4786543Y-7346286D01*
X4777019Y-7384381D01*
X4767495Y-7403428D01*
X4757971Y-7412952D01*
X4738924Y-7422476D01*
X4719876Y-7422476D01*
X4700829Y-7412952D01*
X4691305Y-7403428D01*
X4681781Y-7384381D01*
X4672257Y-7346286D01*
X4672257Y-7298667D01*
X4681781Y-7260571D01*
X4691305Y-7241524D01*
X4700829Y-7232000D01*
X4719876Y-7222476D01*
X4872257Y-7403428D02*
X4881781Y-7412952D01*
X4872257Y-7422476D01*
X4862733Y-7412952D01*
X4872257Y-7403428D01*
X4872257Y-7422476D01*
X5005590Y-7222476D02*
X5024638Y-7222476D01*
X5043686Y-7232000D01*
X5053210Y-7241524D01*
X5062733Y-7260571D01*
X5072257Y-7298667D01*
X5072257Y-7346286D01*
X5062733Y-7384381D01*
X5053210Y-7403428D01*
X5043686Y-7412952D01*
X5024638Y-7422476D01*
X5005590Y-7422476D01*
X4986543Y-7412952D01*
X4977019Y-7403428D01*
X4967495Y-7384381D01*
X4957971Y-7346286D01*
X4957971Y-7298667D01*
X4967495Y-7260571D01*
X4977019Y-7241524D01*
X4986543Y-7232000D01*
X5005590Y-7222476D01*
X5262733Y-7422476D02*
X5148448Y-7422476D01*
X5205590Y-7422476D02*
X5205590Y-7222476D01*
X5186543Y-7251048D01*
X5167495Y-7270095D01*
X5148448Y-7279619D01*
X5443686Y-7222476D02*
X5348448Y-7222476D01*
X5338924Y-7317714D01*
X5348448Y-7308190D01*
X5367495Y-7298667D01*
X5415114Y-7298667D01*
X5434162Y-7308190D01*
X5443686Y-7317714D01*
X5453210Y-7336762D01*
X5453210Y-7384381D01*
X5443686Y-7403428D01*
X5434162Y-7412952D01*
X5415114Y-7422476D01*
X5367495Y-7422476D01*
X5348448Y-7412952D01*
X5338924Y-7403428D01*
X5519876Y-7222476D02*
X5653209Y-7222476D01*
X5567495Y-7422476D01*
X5719876Y-7222476D02*
X5719876Y-7260571D01*
X5796067Y-7222476D02*
X5796067Y-7260571D01*
X6091305Y-7498667D02*
X6081781Y-7489143D01*
X6062733Y-7460571D01*
X6053209Y-7441524D01*
X6043686Y-7412952D01*
X6034162Y-7365333D01*
X6034162Y-7327238D01*
X6043686Y-7279619D01*
X6053209Y-7251048D01*
X6062733Y-7232000D01*
X6081781Y-7203428D01*
X6091305Y-7193905D01*
X6196067Y-7308190D02*
X6177019Y-7298667D01*
X6167495Y-7289143D01*
X6157971Y-7270095D01*
X6157971Y-7260571D01*
X6167495Y-7241524D01*
X6177019Y-7232000D01*
X6196067Y-7222476D01*
X6234162Y-7222476D01*
X6253209Y-7232000D01*
X6262733Y-7241524D01*
X6272257Y-7260571D01*
X6272257Y-7270095D01*
X6262733Y-7289143D01*
X6253209Y-7298667D01*
X6234162Y-7308190D01*
X6196067Y-7308190D01*
X6177019Y-7317714D01*
X6167495Y-7327238D01*
X6157971Y-7346286D01*
X6157971Y-7384381D01*
X6167495Y-7403428D01*
X6177019Y-7412952D01*
X6196067Y-7422476D01*
X6234162Y-7422476D01*
X6253209Y-7412952D01*
X6262733Y-7403428D01*
X6272257Y-7384381D01*
X6272257Y-7346286D01*
X6262733Y-7327238D01*
X6253209Y-7317714D01*
X6234162Y-7308190D01*
X6510352Y-7422476D02*
X6510352Y-7222476D01*
X6596067Y-7422476D02*
X6596067Y-7317714D01*
X6586543Y-7298667D01*
X6567495Y-7289143D01*
X6538924Y-7289143D01*
X6519876Y-7298667D01*
X6510352Y-7308190D01*
X6719876Y-7422476D02*
X6700828Y-7412952D01*
X6691305Y-7403428D01*
X6681781Y-7384381D01*
X6681781Y-7327238D01*
X6691305Y-7308190D01*
X6700828Y-7298667D01*
X6719876Y-7289143D01*
X6748448Y-7289143D01*
X6767495Y-7298667D01*
X6777019Y-7308190D01*
X6786543Y-7327238D01*
X6786543Y-7384381D01*
X6777019Y-7403428D01*
X6767495Y-7412952D01*
X6748448Y-7422476D01*
X6719876Y-7422476D01*
X6900828Y-7422476D02*
X6881781Y-7412952D01*
X6872257Y-7393905D01*
X6872257Y-7222476D01*
X7053209Y-7412952D02*
X7034162Y-7422476D01*
X6996067Y-7422476D01*
X6977019Y-7412952D01*
X6967495Y-7393905D01*
X6967495Y-7317714D01*
X6977019Y-7298667D01*
X6996067Y-7289143D01*
X7034162Y-7289143D01*
X7053209Y-7298667D01*
X7062733Y-7317714D01*
X7062733Y-7336762D01*
X6967495Y-7355809D01*
X7138924Y-7412952D02*
X7157971Y-7422476D01*
X7196067Y-7422476D01*
X7215114Y-7412952D01*
X7224638Y-7393905D01*
X7224638Y-7384381D01*
X7215114Y-7365333D01*
X7196067Y-7355809D01*
X7167495Y-7355809D01*
X7148448Y-7346286D01*
X7138924Y-7327238D01*
X7138924Y-7317714D01*
X7148448Y-7298667D01*
X7167495Y-7289143D01*
X7196067Y-7289143D01*
X7215114Y-7298667D01*
X7291305Y-7498667D02*
X7300828Y-7489143D01*
X7319876Y-7460571D01*
X7329400Y-7441524D01*
X7338924Y-7412952D01*
X7348448Y-7365333D01*
X7348448Y-7327238D01*
X7338924Y-7279619D01*
X7329400Y-7251048D01*
X7319876Y-7232000D01*
X7300828Y-7203428D01*
X7291305Y-7193905D01*
D13*
X2519400Y-7596000D02*
G75*
G03*
X2519400Y-7596000I-35000J0D01*
G01*
D11*
X2815114Y-7486476D02*
X2834162Y-7486476D01*
X2853209Y-7496000D01*
X2862733Y-7505524D01*
X2872257Y-7524571D01*
X2881781Y-7562667D01*
X2881781Y-7610286D01*
X2872257Y-7648381D01*
X2862733Y-7667428D01*
X2853209Y-7676952D01*
X2834162Y-7686476D01*
X2815114Y-7686476D01*
X2796067Y-7676952D01*
X2786543Y-7667428D01*
X2777019Y-7648381D01*
X2767495Y-7610286D01*
X2767495Y-7562667D01*
X2777019Y-7524571D01*
X2786543Y-7505524D01*
X2796067Y-7496000D01*
X2815114Y-7486476D01*
X2967495Y-7667428D02*
X2977019Y-7676952D01*
X2967495Y-7686476D01*
X2957971Y-7676952D01*
X2967495Y-7667428D01*
X2967495Y-7686476D01*
X3043686Y-7486476D02*
X3177019Y-7486476D01*
X3091305Y-7686476D01*
X3291305Y-7486476D02*
X3310352Y-7486476D01*
X3329400Y-7496000D01*
X3338924Y-7505524D01*
X3348448Y-7524571D01*
X3357971Y-7562667D01*
X3357971Y-7610286D01*
X3348448Y-7648381D01*
X3338924Y-7667428D01*
X3329400Y-7676952D01*
X3310352Y-7686476D01*
X3291305Y-7686476D01*
X3272257Y-7676952D01*
X3262733Y-7667428D01*
X3253209Y-7648381D01*
X3243686Y-7610286D01*
X3243686Y-7562667D01*
X3253209Y-7524571D01*
X3262733Y-7505524D01*
X3272257Y-7496000D01*
X3291305Y-7486476D01*
X3481781Y-7486476D02*
X3500828Y-7486476D01*
X3519876Y-7496000D01*
X3529400Y-7505524D01*
X3538924Y-7524571D01*
X3548448Y-7562667D01*
X3548448Y-7610286D01*
X3538924Y-7648381D01*
X3529400Y-7667428D01*
X3519876Y-7676952D01*
X3500828Y-7686476D01*
X3481781Y-7686476D01*
X3462733Y-7676952D01*
X3453209Y-7667428D01*
X3443686Y-7648381D01*
X3434162Y-7610286D01*
X3434162Y-7562667D01*
X3443686Y-7524571D01*
X3453209Y-7505524D01*
X3462733Y-7496000D01*
X3481781Y-7486476D01*
X3634162Y-7686476D02*
X3634162Y-7553143D01*
X3634162Y-7572190D02*
X3643686Y-7562667D01*
X3662733Y-7553143D01*
X3691305Y-7553143D01*
X3710352Y-7562667D01*
X3719876Y-7581714D01*
X3719876Y-7686476D01*
X3719876Y-7581714D02*
X3729400Y-7562667D01*
X3748448Y-7553143D01*
X3777019Y-7553143D01*
X3796067Y-7562667D01*
X3805590Y-7581714D01*
X3805590Y-7686476D01*
X3900828Y-7686476D02*
X3900828Y-7553143D01*
X3900828Y-7572190D02*
X3910352Y-7562667D01*
X3929400Y-7553143D01*
X3957971Y-7553143D01*
X3977019Y-7562667D01*
X3986543Y-7581714D01*
X3986543Y-7686476D01*
X3986543Y-7581714D02*
X3996067Y-7562667D01*
X4015114Y-7553143D01*
X4043686Y-7553143D01*
X4062733Y-7562667D01*
X4072257Y-7581714D01*
X4072257Y-7686476D01*
X4462733Y-7476952D02*
X4291305Y-7734095D01*
X4719876Y-7486476D02*
X4738924Y-7486476D01*
X4757971Y-7496000D01*
X4767495Y-7505524D01*
X4777019Y-7524571D01*
X4786543Y-7562667D01*
X4786543Y-7610286D01*
X4777019Y-7648381D01*
X4767495Y-7667428D01*
X4757971Y-7676952D01*
X4738924Y-7686476D01*
X4719876Y-7686476D01*
X4700829Y-7676952D01*
X4691305Y-7667428D01*
X4681781Y-7648381D01*
X4672257Y-7610286D01*
X4672257Y-7562667D01*
X4681781Y-7524571D01*
X4691305Y-7505524D01*
X4700829Y-7496000D01*
X4719876Y-7486476D01*
X4872257Y-7667428D02*
X4881781Y-7676952D01*
X4872257Y-7686476D01*
X4862733Y-7676952D01*
X4872257Y-7667428D01*
X4872257Y-7686476D01*
X5005590Y-7486476D02*
X5024638Y-7486476D01*
X5043686Y-7496000D01*
X5053210Y-7505524D01*
X5062733Y-7524571D01*
X5072257Y-7562667D01*
X5072257Y-7610286D01*
X5062733Y-7648381D01*
X5053210Y-7667428D01*
X5043686Y-7676952D01*
X5024638Y-7686476D01*
X5005590Y-7686476D01*
X4986543Y-7676952D01*
X4977019Y-7667428D01*
X4967495Y-7648381D01*
X4957971Y-7610286D01*
X4957971Y-7562667D01*
X4967495Y-7524571D01*
X4977019Y-7505524D01*
X4986543Y-7496000D01*
X5005590Y-7486476D01*
X5148448Y-7505524D02*
X5157971Y-7496000D01*
X5177019Y-7486476D01*
X5224638Y-7486476D01*
X5243686Y-7496000D01*
X5253210Y-7505524D01*
X5262733Y-7524571D01*
X5262733Y-7543619D01*
X5253210Y-7572190D01*
X5138924Y-7686476D01*
X5262733Y-7686476D01*
X5329400Y-7486476D02*
X5462733Y-7486476D01*
X5377019Y-7686476D01*
X5624638Y-7486476D02*
X5586543Y-7486476D01*
X5567495Y-7496000D01*
X5557971Y-7505524D01*
X5538924Y-7534095D01*
X5529400Y-7572190D01*
X5529400Y-7648381D01*
X5538924Y-7667428D01*
X5548448Y-7676952D01*
X5567495Y-7686476D01*
X5605590Y-7686476D01*
X5624638Y-7676952D01*
X5634162Y-7667428D01*
X5643686Y-7648381D01*
X5643686Y-7600762D01*
X5634162Y-7581714D01*
X5624638Y-7572190D01*
X5605590Y-7562667D01*
X5567495Y-7562667D01*
X5548448Y-7572190D01*
X5538924Y-7581714D01*
X5529400Y-7600762D01*
X5719876Y-7486476D02*
X5719876Y-7524571D01*
X5796067Y-7486476D02*
X5796067Y-7524571D01*
X6091305Y-7762667D02*
X6081781Y-7753143D01*
X6062733Y-7724571D01*
X6053209Y-7705524D01*
X6043686Y-7676952D01*
X6034162Y-7629333D01*
X6034162Y-7591238D01*
X6043686Y-7543619D01*
X6053209Y-7515048D01*
X6062733Y-7496000D01*
X6081781Y-7467428D01*
X6091305Y-7457905D01*
X6272257Y-7686476D02*
X6157971Y-7686476D01*
X6215114Y-7686476D02*
X6215114Y-7486476D01*
X6196067Y-7515048D01*
X6177019Y-7534095D01*
X6157971Y-7543619D01*
X6348448Y-7505524D02*
X6357971Y-7496000D01*
X6377019Y-7486476D01*
X6424638Y-7486476D01*
X6443686Y-7496000D01*
X6453209Y-7505524D01*
X6462733Y-7524571D01*
X6462733Y-7543619D01*
X6453209Y-7572190D01*
X6338924Y-7686476D01*
X6462733Y-7686476D01*
X6700828Y-7686476D02*
X6700828Y-7486476D01*
X6786543Y-7686476D02*
X6786543Y-7581714D01*
X6777019Y-7562667D01*
X6757971Y-7553143D01*
X6729400Y-7553143D01*
X6710352Y-7562667D01*
X6700828Y-7572190D01*
X6910352Y-7686476D02*
X6891305Y-7676952D01*
X6881781Y-7667428D01*
X6872257Y-7648381D01*
X6872257Y-7591238D01*
X6881781Y-7572190D01*
X6891305Y-7562667D01*
X6910352Y-7553143D01*
X6938924Y-7553143D01*
X6957971Y-7562667D01*
X6967495Y-7572190D01*
X6977019Y-7591238D01*
X6977019Y-7648381D01*
X6967495Y-7667428D01*
X6957971Y-7676952D01*
X6938924Y-7686476D01*
X6910352Y-7686476D01*
X7091305Y-7686476D02*
X7072257Y-7676952D01*
X7062733Y-7657905D01*
X7062733Y-7486476D01*
X7243686Y-7676952D02*
X7224638Y-7686476D01*
X7186543Y-7686476D01*
X7167495Y-7676952D01*
X7157971Y-7657905D01*
X7157971Y-7581714D01*
X7167495Y-7562667D01*
X7186543Y-7553143D01*
X7224638Y-7553143D01*
X7243686Y-7562667D01*
X7253209Y-7581714D01*
X7253209Y-7600762D01*
X7157971Y-7619809D01*
X7329400Y-7676952D02*
X7348448Y-7686476D01*
X7386543Y-7686476D01*
X7405590Y-7676952D01*
X7415114Y-7657905D01*
X7415114Y-7648381D01*
X7405590Y-7629333D01*
X7386543Y-7619809D01*
X7357971Y-7619809D01*
X7338924Y-7610286D01*
X7329400Y-7591238D01*
X7329400Y-7581714D01*
X7338924Y-7562667D01*
X7357971Y-7553143D01*
X7386543Y-7553143D01*
X7405590Y-7562667D01*
X7481781Y-7762667D02*
X7491305Y-7753143D01*
X7510352Y-7724571D01*
X7519876Y-7705524D01*
X7529400Y-7676952D01*
X7538924Y-7629333D01*
X7538924Y-7591238D01*
X7529400Y-7543619D01*
X7519876Y-7515048D01*
X7510352Y-7496000D01*
X7491305Y-7467428D01*
X7481781Y-7457905D01*
D14*
X2479400Y-7820000D02*
X2479400Y-7900000D01*
X2439400Y-7860000D02*
X2519400Y-7860000D01*
D11*
X2815114Y-7750476D02*
X2834162Y-7750476D01*
X2853209Y-7760000D01*
X2862733Y-7769524D01*
X2872257Y-7788571D01*
X2881781Y-7826667D01*
X2881781Y-7874286D01*
X2872257Y-7912381D01*
X2862733Y-7931428D01*
X2853209Y-7940952D01*
X2834162Y-7950476D01*
X2815114Y-7950476D01*
X2796067Y-7940952D01*
X2786543Y-7931428D01*
X2777019Y-7912381D01*
X2767495Y-7874286D01*
X2767495Y-7826667D01*
X2777019Y-7788571D01*
X2786543Y-7769524D01*
X2796067Y-7760000D01*
X2815114Y-7750476D01*
X2967495Y-7931428D02*
X2977019Y-7940952D01*
X2967495Y-7950476D01*
X2957971Y-7940952D01*
X2967495Y-7931428D01*
X2967495Y-7950476D01*
X3091305Y-7836190D02*
X3072257Y-7826667D01*
X3062733Y-7817143D01*
X3053209Y-7798095D01*
X3053209Y-7788571D01*
X3062733Y-7769524D01*
X3072257Y-7760000D01*
X3091305Y-7750476D01*
X3129400Y-7750476D01*
X3148448Y-7760000D01*
X3157971Y-7769524D01*
X3167495Y-7788571D01*
X3167495Y-7798095D01*
X3157971Y-7817143D01*
X3148448Y-7826667D01*
X3129400Y-7836190D01*
X3091305Y-7836190D01*
X3072257Y-7845714D01*
X3062733Y-7855238D01*
X3053209Y-7874286D01*
X3053209Y-7912381D01*
X3062733Y-7931428D01*
X3072257Y-7940952D01*
X3091305Y-7950476D01*
X3129400Y-7950476D01*
X3148448Y-7940952D01*
X3157971Y-7931428D01*
X3167495Y-7912381D01*
X3167495Y-7874286D01*
X3157971Y-7855238D01*
X3148448Y-7845714D01*
X3129400Y-7836190D01*
X3291305Y-7750476D02*
X3310352Y-7750476D01*
X3329400Y-7760000D01*
X3338924Y-7769524D01*
X3348448Y-7788571D01*
X3357971Y-7826667D01*
X3357971Y-7874286D01*
X3348448Y-7912381D01*
X3338924Y-7931428D01*
X3329400Y-7940952D01*
X3310352Y-7950476D01*
X3291305Y-7950476D01*
X3272257Y-7940952D01*
X3262733Y-7931428D01*
X3253209Y-7912381D01*
X3243686Y-7874286D01*
X3243686Y-7826667D01*
X3253209Y-7788571D01*
X3262733Y-7769524D01*
X3272257Y-7760000D01*
X3291305Y-7750476D01*
X3481781Y-7750476D02*
X3500828Y-7750476D01*
X3519876Y-7760000D01*
X3529400Y-7769524D01*
X3538924Y-7788571D01*
X3548448Y-7826667D01*
X3548448Y-7874286D01*
X3538924Y-7912381D01*
X3529400Y-7931428D01*
X3519876Y-7940952D01*
X3500828Y-7950476D01*
X3481781Y-7950476D01*
X3462733Y-7940952D01*
X3453209Y-7931428D01*
X3443686Y-7912381D01*
X3434162Y-7874286D01*
X3434162Y-7826667D01*
X3443686Y-7788571D01*
X3453209Y-7769524D01*
X3462733Y-7760000D01*
X3481781Y-7750476D01*
X3634162Y-7950476D02*
X3634162Y-7817143D01*
X3634162Y-7836190D02*
X3643686Y-7826667D01*
X3662733Y-7817143D01*
X3691305Y-7817143D01*
X3710352Y-7826667D01*
X3719876Y-7845714D01*
X3719876Y-7950476D01*
X3719876Y-7845714D02*
X3729400Y-7826667D01*
X3748448Y-7817143D01*
X3777019Y-7817143D01*
X3796067Y-7826667D01*
X3805590Y-7845714D01*
X3805590Y-7950476D01*
X3900828Y-7950476D02*
X3900828Y-7817143D01*
X3900828Y-7836190D02*
X3910352Y-7826667D01*
X3929400Y-7817143D01*
X3957971Y-7817143D01*
X3977019Y-7826667D01*
X3986543Y-7845714D01*
X3986543Y-7950476D01*
X3986543Y-7845714D02*
X3996067Y-7826667D01*
X4015114Y-7817143D01*
X4043686Y-7817143D01*
X4062733Y-7826667D01*
X4072257Y-7845714D01*
X4072257Y-7950476D01*
X4462733Y-7740952D02*
X4291305Y-7998095D01*
X4719876Y-7750476D02*
X4738924Y-7750476D01*
X4757971Y-7760000D01*
X4767495Y-7769524D01*
X4777019Y-7788571D01*
X4786543Y-7826667D01*
X4786543Y-7874286D01*
X4777019Y-7912381D01*
X4767495Y-7931428D01*
X4757971Y-7940952D01*
X4738924Y-7950476D01*
X4719876Y-7950476D01*
X4700829Y-7940952D01*
X4691305Y-7931428D01*
X4681781Y-7912381D01*
X4672257Y-7874286D01*
X4672257Y-7826667D01*
X4681781Y-7788571D01*
X4691305Y-7769524D01*
X4700829Y-7760000D01*
X4719876Y-7750476D01*
X4872257Y-7931428D02*
X4881781Y-7940952D01*
X4872257Y-7950476D01*
X4862733Y-7940952D01*
X4872257Y-7931428D01*
X4872257Y-7950476D01*
X5005590Y-7750476D02*
X5024638Y-7750476D01*
X5043686Y-7760000D01*
X5053210Y-7769524D01*
X5062733Y-7788571D01*
X5072257Y-7826667D01*
X5072257Y-7874286D01*
X5062733Y-7912381D01*
X5053210Y-7931428D01*
X5043686Y-7940952D01*
X5024638Y-7950476D01*
X5005590Y-7950476D01*
X4986543Y-7940952D01*
X4977019Y-7931428D01*
X4967495Y-7912381D01*
X4957971Y-7874286D01*
X4957971Y-7826667D01*
X4967495Y-7788571D01*
X4977019Y-7769524D01*
X4986543Y-7760000D01*
X5005590Y-7750476D01*
X5138924Y-7750476D02*
X5262733Y-7750476D01*
X5196067Y-7826667D01*
X5224638Y-7826667D01*
X5243686Y-7836190D01*
X5253210Y-7845714D01*
X5262733Y-7864762D01*
X5262733Y-7912381D01*
X5253210Y-7931428D01*
X5243686Y-7940952D01*
X5224638Y-7950476D01*
X5167495Y-7950476D01*
X5148448Y-7940952D01*
X5138924Y-7931428D01*
X5453210Y-7950476D02*
X5338924Y-7950476D01*
X5396067Y-7950476D02*
X5396067Y-7750476D01*
X5377019Y-7779048D01*
X5357971Y-7798095D01*
X5338924Y-7807619D01*
X5634162Y-7750476D02*
X5538924Y-7750476D01*
X5529400Y-7845714D01*
X5538924Y-7836190D01*
X5557971Y-7826667D01*
X5605590Y-7826667D01*
X5624638Y-7836190D01*
X5634162Y-7845714D01*
X5643686Y-7864762D01*
X5643686Y-7912381D01*
X5634162Y-7931428D01*
X5624638Y-7940952D01*
X5605590Y-7950476D01*
X5557971Y-7950476D01*
X5538924Y-7940952D01*
X5529400Y-7931428D01*
X5719876Y-7750476D02*
X5719876Y-7788571D01*
X5796067Y-7750476D02*
X5796067Y-7788571D01*
X6091305Y-8026667D02*
X6081781Y-8017143D01*
X6062733Y-7988571D01*
X6053209Y-7969524D01*
X6043686Y-7940952D01*
X6034162Y-7893333D01*
X6034162Y-7855238D01*
X6043686Y-7807619D01*
X6053209Y-7779048D01*
X6062733Y-7760000D01*
X6081781Y-7731428D01*
X6091305Y-7721905D01*
X6262733Y-7750476D02*
X6167495Y-7750476D01*
X6157971Y-7845714D01*
X6167495Y-7836190D01*
X6186543Y-7826667D01*
X6234162Y-7826667D01*
X6253209Y-7836190D01*
X6262733Y-7845714D01*
X6272257Y-7864762D01*
X6272257Y-7912381D01*
X6262733Y-7931428D01*
X6253209Y-7940952D01*
X6234162Y-7950476D01*
X6186543Y-7950476D01*
X6167495Y-7940952D01*
X6157971Y-7931428D01*
X6443686Y-7817143D02*
X6443686Y-7950476D01*
X6396067Y-7740952D02*
X6348448Y-7883809D01*
X6472257Y-7883809D01*
X6700828Y-7950476D02*
X6700828Y-7750476D01*
X6786543Y-7950476D02*
X6786543Y-7845714D01*
X6777019Y-7826667D01*
X6757971Y-7817143D01*
X6729400Y-7817143D01*
X6710352Y-7826667D01*
X6700828Y-7836190D01*
X6910352Y-7950476D02*
X6891305Y-7940952D01*
X6881781Y-7931428D01*
X6872257Y-7912381D01*
X6872257Y-7855238D01*
X6881781Y-7836190D01*
X6891305Y-7826667D01*
X6910352Y-7817143D01*
X6938924Y-7817143D01*
X6957971Y-7826667D01*
X6967495Y-7836190D01*
X6977019Y-7855238D01*
X6977019Y-7912381D01*
X6967495Y-7931428D01*
X6957971Y-7940952D01*
X6938924Y-7950476D01*
X6910352Y-7950476D01*
X7091305Y-7950476D02*
X7072257Y-7940952D01*
X7062733Y-7921905D01*
X7062733Y-7750476D01*
X7243686Y-7940952D02*
X7224638Y-7950476D01*
X7186543Y-7950476D01*
X7167495Y-7940952D01*
X7157971Y-7921905D01*
X7157971Y-7845714D01*
X7167495Y-7826667D01*
X7186543Y-7817143D01*
X7224638Y-7817143D01*
X7243686Y-7826667D01*
X7253209Y-7845714D01*
X7253209Y-7864762D01*
X7157971Y-7883809D01*
X7329400Y-7940952D02*
X7348448Y-7950476D01*
X7386543Y-7950476D01*
X7405590Y-7940952D01*
X7415114Y-7921905D01*
X7415114Y-7912381D01*
X7405590Y-7893333D01*
X7386543Y-7883809D01*
X7357971Y-7883809D01*
X7338924Y-7874286D01*
X7329400Y-7855238D01*
X7329400Y-7845714D01*
X7338924Y-7826667D01*
X7357971Y-7817143D01*
X7386543Y-7817143D01*
X7405590Y-7826667D01*
X7481781Y-8026667D02*
X7491305Y-8017143D01*
X7510352Y-7988571D01*
X7519876Y-7969524D01*
X7529400Y-7940952D01*
X7538924Y-7893333D01*
X7538924Y-7855238D01*
X7529400Y-7807619D01*
X7519876Y-7779048D01*
X7510352Y-7760000D01*
X7491305Y-7731428D01*
X7481781Y-7721905D01*
D15*
X2506952Y-8154052D02*
X2506952Y-8093948D01*
X2446848Y-8093948D01*
X2446848Y-8154052D01*
X2506952Y-8154052D01*
D11*
X2815114Y-8014476D02*
X2834162Y-8014476D01*
X2853209Y-8024000D01*
X2862733Y-8033524D01*
X2872257Y-8052571D01*
X2881781Y-8090667D01*
X2881781Y-8138286D01*
X2872257Y-8176381D01*
X2862733Y-8195428D01*
X2853209Y-8204952D01*
X2834162Y-8214476D01*
X2815114Y-8214476D01*
X2796067Y-8204952D01*
X2786543Y-8195428D01*
X2777019Y-8176381D01*
X2767495Y-8138286D01*
X2767495Y-8090667D01*
X2777019Y-8052571D01*
X2786543Y-8033524D01*
X2796067Y-8024000D01*
X2815114Y-8014476D01*
X2967495Y-8195428D02*
X2977019Y-8204952D01*
X2967495Y-8214476D01*
X2957971Y-8204952D01*
X2967495Y-8195428D01*
X2967495Y-8214476D01*
X3091305Y-8100190D02*
X3072257Y-8090667D01*
X3062733Y-8081143D01*
X3053209Y-8062095D01*
X3053209Y-8052571D01*
X3062733Y-8033524D01*
X3072257Y-8024000D01*
X3091305Y-8014476D01*
X3129400Y-8014476D01*
X3148448Y-8024000D01*
X3157971Y-8033524D01*
X3167495Y-8052571D01*
X3167495Y-8062095D01*
X3157971Y-8081143D01*
X3148448Y-8090667D01*
X3129400Y-8100190D01*
X3091305Y-8100190D01*
X3072257Y-8109714D01*
X3062733Y-8119238D01*
X3053209Y-8138286D01*
X3053209Y-8176381D01*
X3062733Y-8195428D01*
X3072257Y-8204952D01*
X3091305Y-8214476D01*
X3129400Y-8214476D01*
X3148448Y-8204952D01*
X3157971Y-8195428D01*
X3167495Y-8176381D01*
X3167495Y-8138286D01*
X3157971Y-8119238D01*
X3148448Y-8109714D01*
X3129400Y-8100190D01*
X3348448Y-8014476D02*
X3253209Y-8014476D01*
X3243686Y-8109714D01*
X3253209Y-8100190D01*
X3272257Y-8090667D01*
X3319876Y-8090667D01*
X3338924Y-8100190D01*
X3348448Y-8109714D01*
X3357971Y-8128762D01*
X3357971Y-8176381D01*
X3348448Y-8195428D01*
X3338924Y-8204952D01*
X3319876Y-8214476D01*
X3272257Y-8214476D01*
X3253209Y-8204952D01*
X3243686Y-8195428D01*
X3481781Y-8014476D02*
X3500828Y-8014476D01*
X3519876Y-8024000D01*
X3529400Y-8033524D01*
X3538924Y-8052571D01*
X3548448Y-8090667D01*
X3548448Y-8138286D01*
X3538924Y-8176381D01*
X3529400Y-8195428D01*
X3519876Y-8204952D01*
X3500828Y-8214476D01*
X3481781Y-8214476D01*
X3462733Y-8204952D01*
X3453209Y-8195428D01*
X3443686Y-8176381D01*
X3434162Y-8138286D01*
X3434162Y-8090667D01*
X3443686Y-8052571D01*
X3453209Y-8033524D01*
X3462733Y-8024000D01*
X3481781Y-8014476D01*
X3634162Y-8214476D02*
X3634162Y-8081143D01*
X3634162Y-8100190D02*
X3643686Y-8090667D01*
X3662733Y-8081143D01*
X3691305Y-8081143D01*
X3710352Y-8090667D01*
X3719876Y-8109714D01*
X3719876Y-8214476D01*
X3719876Y-8109714D02*
X3729400Y-8090667D01*
X3748448Y-8081143D01*
X3777019Y-8081143D01*
X3796067Y-8090667D01*
X3805590Y-8109714D01*
X3805590Y-8214476D01*
X3900828Y-8214476D02*
X3900828Y-8081143D01*
X3900828Y-8100190D02*
X3910352Y-8090667D01*
X3929400Y-8081143D01*
X3957971Y-8081143D01*
X3977019Y-8090667D01*
X3986543Y-8109714D01*
X3986543Y-8214476D01*
X3986543Y-8109714D02*
X3996067Y-8090667D01*
X4015114Y-8081143D01*
X4043686Y-8081143D01*
X4062733Y-8090667D01*
X4072257Y-8109714D01*
X4072257Y-8214476D01*
X4462733Y-8004952D02*
X4291305Y-8262095D01*
X4719876Y-8014476D02*
X4738924Y-8014476D01*
X4757971Y-8024000D01*
X4767495Y-8033524D01*
X4777019Y-8052571D01*
X4786543Y-8090667D01*
X4786543Y-8138286D01*
X4777019Y-8176381D01*
X4767495Y-8195428D01*
X4757971Y-8204952D01*
X4738924Y-8214476D01*
X4719876Y-8214476D01*
X4700829Y-8204952D01*
X4691305Y-8195428D01*
X4681781Y-8176381D01*
X4672257Y-8138286D01*
X4672257Y-8090667D01*
X4681781Y-8052571D01*
X4691305Y-8033524D01*
X4700829Y-8024000D01*
X4719876Y-8014476D01*
X4872257Y-8195428D02*
X4881781Y-8204952D01*
X4872257Y-8214476D01*
X4862733Y-8204952D01*
X4872257Y-8195428D01*
X4872257Y-8214476D01*
X5005590Y-8014476D02*
X5024638Y-8014476D01*
X5043686Y-8024000D01*
X5053210Y-8033524D01*
X5062733Y-8052571D01*
X5072257Y-8090667D01*
X5072257Y-8138286D01*
X5062733Y-8176381D01*
X5053210Y-8195428D01*
X5043686Y-8204952D01*
X5024638Y-8214476D01*
X5005590Y-8214476D01*
X4986543Y-8204952D01*
X4977019Y-8195428D01*
X4967495Y-8176381D01*
X4957971Y-8138286D01*
X4957971Y-8090667D01*
X4967495Y-8052571D01*
X4977019Y-8033524D01*
X4986543Y-8024000D01*
X5005590Y-8014476D01*
X5138924Y-8014476D02*
X5262733Y-8014476D01*
X5196067Y-8090667D01*
X5224638Y-8090667D01*
X5243686Y-8100190D01*
X5253210Y-8109714D01*
X5262733Y-8128762D01*
X5262733Y-8176381D01*
X5253210Y-8195428D01*
X5243686Y-8204952D01*
X5224638Y-8214476D01*
X5167495Y-8214476D01*
X5148448Y-8204952D01*
X5138924Y-8195428D01*
X5329400Y-8014476D02*
X5453210Y-8014476D01*
X5386543Y-8090667D01*
X5415114Y-8090667D01*
X5434162Y-8100190D01*
X5443686Y-8109714D01*
X5453210Y-8128762D01*
X5453210Y-8176381D01*
X5443686Y-8195428D01*
X5434162Y-8204952D01*
X5415114Y-8214476D01*
X5357971Y-8214476D01*
X5338924Y-8204952D01*
X5329400Y-8195428D01*
X5634162Y-8014476D02*
X5538924Y-8014476D01*
X5529400Y-8109714D01*
X5538924Y-8100190D01*
X5557971Y-8090667D01*
X5605590Y-8090667D01*
X5624638Y-8100190D01*
X5634162Y-8109714D01*
X5643686Y-8128762D01*
X5643686Y-8176381D01*
X5634162Y-8195428D01*
X5624638Y-8204952D01*
X5605590Y-8214476D01*
X5557971Y-8214476D01*
X5538924Y-8204952D01*
X5529400Y-8195428D01*
X5719876Y-8014476D02*
X5719876Y-8052571D01*
X5796067Y-8014476D02*
X5796067Y-8052571D01*
X6091305Y-8290667D02*
X6081781Y-8281143D01*
X6062733Y-8252571D01*
X6053209Y-8233524D01*
X6043686Y-8204952D01*
X6034162Y-8157333D01*
X6034162Y-8119238D01*
X6043686Y-8071619D01*
X6053209Y-8043048D01*
X6062733Y-8024000D01*
X6081781Y-7995428D01*
X6091305Y-7985905D01*
X6262733Y-8014476D02*
X6167495Y-8014476D01*
X6157971Y-8109714D01*
X6167495Y-8100190D01*
X6186543Y-8090667D01*
X6234162Y-8090667D01*
X6253209Y-8100190D01*
X6262733Y-8109714D01*
X6272257Y-8128762D01*
X6272257Y-8176381D01*
X6262733Y-8195428D01*
X6253209Y-8204952D01*
X6234162Y-8214476D01*
X6186543Y-8214476D01*
X6167495Y-8204952D01*
X6157971Y-8195428D01*
X6510352Y-8214476D02*
X6510352Y-8014476D01*
X6596067Y-8214476D02*
X6596067Y-8109714D01*
X6586543Y-8090667D01*
X6567495Y-8081143D01*
X6538924Y-8081143D01*
X6519876Y-8090667D01*
X6510352Y-8100190D01*
X6719876Y-8214476D02*
X6700828Y-8204952D01*
X6691305Y-8195428D01*
X6681781Y-8176381D01*
X6681781Y-8119238D01*
X6691305Y-8100190D01*
X6700828Y-8090667D01*
X6719876Y-8081143D01*
X6748448Y-8081143D01*
X6767495Y-8090667D01*
X6777019Y-8100190D01*
X6786543Y-8119238D01*
X6786543Y-8176381D01*
X6777019Y-8195428D01*
X6767495Y-8204952D01*
X6748448Y-8214476D01*
X6719876Y-8214476D01*
X6900828Y-8214476D02*
X6881781Y-8204952D01*
X6872257Y-8185905D01*
X6872257Y-8014476D01*
X7053209Y-8204952D02*
X7034162Y-8214476D01*
X6996067Y-8214476D01*
X6977019Y-8204952D01*
X6967495Y-8185905D01*
X6967495Y-8109714D01*
X6977019Y-8090667D01*
X6996067Y-8081143D01*
X7034162Y-8081143D01*
X7053209Y-8090667D01*
X7062733Y-8109714D01*
X7062733Y-8128762D01*
X6967495Y-8147809D01*
X7138924Y-8204952D02*
X7157971Y-8214476D01*
X7196067Y-8214476D01*
X7215114Y-8204952D01*
X7224638Y-8185905D01*
X7224638Y-8176381D01*
X7215114Y-8157333D01*
X7196067Y-8147809D01*
X7167495Y-8147809D01*
X7148448Y-8138286D01*
X7138924Y-8119238D01*
X7138924Y-8109714D01*
X7148448Y-8090667D01*
X7167495Y-8081143D01*
X7196067Y-8081143D01*
X7215114Y-8090667D01*
X7291305Y-8290667D02*
X7300828Y-8281143D01*
X7319876Y-8252571D01*
X7329400Y-8233524D01*
X7338924Y-8204952D01*
X7348448Y-8157333D01*
X7348448Y-8119238D01*
X7338924Y-8071619D01*
X7329400Y-8043048D01*
X7319876Y-8024000D01*
X7300828Y-7995428D01*
X7291305Y-7985905D01*
D16*
X2471900Y-8435500D02*
X2519400Y-8388000D01*
X2471900Y-8340500D01*
X2424400Y-8388000D01*
X2471900Y-8435500D01*
D11*
X2815114Y-8278476D02*
X2834162Y-8278476D01*
X2853209Y-8288000D01*
X2862733Y-8297524D01*
X2872257Y-8316571D01*
X2881781Y-8354667D01*
X2881781Y-8402286D01*
X2872257Y-8440381D01*
X2862733Y-8459429D01*
X2853209Y-8468952D01*
X2834162Y-8478476D01*
X2815114Y-8478476D01*
X2796067Y-8468952D01*
X2786543Y-8459429D01*
X2777019Y-8440381D01*
X2767495Y-8402286D01*
X2767495Y-8354667D01*
X2777019Y-8316571D01*
X2786543Y-8297524D01*
X2796067Y-8288000D01*
X2815114Y-8278476D01*
X2967495Y-8459429D02*
X2977019Y-8468952D01*
X2967495Y-8478476D01*
X2957971Y-8468952D01*
X2967495Y-8459429D01*
X2967495Y-8478476D01*
X3072257Y-8478476D02*
X3110352Y-8478476D01*
X3129400Y-8468952D01*
X3138924Y-8459429D01*
X3157971Y-8430857D01*
X3167495Y-8392762D01*
X3167495Y-8316571D01*
X3157971Y-8297524D01*
X3148448Y-8288000D01*
X3129400Y-8278476D01*
X3091305Y-8278476D01*
X3072257Y-8288000D01*
X3062733Y-8297524D01*
X3053209Y-8316571D01*
X3053209Y-8364190D01*
X3062733Y-8383238D01*
X3072257Y-8392762D01*
X3091305Y-8402286D01*
X3129400Y-8402286D01*
X3148448Y-8392762D01*
X3157971Y-8383238D01*
X3167495Y-8364190D01*
X3348448Y-8278476D02*
X3253209Y-8278476D01*
X3243686Y-8373714D01*
X3253209Y-8364190D01*
X3272257Y-8354667D01*
X3319876Y-8354667D01*
X3338924Y-8364190D01*
X3348448Y-8373714D01*
X3357971Y-8392762D01*
X3357971Y-8440381D01*
X3348448Y-8459429D01*
X3338924Y-8468952D01*
X3319876Y-8478476D01*
X3272257Y-8478476D01*
X3253209Y-8468952D01*
X3243686Y-8459429D01*
X3481781Y-8278476D02*
X3500828Y-8278476D01*
X3519876Y-8288000D01*
X3529400Y-8297524D01*
X3538924Y-8316571D01*
X3548448Y-8354667D01*
X3548448Y-8402286D01*
X3538924Y-8440381D01*
X3529400Y-8459429D01*
X3519876Y-8468952D01*
X3500828Y-8478476D01*
X3481781Y-8478476D01*
X3462733Y-8468952D01*
X3453209Y-8459429D01*
X3443686Y-8440381D01*
X3434162Y-8402286D01*
X3434162Y-8354667D01*
X3443686Y-8316571D01*
X3453209Y-8297524D01*
X3462733Y-8288000D01*
X3481781Y-8278476D01*
X3634162Y-8478476D02*
X3634162Y-8345143D01*
X3634162Y-8364190D02*
X3643686Y-8354667D01*
X3662733Y-8345143D01*
X3691305Y-8345143D01*
X3710352Y-8354667D01*
X3719876Y-8373714D01*
X3719876Y-8478476D01*
X3719876Y-8373714D02*
X3729400Y-8354667D01*
X3748448Y-8345143D01*
X3777019Y-8345143D01*
X3796067Y-8354667D01*
X3805590Y-8373714D01*
X3805590Y-8478476D01*
X3900828Y-8478476D02*
X3900828Y-8345143D01*
X3900828Y-8364190D02*
X3910352Y-8354667D01*
X3929400Y-8345143D01*
X3957971Y-8345143D01*
X3977019Y-8354667D01*
X3986543Y-8373714D01*
X3986543Y-8478476D01*
X3986543Y-8373714D02*
X3996067Y-8354667D01*
X4015114Y-8345143D01*
X4043686Y-8345143D01*
X4062733Y-8354667D01*
X4072257Y-8373714D01*
X4072257Y-8478476D01*
X4462733Y-8268952D02*
X4291305Y-8526095D01*
X4719876Y-8278476D02*
X4738924Y-8278476D01*
X4757971Y-8288000D01*
X4767495Y-8297524D01*
X4777019Y-8316571D01*
X4786543Y-8354667D01*
X4786543Y-8402286D01*
X4777019Y-8440381D01*
X4767495Y-8459429D01*
X4757971Y-8468952D01*
X4738924Y-8478476D01*
X4719876Y-8478476D01*
X4700829Y-8468952D01*
X4691305Y-8459429D01*
X4681781Y-8440381D01*
X4672257Y-8402286D01*
X4672257Y-8354667D01*
X4681781Y-8316571D01*
X4691305Y-8297524D01*
X4700829Y-8288000D01*
X4719876Y-8278476D01*
X4872257Y-8459429D02*
X4881781Y-8468952D01*
X4872257Y-8478476D01*
X4862733Y-8468952D01*
X4872257Y-8459429D01*
X4872257Y-8478476D01*
X5005590Y-8278476D02*
X5024638Y-8278476D01*
X5043686Y-8288000D01*
X5053210Y-8297524D01*
X5062733Y-8316571D01*
X5072257Y-8354667D01*
X5072257Y-8402286D01*
X5062733Y-8440381D01*
X5053210Y-8459429D01*
X5043686Y-8468952D01*
X5024638Y-8478476D01*
X5005590Y-8478476D01*
X4986543Y-8468952D01*
X4977019Y-8459429D01*
X4967495Y-8440381D01*
X4957971Y-8402286D01*
X4957971Y-8354667D01*
X4967495Y-8316571D01*
X4977019Y-8297524D01*
X4986543Y-8288000D01*
X5005590Y-8278476D01*
X5138924Y-8278476D02*
X5262733Y-8278476D01*
X5196067Y-8354667D01*
X5224638Y-8354667D01*
X5243686Y-8364190D01*
X5253210Y-8373714D01*
X5262733Y-8392762D01*
X5262733Y-8440381D01*
X5253210Y-8459429D01*
X5243686Y-8468952D01*
X5224638Y-8478476D01*
X5167495Y-8478476D01*
X5148448Y-8468952D01*
X5138924Y-8459429D01*
X5329400Y-8278476D02*
X5462733Y-8278476D01*
X5377019Y-8478476D01*
X5624638Y-8345143D02*
X5624638Y-8478476D01*
X5577019Y-8268952D02*
X5529400Y-8411810D01*
X5653209Y-8411810D01*
X5719876Y-8278476D02*
X5719876Y-8316571D01*
X5796067Y-8278476D02*
X5796067Y-8316571D01*
X6091305Y-8554667D02*
X6081781Y-8545143D01*
X6062733Y-8516571D01*
X6053209Y-8497524D01*
X6043686Y-8468952D01*
X6034162Y-8421333D01*
X6034162Y-8383238D01*
X6043686Y-8335619D01*
X6053209Y-8307048D01*
X6062733Y-8288000D01*
X6081781Y-8259428D01*
X6091305Y-8249905D01*
X6148448Y-8278476D02*
X6272257Y-8278476D01*
X6205590Y-8354667D01*
X6234162Y-8354667D01*
X6253209Y-8364190D01*
X6262733Y-8373714D01*
X6272257Y-8392762D01*
X6272257Y-8440381D01*
X6262733Y-8459429D01*
X6253209Y-8468952D01*
X6234162Y-8478476D01*
X6177019Y-8478476D01*
X6157971Y-8468952D01*
X6148448Y-8459429D01*
X6510352Y-8478476D02*
X6510352Y-8278476D01*
X6596067Y-8478476D02*
X6596067Y-8373714D01*
X6586543Y-8354667D01*
X6567495Y-8345143D01*
X6538924Y-8345143D01*
X6519876Y-8354667D01*
X6510352Y-8364190D01*
X6719876Y-8478476D02*
X6700828Y-8468952D01*
X6691305Y-8459429D01*
X6681781Y-8440381D01*
X6681781Y-8383238D01*
X6691305Y-8364190D01*
X6700828Y-8354667D01*
X6719876Y-8345143D01*
X6748448Y-8345143D01*
X6767495Y-8354667D01*
X6777019Y-8364190D01*
X6786543Y-8383238D01*
X6786543Y-8440381D01*
X6777019Y-8459429D01*
X6767495Y-8468952D01*
X6748448Y-8478476D01*
X6719876Y-8478476D01*
X6900828Y-8478476D02*
X6881781Y-8468952D01*
X6872257Y-8449905D01*
X6872257Y-8278476D01*
X7053209Y-8468952D02*
X7034162Y-8478476D01*
X6996067Y-8478476D01*
X6977019Y-8468952D01*
X6967495Y-8449905D01*
X6967495Y-8373714D01*
X6977019Y-8354667D01*
X6996067Y-8345143D01*
X7034162Y-8345143D01*
X7053209Y-8354667D01*
X7062733Y-8373714D01*
X7062733Y-8392762D01*
X6967495Y-8411810D01*
X7138924Y-8468952D02*
X7157971Y-8478476D01*
X7196067Y-8478476D01*
X7215114Y-8468952D01*
X7224638Y-8449905D01*
X7224638Y-8440381D01*
X7215114Y-8421333D01*
X7196067Y-8411810D01*
X7167495Y-8411810D01*
X7148448Y-8402286D01*
X7138924Y-8383238D01*
X7138924Y-8373714D01*
X7148448Y-8354667D01*
X7167495Y-8345143D01*
X7196067Y-8345143D01*
X7215114Y-8354667D01*
X7291305Y-8554667D02*
X7300828Y-8545143D01*
X7319876Y-8516571D01*
X7329400Y-8497524D01*
X7338924Y-8468952D01*
X7348448Y-8421333D01*
X7348448Y-8383238D01*
X7338924Y-8335619D01*
X7329400Y-8307048D01*
X7319876Y-8288000D01*
X7300828Y-8259428D01*
X7291305Y-8249905D01*
D17*
X2419400Y-8602000D02*
X2519400Y-8702000D01*
X2519400Y-8602000D02*
X2419400Y-8702000D01*
X2519400Y-8652000D02*
G75*
G03*
X2519400Y-8652000I-50000J0D01*
G01*
D11*
X2881781Y-8742476D02*
X2767495Y-8742476D01*
X2824638Y-8742476D02*
X2824638Y-8542476D01*
X2805590Y-8571048D01*
X2786543Y-8590095D01*
X2767495Y-8599619D01*
X2967495Y-8723429D02*
X2977019Y-8732952D01*
X2967495Y-8742476D01*
X2957971Y-8732952D01*
X2967495Y-8723429D01*
X2967495Y-8742476D01*
X3100828Y-8542476D02*
X3119876Y-8542476D01*
X3138924Y-8552000D01*
X3148448Y-8561524D01*
X3157971Y-8580571D01*
X3167495Y-8618667D01*
X3167495Y-8666286D01*
X3157971Y-8704381D01*
X3148448Y-8723429D01*
X3138924Y-8732952D01*
X3119876Y-8742476D01*
X3100828Y-8742476D01*
X3081781Y-8732952D01*
X3072257Y-8723429D01*
X3062733Y-8704381D01*
X3053209Y-8666286D01*
X3053209Y-8618667D01*
X3062733Y-8580571D01*
X3072257Y-8561524D01*
X3081781Y-8552000D01*
X3100828Y-8542476D01*
X3291305Y-8542476D02*
X3310352Y-8542476D01*
X3329400Y-8552000D01*
X3338924Y-8561524D01*
X3348448Y-8580571D01*
X3357971Y-8618667D01*
X3357971Y-8666286D01*
X3348448Y-8704381D01*
X3338924Y-8723429D01*
X3329400Y-8732952D01*
X3310352Y-8742476D01*
X3291305Y-8742476D01*
X3272257Y-8732952D01*
X3262733Y-8723429D01*
X3253209Y-8704381D01*
X3243686Y-8666286D01*
X3243686Y-8618667D01*
X3253209Y-8580571D01*
X3262733Y-8561524D01*
X3272257Y-8552000D01*
X3291305Y-8542476D01*
X3481781Y-8542476D02*
X3500828Y-8542476D01*
X3519876Y-8552000D01*
X3529400Y-8561524D01*
X3538924Y-8580571D01*
X3548448Y-8618667D01*
X3548448Y-8666286D01*
X3538924Y-8704381D01*
X3529400Y-8723429D01*
X3519876Y-8732952D01*
X3500828Y-8742476D01*
X3481781Y-8742476D01*
X3462733Y-8732952D01*
X3453209Y-8723429D01*
X3443686Y-8704381D01*
X3434162Y-8666286D01*
X3434162Y-8618667D01*
X3443686Y-8580571D01*
X3453209Y-8561524D01*
X3462733Y-8552000D01*
X3481781Y-8542476D01*
X3634162Y-8742476D02*
X3634162Y-8609143D01*
X3634162Y-8628190D02*
X3643686Y-8618667D01*
X3662733Y-8609143D01*
X3691305Y-8609143D01*
X3710352Y-8618667D01*
X3719876Y-8637714D01*
X3719876Y-8742476D01*
X3719876Y-8637714D02*
X3729400Y-8618667D01*
X3748448Y-8609143D01*
X3777019Y-8609143D01*
X3796067Y-8618667D01*
X3805590Y-8637714D01*
X3805590Y-8742476D01*
X3900828Y-8742476D02*
X3900828Y-8609143D01*
X3900828Y-8628190D02*
X3910352Y-8618667D01*
X3929400Y-8609143D01*
X3957971Y-8609143D01*
X3977019Y-8618667D01*
X3986543Y-8637714D01*
X3986543Y-8742476D01*
X3986543Y-8637714D02*
X3996067Y-8618667D01*
X4015114Y-8609143D01*
X4043686Y-8609143D01*
X4062733Y-8618667D01*
X4072257Y-8637714D01*
X4072257Y-8742476D01*
X4462733Y-8532952D02*
X4291305Y-8790095D01*
X4719876Y-8542476D02*
X4738924Y-8542476D01*
X4757971Y-8552000D01*
X4767495Y-8561524D01*
X4777019Y-8580571D01*
X4786543Y-8618667D01*
X4786543Y-8666286D01*
X4777019Y-8704381D01*
X4767495Y-8723429D01*
X4757971Y-8732952D01*
X4738924Y-8742476D01*
X4719876Y-8742476D01*
X4700829Y-8732952D01*
X4691305Y-8723429D01*
X4681781Y-8704381D01*
X4672257Y-8666286D01*
X4672257Y-8618667D01*
X4681781Y-8580571D01*
X4691305Y-8561524D01*
X4700829Y-8552000D01*
X4719876Y-8542476D01*
X4872257Y-8723429D02*
X4881781Y-8732952D01*
X4872257Y-8742476D01*
X4862733Y-8732952D01*
X4872257Y-8723429D01*
X4872257Y-8742476D01*
X5005590Y-8542476D02*
X5024638Y-8542476D01*
X5043686Y-8552000D01*
X5053210Y-8561524D01*
X5062733Y-8580571D01*
X5072257Y-8618667D01*
X5072257Y-8666286D01*
X5062733Y-8704381D01*
X5053210Y-8723429D01*
X5043686Y-8732952D01*
X5024638Y-8742476D01*
X5005590Y-8742476D01*
X4986543Y-8732952D01*
X4977019Y-8723429D01*
X4967495Y-8704381D01*
X4957971Y-8666286D01*
X4957971Y-8618667D01*
X4967495Y-8580571D01*
X4977019Y-8561524D01*
X4986543Y-8552000D01*
X5005590Y-8542476D01*
X5138924Y-8542476D02*
X5262733Y-8542476D01*
X5196067Y-8618667D01*
X5224638Y-8618667D01*
X5243686Y-8628190D01*
X5253210Y-8637714D01*
X5262733Y-8656762D01*
X5262733Y-8704381D01*
X5253210Y-8723429D01*
X5243686Y-8732952D01*
X5224638Y-8742476D01*
X5167495Y-8742476D01*
X5148448Y-8732952D01*
X5138924Y-8723429D01*
X5357971Y-8742476D02*
X5396067Y-8742476D01*
X5415114Y-8732952D01*
X5424638Y-8723429D01*
X5443686Y-8694857D01*
X5453210Y-8656762D01*
X5453210Y-8580571D01*
X5443686Y-8561524D01*
X5434162Y-8552000D01*
X5415114Y-8542476D01*
X5377019Y-8542476D01*
X5357971Y-8552000D01*
X5348448Y-8561524D01*
X5338924Y-8580571D01*
X5338924Y-8628190D01*
X5348448Y-8647238D01*
X5357971Y-8656762D01*
X5377019Y-8666286D01*
X5415114Y-8666286D01*
X5434162Y-8656762D01*
X5443686Y-8647238D01*
X5453210Y-8628190D01*
X5624638Y-8609143D02*
X5624638Y-8742476D01*
X5577019Y-8532952D02*
X5529400Y-8675810D01*
X5653209Y-8675810D01*
X5719876Y-8542476D02*
X5719876Y-8580571D01*
X5796067Y-8542476D02*
X5796067Y-8580571D01*
X6091305Y-8818667D02*
X6081781Y-8809143D01*
X6062733Y-8780571D01*
X6053209Y-8761524D01*
X6043686Y-8732952D01*
X6034162Y-8685333D01*
X6034162Y-8647238D01*
X6043686Y-8599619D01*
X6053209Y-8571048D01*
X6062733Y-8552000D01*
X6081781Y-8523429D01*
X6091305Y-8513905D01*
X6177019Y-8742476D02*
X6215114Y-8742476D01*
X6234162Y-8732952D01*
X6243686Y-8723429D01*
X6262733Y-8694857D01*
X6272257Y-8656762D01*
X6272257Y-8580571D01*
X6262733Y-8561524D01*
X6253209Y-8552000D01*
X6234162Y-8542476D01*
X6196067Y-8542476D01*
X6177019Y-8552000D01*
X6167495Y-8561524D01*
X6157971Y-8580571D01*
X6157971Y-8628190D01*
X6167495Y-8647238D01*
X6177019Y-8656762D01*
X6196067Y-8666286D01*
X6234162Y-8666286D01*
X6253209Y-8656762D01*
X6262733Y-8647238D01*
X6272257Y-8628190D01*
X6510352Y-8742476D02*
X6510352Y-8542476D01*
X6596067Y-8742476D02*
X6596067Y-8637714D01*
X6586543Y-8618667D01*
X6567495Y-8609143D01*
X6538924Y-8609143D01*
X6519876Y-8618667D01*
X6510352Y-8628190D01*
X6719876Y-8742476D02*
X6700828Y-8732952D01*
X6691305Y-8723429D01*
X6681781Y-8704381D01*
X6681781Y-8647238D01*
X6691305Y-8628190D01*
X6700828Y-8618667D01*
X6719876Y-8609143D01*
X6748448Y-8609143D01*
X6767495Y-8618667D01*
X6777019Y-8628190D01*
X6786543Y-8647238D01*
X6786543Y-8704381D01*
X6777019Y-8723429D01*
X6767495Y-8732952D01*
X6748448Y-8742476D01*
X6719876Y-8742476D01*
X6900828Y-8742476D02*
X6881781Y-8732952D01*
X6872257Y-8713905D01*
X6872257Y-8542476D01*
X7053209Y-8732952D02*
X7034162Y-8742476D01*
X6996067Y-8742476D01*
X6977019Y-8732952D01*
X6967495Y-8713905D01*
X6967495Y-8637714D01*
X6977019Y-8618667D01*
X6996067Y-8609143D01*
X7034162Y-8609143D01*
X7053209Y-8618667D01*
X7062733Y-8637714D01*
X7062733Y-8656762D01*
X6967495Y-8675810D01*
X7138924Y-8732952D02*
X7157971Y-8742476D01*
X7196067Y-8742476D01*
X7215114Y-8732952D01*
X7224638Y-8713905D01*
X7224638Y-8704381D01*
X7215114Y-8685333D01*
X7196067Y-8675810D01*
X7167495Y-8675810D01*
X7148448Y-8666286D01*
X7138924Y-8647238D01*
X7138924Y-8637714D01*
X7148448Y-8618667D01*
X7167495Y-8609143D01*
X7196067Y-8609143D01*
X7215114Y-8618667D01*
X7291305Y-8818667D02*
X7300828Y-8809143D01*
X7319876Y-8780571D01*
X7329400Y-8761524D01*
X7338924Y-8732952D01*
X7348448Y-8685333D01*
X7348448Y-8647238D01*
X7338924Y-8599619D01*
X7329400Y-8571048D01*
X7319876Y-8552000D01*
X7300828Y-8523429D01*
X7291305Y-8513905D01*
D18*
X2400400Y-8856500D02*
X2519400Y-8975500D01*
X2519400Y-8856500D02*
X2400400Y-8975500D01*
X2459900Y-8856500D02*
X2459900Y-8975500D01*
X2400400Y-8916000D02*
X2519400Y-8916000D01*
D11*
X2881781Y-9006476D02*
X2767495Y-9006476D01*
X2824638Y-9006476D02*
X2824638Y-8806476D01*
X2805590Y-8835048D01*
X2786543Y-8854095D01*
X2767495Y-8863619D01*
X2967495Y-8987429D02*
X2977019Y-8996952D01*
X2967495Y-9006476D01*
X2957971Y-8996952D01*
X2967495Y-8987429D01*
X2967495Y-9006476D01*
X3167495Y-9006476D02*
X3053209Y-9006476D01*
X3110352Y-9006476D02*
X3110352Y-8806476D01*
X3091305Y-8835048D01*
X3072257Y-8854095D01*
X3053209Y-8863619D01*
X3262733Y-9006476D02*
X3300828Y-9006476D01*
X3319876Y-8996952D01*
X3329400Y-8987429D01*
X3348448Y-8958857D01*
X3357971Y-8920762D01*
X3357971Y-8844571D01*
X3348448Y-8825524D01*
X3338924Y-8816000D01*
X3319876Y-8806476D01*
X3281781Y-8806476D01*
X3262733Y-8816000D01*
X3253209Y-8825524D01*
X3243686Y-8844571D01*
X3243686Y-8892190D01*
X3253209Y-8911238D01*
X3262733Y-8920762D01*
X3281781Y-8930286D01*
X3319876Y-8930286D01*
X3338924Y-8920762D01*
X3348448Y-8911238D01*
X3357971Y-8892190D01*
X3481781Y-8806476D02*
X3500828Y-8806476D01*
X3519876Y-8816000D01*
X3529400Y-8825524D01*
X3538924Y-8844571D01*
X3548448Y-8882667D01*
X3548448Y-8930286D01*
X3538924Y-8968381D01*
X3529400Y-8987429D01*
X3519876Y-8996952D01*
X3500828Y-9006476D01*
X3481781Y-9006476D01*
X3462733Y-8996952D01*
X3453209Y-8987429D01*
X3443686Y-8968381D01*
X3434162Y-8930286D01*
X3434162Y-8882667D01*
X3443686Y-8844571D01*
X3453209Y-8825524D01*
X3462733Y-8816000D01*
X3481781Y-8806476D01*
X3634162Y-9006476D02*
X3634162Y-8873143D01*
X3634162Y-8892190D02*
X3643686Y-8882667D01*
X3662733Y-8873143D01*
X3691305Y-8873143D01*
X3710352Y-8882667D01*
X3719876Y-8901714D01*
X3719876Y-9006476D01*
X3719876Y-8901714D02*
X3729400Y-8882667D01*
X3748448Y-8873143D01*
X3777019Y-8873143D01*
X3796067Y-8882667D01*
X3805590Y-8901714D01*
X3805590Y-9006476D01*
X3900828Y-9006476D02*
X3900828Y-8873143D01*
X3900828Y-8892190D02*
X3910352Y-8882667D01*
X3929400Y-8873143D01*
X3957971Y-8873143D01*
X3977019Y-8882667D01*
X3986543Y-8901714D01*
X3986543Y-9006476D01*
X3986543Y-8901714D02*
X3996067Y-8882667D01*
X4015114Y-8873143D01*
X4043686Y-8873143D01*
X4062733Y-8882667D01*
X4072257Y-8901714D01*
X4072257Y-9006476D01*
X4462733Y-8796952D02*
X4291305Y-9054095D01*
X4719876Y-8806476D02*
X4738924Y-8806476D01*
X4757971Y-8816000D01*
X4767495Y-8825524D01*
X4777019Y-8844571D01*
X4786543Y-8882667D01*
X4786543Y-8930286D01*
X4777019Y-8968381D01*
X4767495Y-8987429D01*
X4757971Y-8996952D01*
X4738924Y-9006476D01*
X4719876Y-9006476D01*
X4700829Y-8996952D01*
X4691305Y-8987429D01*
X4681781Y-8968381D01*
X4672257Y-8930286D01*
X4672257Y-8882667D01*
X4681781Y-8844571D01*
X4691305Y-8825524D01*
X4700829Y-8816000D01*
X4719876Y-8806476D01*
X4872257Y-8987429D02*
X4881781Y-8996952D01*
X4872257Y-9006476D01*
X4862733Y-8996952D01*
X4872257Y-8987429D01*
X4872257Y-9006476D01*
X5005590Y-8806476D02*
X5024638Y-8806476D01*
X5043686Y-8816000D01*
X5053210Y-8825524D01*
X5062733Y-8844571D01*
X5072257Y-8882667D01*
X5072257Y-8930286D01*
X5062733Y-8968381D01*
X5053210Y-8987429D01*
X5043686Y-8996952D01*
X5024638Y-9006476D01*
X5005590Y-9006476D01*
X4986543Y-8996952D01*
X4977019Y-8987429D01*
X4967495Y-8968381D01*
X4957971Y-8930286D01*
X4957971Y-8882667D01*
X4967495Y-8844571D01*
X4977019Y-8825524D01*
X4986543Y-8816000D01*
X5005590Y-8806476D01*
X5243686Y-8873143D02*
X5243686Y-9006476D01*
X5196067Y-8796952D02*
X5148448Y-8939810D01*
X5272257Y-8939810D01*
X5434162Y-8806476D02*
X5396067Y-8806476D01*
X5377019Y-8816000D01*
X5367495Y-8825524D01*
X5348448Y-8854095D01*
X5338924Y-8892190D01*
X5338924Y-8968381D01*
X5348448Y-8987429D01*
X5357971Y-8996952D01*
X5377019Y-9006476D01*
X5415114Y-9006476D01*
X5434162Y-8996952D01*
X5443686Y-8987429D01*
X5453210Y-8968381D01*
X5453210Y-8920762D01*
X5443686Y-8901714D01*
X5434162Y-8892190D01*
X5415114Y-8882667D01*
X5377019Y-8882667D01*
X5357971Y-8892190D01*
X5348448Y-8901714D01*
X5338924Y-8920762D01*
X5548448Y-9006476D02*
X5586543Y-9006476D01*
X5605590Y-8996952D01*
X5615114Y-8987429D01*
X5634162Y-8958857D01*
X5643686Y-8920762D01*
X5643686Y-8844571D01*
X5634162Y-8825524D01*
X5624638Y-8816000D01*
X5605590Y-8806476D01*
X5567495Y-8806476D01*
X5548448Y-8816000D01*
X5538924Y-8825524D01*
X5529400Y-8844571D01*
X5529400Y-8892190D01*
X5538924Y-8911238D01*
X5548448Y-8920762D01*
X5567495Y-8930286D01*
X5605590Y-8930286D01*
X5624638Y-8920762D01*
X5634162Y-8911238D01*
X5643686Y-8892190D01*
X5719876Y-8806476D02*
X5719876Y-8844571D01*
X5796067Y-8806476D02*
X5796067Y-8844571D01*
X6091305Y-9082667D02*
X6081781Y-9073143D01*
X6062733Y-9044571D01*
X6053209Y-9025524D01*
X6043686Y-8996952D01*
X6034162Y-8949333D01*
X6034162Y-8911238D01*
X6043686Y-8863619D01*
X6053209Y-8835048D01*
X6062733Y-8816000D01*
X6081781Y-8787429D01*
X6091305Y-8777905D01*
X6253209Y-8806476D02*
X6215114Y-8806476D01*
X6196067Y-8816000D01*
X6186543Y-8825524D01*
X6167495Y-8854095D01*
X6157971Y-8892190D01*
X6157971Y-8968381D01*
X6167495Y-8987429D01*
X6177019Y-8996952D01*
X6196067Y-9006476D01*
X6234162Y-9006476D01*
X6253209Y-8996952D01*
X6262733Y-8987429D01*
X6272257Y-8968381D01*
X6272257Y-8920762D01*
X6262733Y-8901714D01*
X6253209Y-8892190D01*
X6234162Y-8882667D01*
X6196067Y-8882667D01*
X6177019Y-8892190D01*
X6167495Y-8901714D01*
X6157971Y-8920762D01*
X6510352Y-9006476D02*
X6510352Y-8806476D01*
X6596067Y-9006476D02*
X6596067Y-8901714D01*
X6586543Y-8882667D01*
X6567495Y-8873143D01*
X6538924Y-8873143D01*
X6519876Y-8882667D01*
X6510352Y-8892190D01*
X6719876Y-9006476D02*
X6700828Y-8996952D01*
X6691305Y-8987429D01*
X6681781Y-8968381D01*
X6681781Y-8911238D01*
X6691305Y-8892190D01*
X6700828Y-8882667D01*
X6719876Y-8873143D01*
X6748448Y-8873143D01*
X6767495Y-8882667D01*
X6777019Y-8892190D01*
X6786543Y-8911238D01*
X6786543Y-8968381D01*
X6777019Y-8987429D01*
X6767495Y-8996952D01*
X6748448Y-9006476D01*
X6719876Y-9006476D01*
X6900828Y-9006476D02*
X6881781Y-8996952D01*
X6872257Y-8977905D01*
X6872257Y-8806476D01*
X7053209Y-8996952D02*
X7034162Y-9006476D01*
X6996067Y-9006476D01*
X6977019Y-8996952D01*
X6967495Y-8977905D01*
X6967495Y-8901714D01*
X6977019Y-8882667D01*
X6996067Y-8873143D01*
X7034162Y-8873143D01*
X7053209Y-8882667D01*
X7062733Y-8901714D01*
X7062733Y-8920762D01*
X6967495Y-8939810D01*
X7138924Y-8996952D02*
X7157971Y-9006476D01*
X7196067Y-9006476D01*
X7215114Y-8996952D01*
X7224638Y-8977905D01*
X7224638Y-8968381D01*
X7215114Y-8949333D01*
X7196067Y-8939810D01*
X7167495Y-8939810D01*
X7148448Y-8930286D01*
X7138924Y-8911238D01*
X7138924Y-8901714D01*
X7148448Y-8882667D01*
X7167495Y-8873143D01*
X7196067Y-8873143D01*
X7215114Y-8882667D01*
X7291305Y-9082667D02*
X7300828Y-9073143D01*
X7319876Y-9044571D01*
X7329400Y-9025524D01*
X7338924Y-8996952D01*
X7348448Y-8949333D01*
X7348448Y-8911238D01*
X7338924Y-8863619D01*
X7329400Y-8835048D01*
X7319876Y-8816000D01*
X7300828Y-8787429D01*
X7291305Y-8777905D01*
D19*
X2389400Y-9115000D02*
X2519400Y-9245000D01*
X2519400Y-9115000D02*
X2389400Y-9245000D01*
X2500362Y-9225962D02*
X2500362Y-9134038D01*
X2408438Y-9134038D01*
X2408438Y-9225962D01*
X2500362Y-9225962D01*
D11*
X2881781Y-9270476D02*
X2767495Y-9270476D01*
X2824638Y-9270476D02*
X2824638Y-9070476D01*
X2805590Y-9099048D01*
X2786543Y-9118095D01*
X2767495Y-9127619D01*
X2967495Y-9251429D02*
X2977019Y-9260952D01*
X2967495Y-9270476D01*
X2957971Y-9260952D01*
X2967495Y-9251429D01*
X2967495Y-9270476D01*
X3043686Y-9070476D02*
X3167495Y-9070476D01*
X3100828Y-9146667D01*
X3129400Y-9146667D01*
X3148448Y-9156190D01*
X3157971Y-9165714D01*
X3167495Y-9184762D01*
X3167495Y-9232381D01*
X3157971Y-9251429D01*
X3148448Y-9260952D01*
X3129400Y-9270476D01*
X3072257Y-9270476D01*
X3053209Y-9260952D01*
X3043686Y-9251429D01*
X3291305Y-9070476D02*
X3310352Y-9070476D01*
X3329400Y-9080000D01*
X3338924Y-9089524D01*
X3348448Y-9108571D01*
X3357971Y-9146667D01*
X3357971Y-9194286D01*
X3348448Y-9232381D01*
X3338924Y-9251429D01*
X3329400Y-9260952D01*
X3310352Y-9270476D01*
X3291305Y-9270476D01*
X3272257Y-9260952D01*
X3262733Y-9251429D01*
X3253209Y-9232381D01*
X3243686Y-9194286D01*
X3243686Y-9146667D01*
X3253209Y-9108571D01*
X3262733Y-9089524D01*
X3272257Y-9080000D01*
X3291305Y-9070476D01*
X3481781Y-9070476D02*
X3500828Y-9070476D01*
X3519876Y-9080000D01*
X3529400Y-9089524D01*
X3538924Y-9108571D01*
X3548448Y-9146667D01*
X3548448Y-9194286D01*
X3538924Y-9232381D01*
X3529400Y-9251429D01*
X3519876Y-9260952D01*
X3500828Y-9270476D01*
X3481781Y-9270476D01*
X3462733Y-9260952D01*
X3453209Y-9251429D01*
X3443686Y-9232381D01*
X3434162Y-9194286D01*
X3434162Y-9146667D01*
X3443686Y-9108571D01*
X3453209Y-9089524D01*
X3462733Y-9080000D01*
X3481781Y-9070476D01*
X3634162Y-9270476D02*
X3634162Y-9137143D01*
X3634162Y-9156190D02*
X3643686Y-9146667D01*
X3662733Y-9137143D01*
X3691305Y-9137143D01*
X3710352Y-9146667D01*
X3719876Y-9165714D01*
X3719876Y-9270476D01*
X3719876Y-9165714D02*
X3729400Y-9146667D01*
X3748448Y-9137143D01*
X3777019Y-9137143D01*
X3796067Y-9146667D01*
X3805590Y-9165714D01*
X3805590Y-9270476D01*
X3900828Y-9270476D02*
X3900828Y-9137143D01*
X3900828Y-9156190D02*
X3910352Y-9146667D01*
X3929400Y-9137143D01*
X3957971Y-9137143D01*
X3977019Y-9146667D01*
X3986543Y-9165714D01*
X3986543Y-9270476D01*
X3986543Y-9165714D02*
X3996067Y-9146667D01*
X4015114Y-9137143D01*
X4043686Y-9137143D01*
X4062733Y-9146667D01*
X4072257Y-9165714D01*
X4072257Y-9270476D01*
X4462733Y-9060952D02*
X4291305Y-9318095D01*
X4719876Y-9070476D02*
X4738924Y-9070476D01*
X4757971Y-9080000D01*
X4767495Y-9089524D01*
X4777019Y-9108571D01*
X4786543Y-9146667D01*
X4786543Y-9194286D01*
X4777019Y-9232381D01*
X4767495Y-9251429D01*
X4757971Y-9260952D01*
X4738924Y-9270476D01*
X4719876Y-9270476D01*
X4700829Y-9260952D01*
X4691305Y-9251429D01*
X4681781Y-9232381D01*
X4672257Y-9194286D01*
X4672257Y-9146667D01*
X4681781Y-9108571D01*
X4691305Y-9089524D01*
X4700829Y-9080000D01*
X4719876Y-9070476D01*
X4872257Y-9251429D02*
X4881781Y-9260952D01*
X4872257Y-9270476D01*
X4862733Y-9260952D01*
X4872257Y-9251429D01*
X4872257Y-9270476D01*
X5005590Y-9070476D02*
X5024638Y-9070476D01*
X5043686Y-9080000D01*
X5053210Y-9089524D01*
X5062733Y-9108571D01*
X5072257Y-9146667D01*
X5072257Y-9194286D01*
X5062733Y-9232381D01*
X5053210Y-9251429D01*
X5043686Y-9260952D01*
X5024638Y-9270476D01*
X5005590Y-9270476D01*
X4986543Y-9260952D01*
X4977019Y-9251429D01*
X4967495Y-9232381D01*
X4957971Y-9194286D01*
X4957971Y-9146667D01*
X4967495Y-9108571D01*
X4977019Y-9089524D01*
X4986543Y-9080000D01*
X5005590Y-9070476D01*
X5253210Y-9070476D02*
X5157971Y-9070476D01*
X5148448Y-9165714D01*
X5157971Y-9156190D01*
X5177019Y-9146667D01*
X5224638Y-9146667D01*
X5243686Y-9156190D01*
X5253210Y-9165714D01*
X5262733Y-9184762D01*
X5262733Y-9232381D01*
X5253210Y-9251429D01*
X5243686Y-9260952D01*
X5224638Y-9270476D01*
X5177019Y-9270476D01*
X5157971Y-9260952D01*
X5148448Y-9251429D01*
X5453210Y-9270476D02*
X5338924Y-9270476D01*
X5396067Y-9270476D02*
X5396067Y-9070476D01*
X5377019Y-9099048D01*
X5357971Y-9118095D01*
X5338924Y-9127619D01*
X5529400Y-9089524D02*
X5538924Y-9080000D01*
X5557971Y-9070476D01*
X5605590Y-9070476D01*
X5624638Y-9080000D01*
X5634162Y-9089524D01*
X5643686Y-9108571D01*
X5643686Y-9127619D01*
X5634162Y-9156190D01*
X5519876Y-9270476D01*
X5643686Y-9270476D01*
X5719876Y-9070476D02*
X5719876Y-9108571D01*
X5796067Y-9070476D02*
X5796067Y-9108571D01*
X6091305Y-9346667D02*
X6081781Y-9337143D01*
X6062733Y-9308571D01*
X6053209Y-9289524D01*
X6043686Y-9260952D01*
X6034162Y-9213333D01*
X6034162Y-9175238D01*
X6043686Y-9127619D01*
X6053209Y-9099048D01*
X6062733Y-9080000D01*
X6081781Y-9051429D01*
X6091305Y-9041905D01*
X6148448Y-9070476D02*
X6272257Y-9070476D01*
X6205590Y-9146667D01*
X6234162Y-9146667D01*
X6253209Y-9156190D01*
X6262733Y-9165714D01*
X6272257Y-9184762D01*
X6272257Y-9232381D01*
X6262733Y-9251429D01*
X6253209Y-9260952D01*
X6234162Y-9270476D01*
X6177019Y-9270476D01*
X6157971Y-9260952D01*
X6148448Y-9251429D01*
X6510352Y-9270476D02*
X6510352Y-9070476D01*
X6596067Y-9270476D02*
X6596067Y-9165714D01*
X6586543Y-9146667D01*
X6567495Y-9137143D01*
X6538924Y-9137143D01*
X6519876Y-9146667D01*
X6510352Y-9156190D01*
X6719876Y-9270476D02*
X6700828Y-9260952D01*
X6691305Y-9251429D01*
X6681781Y-9232381D01*
X6681781Y-9175238D01*
X6691305Y-9156190D01*
X6700828Y-9146667D01*
X6719876Y-9137143D01*
X6748448Y-9137143D01*
X6767495Y-9146667D01*
X6777019Y-9156190D01*
X6786543Y-9175238D01*
X6786543Y-9232381D01*
X6777019Y-9251429D01*
X6767495Y-9260952D01*
X6748448Y-9270476D01*
X6719876Y-9270476D01*
X6900828Y-9270476D02*
X6881781Y-9260952D01*
X6872257Y-9241905D01*
X6872257Y-9070476D01*
X7053209Y-9260952D02*
X7034162Y-9270476D01*
X6996067Y-9270476D01*
X6977019Y-9260952D01*
X6967495Y-9241905D01*
X6967495Y-9165714D01*
X6977019Y-9146667D01*
X6996067Y-9137143D01*
X7034162Y-9137143D01*
X7053209Y-9146667D01*
X7062733Y-9165714D01*
X7062733Y-9184762D01*
X6967495Y-9203810D01*
X7138924Y-9260952D02*
X7157971Y-9270476D01*
X7196067Y-9270476D01*
X7215114Y-9260952D01*
X7224638Y-9241905D01*
X7224638Y-9232381D01*
X7215114Y-9213333D01*
X7196067Y-9203810D01*
X7167495Y-9203810D01*
X7148448Y-9194286D01*
X7138924Y-9175238D01*
X7138924Y-9165714D01*
X7148448Y-9146667D01*
X7167495Y-9137143D01*
X7196067Y-9137143D01*
X7215114Y-9146667D01*
X7291305Y-9346667D02*
X7300828Y-9337143D01*
X7319876Y-9308571D01*
X7329400Y-9289524D01*
X7338924Y-9260952D01*
X7348448Y-9213333D01*
X7348448Y-9175238D01*
X7338924Y-9127619D01*
X7329400Y-9099048D01*
X7319876Y-9080000D01*
X7300828Y-9051429D01*
X7291305Y-9041905D01*
M02*
