G04 #@! TF.GenerationSoftware,KiCad,Pcbnew,(6.0.0)*
G04 #@! TF.CreationDate,2022-02-13T20:01:41+01:00*
G04 #@! TF.ProjectId,VolumeControl,566f6c75-6d65-4436-9f6e-74726f6c2e6b,rev?*
G04 #@! TF.SameCoordinates,Original*
G04 #@! TF.FileFunction,Legend,Bot*
G04 #@! TF.FilePolarity,Positive*
%FSLAX46Y46*%
G04 Gerber Fmt 4.6, Leading zero omitted, Abs format (unit mm)*
G04 Created by KiCad (PCBNEW (6.0.0)) date 2022-02-13 20:01:41*
%MOMM*%
%LPD*%
G01*
G04 APERTURE LIST*
G04 Aperture macros list*
%AMRoundRect*
0 Rectangle with rounded corners*
0 $1 Rounding radius*
0 $2 $3 $4 $5 $6 $7 $8 $9 X,Y pos of 4 corners*
0 Add a 4 corners polygon primitive as box body*
4,1,4,$2,$3,$4,$5,$6,$7,$8,$9,$2,$3,0*
0 Add four circle primitives for the rounded corners*
1,1,$1+$1,$2,$3*
1,1,$1+$1,$4,$5*
1,1,$1+$1,$6,$7*
1,1,$1+$1,$8,$9*
0 Add four rect primitives between the rounded corners*
20,1,$1+$1,$2,$3,$4,$5,0*
20,1,$1+$1,$4,$5,$6,$7,0*
20,1,$1+$1,$6,$7,$8,$9,0*
20,1,$1+$1,$8,$9,$2,$3,0*%
G04 Aperture macros list end*
%ADD10C,0.150000*%
%ADD11O,1.600000X1.600000*%
%ADD12R,1.600000X1.600000*%
%ADD13C,1.400000*%
%ADD14C,1.600000*%
%ADD15R,1.700000X1.700000*%
%ADD16O,1.700000X1.700000*%
%ADD17RoundRect,0.250000X-0.725000X0.600000X-0.725000X-0.600000X0.725000X-0.600000X0.725000X0.600000X0*%
%ADD18O,1.950000X1.700000*%
%ADD19RoundRect,0.250000X-0.845000X0.620000X-0.845000X-0.620000X0.845000X-0.620000X0.845000X0.620000X0*%
%ADD20O,2.190000X1.740000*%
%ADD21C,3.200000*%
%ADD22R,1.850000X1.850000*%
%ADD23C,1.850000*%
%ADD24R,2.600000X2.600000*%
%ADD25C,2.600000*%
G04 APERTURE END LIST*
D10*
X50956595Y-42827380D02*
X51528023Y-42827380D01*
X51242309Y-42827380D02*
X51242309Y-41827380D01*
X51337547Y-41970238D01*
X51432785Y-42065476D01*
X51528023Y-42113095D01*
X50337547Y-41827380D02*
X50242309Y-41827380D01*
X50147071Y-41875000D01*
X50099452Y-41922619D01*
X50051833Y-42017857D01*
X50004214Y-42208333D01*
X50004214Y-42446428D01*
X50051833Y-42636904D01*
X50099452Y-42732142D01*
X50147071Y-42779761D01*
X50242309Y-42827380D01*
X50337547Y-42827380D01*
X50432785Y-42779761D01*
X50480404Y-42732142D01*
X50528023Y-42636904D01*
X50575642Y-42446428D01*
X50575642Y-42208333D01*
X50528023Y-42017857D01*
X50480404Y-41922619D01*
X50432785Y-41875000D01*
X50337547Y-41827380D01*
X49147071Y-42160714D02*
X49147071Y-42827380D01*
X49575642Y-42160714D02*
X49575642Y-42684523D01*
X49528023Y-42779761D01*
X49432785Y-42827380D01*
X49289928Y-42827380D01*
X49194690Y-42779761D01*
X49147071Y-42732142D01*
X48337547Y-42303571D02*
X48670880Y-42303571D01*
X48670880Y-42827380D02*
X48670880Y-41827380D01*
X48194690Y-41827380D01*
X46575642Y-41827380D02*
X47051833Y-41827380D01*
X47099452Y-42303571D01*
X47051833Y-42255952D01*
X46956595Y-42208333D01*
X46718500Y-42208333D01*
X46623261Y-42255952D01*
X46575642Y-42303571D01*
X46528023Y-42398809D01*
X46528023Y-42636904D01*
X46575642Y-42732142D01*
X46623261Y-42779761D01*
X46718500Y-42827380D01*
X46956595Y-42827380D01*
X47051833Y-42779761D01*
X47099452Y-42732142D01*
X45908976Y-41827380D02*
X45813738Y-41827380D01*
X45718500Y-41875000D01*
X45670880Y-41922619D01*
X45623261Y-42017857D01*
X45575642Y-42208333D01*
X45575642Y-42446428D01*
X45623261Y-42636904D01*
X45670880Y-42732142D01*
X45718500Y-42779761D01*
X45813738Y-42827380D01*
X45908976Y-42827380D01*
X46004214Y-42779761D01*
X46051833Y-42732142D01*
X46099452Y-42636904D01*
X46147071Y-42446428D01*
X46147071Y-42208333D01*
X46099452Y-42017857D01*
X46051833Y-41922619D01*
X46004214Y-41875000D01*
X45908976Y-41827380D01*
X45289928Y-41827380D02*
X44956595Y-42827380D01*
X44623261Y-41827380D01*
X44289928Y-42732142D02*
X44242309Y-42779761D01*
X44289928Y-42827380D01*
X44337547Y-42779761D01*
X44289928Y-42732142D01*
X44289928Y-42827380D01*
X44289928Y-42208333D02*
X44242309Y-42255952D01*
X44289928Y-42303571D01*
X44337547Y-42255952D01*
X44289928Y-42208333D01*
X44289928Y-42303571D01*
X42480404Y-42732142D02*
X42528023Y-42779761D01*
X42670880Y-42827380D01*
X42766119Y-42827380D01*
X42908976Y-42779761D01*
X43004214Y-42684523D01*
X43051833Y-42589285D01*
X43099452Y-42398809D01*
X43099452Y-42255952D01*
X43051833Y-42065476D01*
X43004214Y-41970238D01*
X42908976Y-41875000D01*
X42766119Y-41827380D01*
X42670880Y-41827380D01*
X42528023Y-41875000D01*
X42480404Y-41922619D01*
X41528023Y-42827380D02*
X42099452Y-42827380D01*
X41813738Y-42827380D02*
X41813738Y-41827380D01*
X41908976Y-41970238D01*
X42004214Y-42065476D01*
X42099452Y-42113095D01*
X41051833Y-42779761D02*
X41051833Y-42827380D01*
X41099452Y-42922619D01*
X41147071Y-42970238D01*
X40670880Y-41922619D02*
X40623261Y-41875000D01*
X40528023Y-41827380D01*
X40289928Y-41827380D01*
X40194690Y-41875000D01*
X40147071Y-41922619D01*
X40099452Y-42017857D01*
X40099452Y-42113095D01*
X40147071Y-42255952D01*
X40718500Y-42827380D01*
X40099452Y-42827380D01*
X39623261Y-42779761D02*
X39623261Y-42827380D01*
X39670880Y-42922619D01*
X39718500Y-42970238D01*
X38718500Y-41827380D02*
X39194690Y-41827380D01*
X39242309Y-42303571D01*
X39194690Y-42255952D01*
X39099452Y-42208333D01*
X38861357Y-42208333D01*
X38766119Y-42255952D01*
X38718500Y-42303571D01*
X38670880Y-42398809D01*
X38670880Y-42636904D01*
X38718500Y-42732142D01*
X38766119Y-42779761D01*
X38861357Y-42827380D01*
X39099452Y-42827380D01*
X39194690Y-42779761D01*
X39242309Y-42732142D01*
X38194690Y-42779761D02*
X38194690Y-42827380D01*
X38242309Y-42922619D01*
X38289928Y-42970238D01*
X37337547Y-41827380D02*
X37528023Y-41827380D01*
X37623261Y-41875000D01*
X37670880Y-41922619D01*
X37766119Y-42065476D01*
X37813738Y-42255952D01*
X37813738Y-42636904D01*
X37766119Y-42732142D01*
X37718500Y-42779761D01*
X37623261Y-42827380D01*
X37432785Y-42827380D01*
X37337547Y-42779761D01*
X37289928Y-42732142D01*
X37242309Y-42636904D01*
X37242309Y-42398809D01*
X37289928Y-42303571D01*
X37337547Y-42255952D01*
X37432785Y-42208333D01*
X37623261Y-42208333D01*
X37718500Y-42255952D01*
X37766119Y-42303571D01*
X37813738Y-42398809D01*
X36766119Y-42779761D02*
X36766119Y-42827380D01*
X36813738Y-42922619D01*
X36861357Y-42970238D01*
X35813738Y-42827380D02*
X36385166Y-42827380D01*
X36099452Y-42827380D02*
X36099452Y-41827380D01*
X36194690Y-41970238D01*
X36289928Y-42065476D01*
X36385166Y-42113095D01*
X35194690Y-41827380D02*
X35099452Y-41827380D01*
X35004214Y-41875000D01*
X34956595Y-41922619D01*
X34908976Y-42017857D01*
X34861357Y-42208333D01*
X34861357Y-42446428D01*
X34908976Y-42636904D01*
X34956595Y-42732142D01*
X35004214Y-42779761D01*
X35099452Y-42827380D01*
X35194690Y-42827380D01*
X35289928Y-42779761D01*
X35337547Y-42732142D01*
X35385166Y-42636904D01*
X35432785Y-42446428D01*
X35432785Y-42208333D01*
X35385166Y-42017857D01*
X35337547Y-41922619D01*
X35289928Y-41875000D01*
X35194690Y-41827380D01*
X50956595Y-44437380D02*
X51528023Y-44437380D01*
X51242309Y-44437380D02*
X51242309Y-43437380D01*
X51337547Y-43580238D01*
X51432785Y-43675476D01*
X51528023Y-43723095D01*
X50337547Y-43437380D02*
X50242309Y-43437380D01*
X50147071Y-43485000D01*
X50099452Y-43532619D01*
X50051833Y-43627857D01*
X50004214Y-43818333D01*
X50004214Y-44056428D01*
X50051833Y-44246904D01*
X50099452Y-44342142D01*
X50147071Y-44389761D01*
X50242309Y-44437380D01*
X50337547Y-44437380D01*
X50432785Y-44389761D01*
X50480404Y-44342142D01*
X50528023Y-44246904D01*
X50575642Y-44056428D01*
X50575642Y-43818333D01*
X50528023Y-43627857D01*
X50480404Y-43532619D01*
X50432785Y-43485000D01*
X50337547Y-43437380D01*
X49385166Y-43437380D02*
X49289928Y-43437380D01*
X49194690Y-43485000D01*
X49147071Y-43532619D01*
X49099452Y-43627857D01*
X49051833Y-43818333D01*
X49051833Y-44056428D01*
X49099452Y-44246904D01*
X49147071Y-44342142D01*
X49194690Y-44389761D01*
X49289928Y-44437380D01*
X49385166Y-44437380D01*
X49480404Y-44389761D01*
X49528023Y-44342142D01*
X49575642Y-44246904D01*
X49623261Y-44056428D01*
X49623261Y-43818333D01*
X49575642Y-43627857D01*
X49528023Y-43532619D01*
X49480404Y-43485000D01*
X49385166Y-43437380D01*
X48623261Y-43770714D02*
X48623261Y-44437380D01*
X48623261Y-43865952D02*
X48575642Y-43818333D01*
X48480404Y-43770714D01*
X48337547Y-43770714D01*
X48242309Y-43818333D01*
X48194690Y-43913571D01*
X48194690Y-44437380D01*
X47385166Y-43913571D02*
X47718500Y-43913571D01*
X47718500Y-44437380D02*
X47718500Y-43437380D01*
X47242309Y-43437380D01*
X46861357Y-44342142D02*
X46813738Y-44389761D01*
X46861357Y-44437380D01*
X46908976Y-44389761D01*
X46861357Y-44342142D01*
X46861357Y-44437380D01*
X46861357Y-43818333D02*
X46813738Y-43865952D01*
X46861357Y-43913571D01*
X46908976Y-43865952D01*
X46861357Y-43818333D01*
X46861357Y-43913571D01*
X42766119Y-44342142D02*
X42813738Y-44389761D01*
X42956595Y-44437380D01*
X43051833Y-44437380D01*
X43194690Y-44389761D01*
X43289928Y-44294523D01*
X43337547Y-44199285D01*
X43385166Y-44008809D01*
X43385166Y-43865952D01*
X43337547Y-43675476D01*
X43289928Y-43580238D01*
X43194690Y-43485000D01*
X43051833Y-43437380D01*
X42956595Y-43437380D01*
X42813738Y-43485000D01*
X42766119Y-43532619D01*
X42432785Y-43437380D02*
X41813738Y-43437380D01*
X42147071Y-43818333D01*
X42004214Y-43818333D01*
X41908976Y-43865952D01*
X41861357Y-43913571D01*
X41813738Y-44008809D01*
X41813738Y-44246904D01*
X41861357Y-44342142D01*
X41908976Y-44389761D01*
X42004214Y-44437380D01*
X42289928Y-44437380D01*
X42385166Y-44389761D01*
X42432785Y-44342142D01*
X41337547Y-44389761D02*
X41337547Y-44437380D01*
X41385166Y-44532619D01*
X41432785Y-44580238D01*
X40480404Y-43770714D02*
X40480404Y-44437380D01*
X40718500Y-43389761D02*
X40956595Y-44104047D01*
X40337547Y-44104047D01*
X39908976Y-44389761D02*
X39908976Y-44437380D01*
X39956595Y-44532619D01*
X40004214Y-44580238D01*
X39432785Y-44437380D02*
X39242309Y-44437380D01*
X39147071Y-44389761D01*
X39099452Y-44342142D01*
X39004214Y-44199285D01*
X38956595Y-44008809D01*
X38956595Y-43627857D01*
X39004214Y-43532619D01*
X39051833Y-43485000D01*
X39147071Y-43437380D01*
X39337547Y-43437380D01*
X39432785Y-43485000D01*
X39480404Y-43532619D01*
X39528023Y-43627857D01*
X39528023Y-43865952D01*
X39480404Y-43961190D01*
X39432785Y-44008809D01*
X39337547Y-44056428D01*
X39147071Y-44056428D01*
X39051833Y-44008809D01*
X39004214Y-43961190D01*
X38956595Y-43865952D01*
X38480404Y-44389761D02*
X38480404Y-44437380D01*
X38528023Y-44532619D01*
X38575642Y-44580238D01*
X37528023Y-44437380D02*
X38099452Y-44437380D01*
X37813738Y-44437380D02*
X37813738Y-43437380D01*
X37908976Y-43580238D01*
X38004214Y-43675476D01*
X38099452Y-43723095D01*
X36575642Y-44437380D02*
X37147071Y-44437380D01*
X36861357Y-44437380D02*
X36861357Y-43437380D01*
X36956595Y-43580238D01*
X37051833Y-43675476D01*
X37147071Y-43723095D01*
X36099452Y-44389761D02*
X36099452Y-44437380D01*
X36147071Y-44532619D01*
X36194690Y-44580238D01*
X35147071Y-44437380D02*
X35718500Y-44437380D01*
X35432785Y-44437380D02*
X35432785Y-43437380D01*
X35528023Y-43580238D01*
X35623261Y-43675476D01*
X35718500Y-43723095D01*
X34766119Y-43532619D02*
X34718500Y-43485000D01*
X34623261Y-43437380D01*
X34385166Y-43437380D01*
X34289928Y-43485000D01*
X34242309Y-43532619D01*
X34194690Y-43627857D01*
X34194690Y-43723095D01*
X34242309Y-43865952D01*
X34813738Y-44437380D01*
X34194690Y-44437380D01*
X33718500Y-44389761D02*
X33718500Y-44437380D01*
X33766119Y-44532619D01*
X33813738Y-44580238D01*
X32766119Y-44437380D02*
X33337547Y-44437380D01*
X33051833Y-44437380D02*
X33051833Y-43437380D01*
X33147071Y-43580238D01*
X33242309Y-43675476D01*
X33337547Y-43723095D01*
X32432785Y-43437380D02*
X31813738Y-43437380D01*
X32147071Y-43818333D01*
X32004214Y-43818333D01*
X31908976Y-43865952D01*
X31861357Y-43913571D01*
X31813738Y-44008809D01*
X31813738Y-44246904D01*
X31861357Y-44342142D01*
X31908976Y-44389761D01*
X32004214Y-44437380D01*
X32289928Y-44437380D01*
X32385166Y-44389761D01*
X32432785Y-44342142D01*
%LPC*%
D11*
G04 #@! TO.C,U3*
X75282000Y-60520000D03*
X72742000Y-60520000D03*
X70202000Y-60520000D03*
X67662000Y-60520000D03*
X67662000Y-52900000D03*
X70202000Y-52900000D03*
X72742000Y-52900000D03*
D12*
X75282000Y-52900000D03*
G04 #@! TD*
D13*
G04 #@! TO.C,C13*
X59670000Y-46228000D03*
X57170000Y-46228000D03*
G04 #@! TD*
D14*
G04 #@! TO.C,R8*
X66392000Y-64330000D03*
D11*
X76552000Y-64330000D03*
G04 #@! TD*
D15*
G04 #@! TO.C,JP1*
X81632000Y-31325000D03*
D16*
X81632000Y-33865000D03*
X81632000Y-36405000D03*
G04 #@! TD*
D13*
G04 #@! TO.C,C3*
X59670000Y-53340000D03*
X57170000Y-53340000D03*
G04 #@! TD*
D14*
G04 #@! TO.C,R10*
X76552000Y-36390000D03*
D11*
X66392000Y-36390000D03*
G04 #@! TD*
D14*
G04 #@! TO.C,R6*
X66392000Y-44010000D03*
D11*
X76552000Y-44010000D03*
G04 #@! TD*
D14*
G04 #@! TO.C,R14*
X67662000Y-17340000D03*
D11*
X77822000Y-17340000D03*
G04 #@! TD*
D12*
G04 #@! TO.C,C6*
X80362000Y-47820000D03*
D14*
X82362000Y-47820000D03*
G04 #@! TD*
D17*
G04 #@! TO.C,J1*
X33020000Y-50840000D03*
D18*
X33020000Y-53340000D03*
X33020000Y-55840000D03*
G04 #@! TD*
D15*
G04 #@! TO.C,J4*
X27940000Y-27940000D03*
D16*
X27940000Y-25400000D03*
G04 #@! TD*
D15*
G04 #@! TO.C,J2*
X27940000Y-40640000D03*
D16*
X27940000Y-38100000D03*
X27940000Y-35560000D03*
X27940000Y-33020000D03*
G04 #@! TD*
D19*
G04 #@! TO.C,J7*
X87982000Y-24960000D03*
D20*
X87982000Y-27500000D03*
G04 #@! TD*
D19*
G04 #@! TO.C,J5*
X87982000Y-50360000D03*
D20*
X87982000Y-52900000D03*
G04 #@! TD*
D13*
G04 #@! TO.C,C12*
X59670000Y-56134000D03*
X57170000Y-56134000D03*
G04 #@! TD*
D12*
G04 #@! TO.C,C5*
X80362000Y-63060000D03*
D14*
X82362000Y-63060000D03*
G04 #@! TD*
G04 #@! TO.C,C8*
X47342000Y-30080000D03*
X47342000Y-35080000D03*
G04 #@! TD*
G04 #@! TO.C,R15*
X63852000Y-27500000D03*
D11*
X63852000Y-17340000D03*
G04 #@! TD*
D14*
G04 #@! TO.C,C14*
X62582000Y-35120000D03*
X62582000Y-30120000D03*
G04 #@! TD*
D12*
G04 #@! TO.C,U4*
X75272000Y-21160000D03*
D11*
X72732000Y-21160000D03*
X70192000Y-21160000D03*
X67652000Y-21160000D03*
X67652000Y-28780000D03*
X70192000Y-28780000D03*
X72732000Y-28780000D03*
X75272000Y-28780000D03*
G04 #@! TD*
D12*
G04 #@! TO.C,C1*
X40992000Y-56710000D03*
D14*
X42992000Y-56710000D03*
G04 #@! TD*
D12*
G04 #@! TO.C,C2*
X40992000Y-50360000D03*
D14*
X42992000Y-50360000D03*
G04 #@! TD*
G04 #@! TO.C,R11*
X66392000Y-40200000D03*
D11*
X76552000Y-40200000D03*
G04 #@! TD*
D13*
G04 #@! TO.C,C4*
X59690000Y-63500000D03*
X57190000Y-63500000D03*
G04 #@! TD*
D14*
G04 #@! TO.C,R12*
X54962000Y-36195000D03*
D11*
X54962000Y-26035000D03*
G04 #@! TD*
D21*
G04 #@! TO.C,Ref\u002A\u002A*
X87982000Y-63060000D03*
G04 #@! TD*
D14*
G04 #@! TO.C,R16*
X76552000Y-32580000D03*
D11*
X66392000Y-32580000D03*
G04 #@! TD*
D19*
G04 #@! TO.C,J6*
X87982000Y-44264000D03*
D20*
X87982000Y-46804000D03*
G04 #@! TD*
D14*
G04 #@! TO.C,R13*
X51152000Y-26035000D03*
D11*
X51152000Y-36195000D03*
G04 #@! TD*
D14*
G04 #@! TO.C,R5*
X63852000Y-50360000D03*
D11*
X63852000Y-60520000D03*
G04 #@! TD*
D21*
G04 #@! TO.C,REF\u002A\u002A*
X28956000Y-62992000D03*
G04 #@! TD*
G04 #@! TO.C,REF\u002A\u002A*
X87982000Y-18610000D03*
G04 #@! TD*
G04 #@! TO.C,REF\u002A\u002A*
X28956000Y-18610000D03*
G04 #@! TD*
D13*
G04 #@! TO.C,C9*
X79092000Y-57980000D03*
X79092000Y-55480000D03*
G04 #@! TD*
D14*
G04 #@! TO.C,R9*
X66392000Y-47820000D03*
D11*
X76552000Y-47820000D03*
G04 #@! TD*
D14*
G04 #@! TO.C,C7*
X58772000Y-35080000D03*
X58772000Y-30080000D03*
G04 #@! TD*
D22*
G04 #@! TO.C,PS1*
X37524000Y-32610000D03*
D23*
X37524000Y-30070000D03*
X37524000Y-24990000D03*
X37524000Y-22450000D03*
X37524000Y-19910000D03*
G04 #@! TD*
D12*
G04 #@! TO.C,C10*
X86712000Y-33850000D03*
D14*
X88712000Y-33850000D03*
G04 #@! TD*
D24*
G04 #@! TO.C,J3*
X57832000Y-20312000D03*
D25*
X52832000Y-20312000D03*
X47832000Y-20312000D03*
G04 #@! TD*
D13*
G04 #@! TO.C,C11*
X79092000Y-26230000D03*
X79092000Y-23730000D03*
G04 #@! TD*
M02*
