G04 #@! TF.GenerationSoftware,KiCad,Pcbnew,(6.0.0)*
G04 #@! TF.CreationDate,2022-02-13T20:01:41+01:00*
G04 #@! TF.ProjectId,VolumeControl,566f6c75-6d65-4436-9f6e-74726f6c2e6b,rev?*
G04 #@! TF.SameCoordinates,Original*
G04 #@! TF.FileFunction,Soldermask,Bot*
G04 #@! TF.FilePolarity,Negative*
%FSLAX46Y46*%
G04 Gerber Fmt 4.6, Leading zero omitted, Abs format (unit mm)*
G04 Created by KiCad (PCBNEW (6.0.0)) date 2022-02-13 20:01:41*
%MOMM*%
%LPD*%
G01*
G04 APERTURE LIST*
G04 Aperture macros list*
%AMRoundRect*
0 Rectangle with rounded corners*
0 $1 Rounding radius*
0 $2 $3 $4 $5 $6 $7 $8 $9 X,Y pos of 4 corners*
0 Add a 4 corners polygon primitive as box body*
4,1,4,$2,$3,$4,$5,$6,$7,$8,$9,$2,$3,0*
0 Add four circle primitives for the rounded corners*
1,1,$1+$1,$2,$3*
1,1,$1+$1,$4,$5*
1,1,$1+$1,$6,$7*
1,1,$1+$1,$8,$9*
0 Add four rect primitives between the rounded corners*
20,1,$1+$1,$2,$3,$4,$5,0*
20,1,$1+$1,$4,$5,$6,$7,0*
20,1,$1+$1,$6,$7,$8,$9,0*
20,1,$1+$1,$8,$9,$2,$3,0*%
G04 Aperture macros list end*
%ADD10O,1.600000X1.600000*%
%ADD11R,1.600000X1.600000*%
%ADD12C,1.400000*%
%ADD13C,1.600000*%
%ADD14R,1.700000X1.700000*%
%ADD15O,1.700000X1.700000*%
%ADD16RoundRect,0.250000X-0.725000X0.600000X-0.725000X-0.600000X0.725000X-0.600000X0.725000X0.600000X0*%
%ADD17O,1.950000X1.700000*%
%ADD18RoundRect,0.250000X-0.845000X0.620000X-0.845000X-0.620000X0.845000X-0.620000X0.845000X0.620000X0*%
%ADD19O,2.190000X1.740000*%
%ADD20C,3.200000*%
%ADD21R,1.850000X1.850000*%
%ADD22C,1.850000*%
%ADD23R,2.600000X2.600000*%
%ADD24C,2.600000*%
G04 APERTURE END LIST*
D10*
G04 #@! TO.C,U3*
X75282000Y-60520000D03*
X72742000Y-60520000D03*
X70202000Y-60520000D03*
X67662000Y-60520000D03*
X67662000Y-52900000D03*
X70202000Y-52900000D03*
X72742000Y-52900000D03*
D11*
X75282000Y-52900000D03*
G04 #@! TD*
D12*
G04 #@! TO.C,C13*
X59670000Y-46228000D03*
X57170000Y-46228000D03*
G04 #@! TD*
D13*
G04 #@! TO.C,R8*
X66392000Y-64330000D03*
D10*
X76552000Y-64330000D03*
G04 #@! TD*
D14*
G04 #@! TO.C,JP1*
X81632000Y-31325000D03*
D15*
X81632000Y-33865000D03*
X81632000Y-36405000D03*
G04 #@! TD*
D12*
G04 #@! TO.C,C3*
X59670000Y-53340000D03*
X57170000Y-53340000D03*
G04 #@! TD*
D13*
G04 #@! TO.C,R10*
X76552000Y-36390000D03*
D10*
X66392000Y-36390000D03*
G04 #@! TD*
D13*
G04 #@! TO.C,R6*
X66392000Y-44010000D03*
D10*
X76552000Y-44010000D03*
G04 #@! TD*
D13*
G04 #@! TO.C,R14*
X67662000Y-17340000D03*
D10*
X77822000Y-17340000D03*
G04 #@! TD*
D11*
G04 #@! TO.C,C6*
X80362000Y-47820000D03*
D13*
X82362000Y-47820000D03*
G04 #@! TD*
D16*
G04 #@! TO.C,J1*
X33020000Y-50840000D03*
D17*
X33020000Y-53340000D03*
X33020000Y-55840000D03*
G04 #@! TD*
D14*
G04 #@! TO.C,J4*
X27940000Y-27940000D03*
D15*
X27940000Y-25400000D03*
G04 #@! TD*
D14*
G04 #@! TO.C,J2*
X27940000Y-40640000D03*
D15*
X27940000Y-38100000D03*
X27940000Y-35560000D03*
X27940000Y-33020000D03*
G04 #@! TD*
D18*
G04 #@! TO.C,J7*
X87982000Y-24960000D03*
D19*
X87982000Y-27500000D03*
G04 #@! TD*
D18*
G04 #@! TO.C,J5*
X87982000Y-50360000D03*
D19*
X87982000Y-52900000D03*
G04 #@! TD*
D12*
G04 #@! TO.C,C12*
X59670000Y-56134000D03*
X57170000Y-56134000D03*
G04 #@! TD*
D11*
G04 #@! TO.C,C5*
X80362000Y-63060000D03*
D13*
X82362000Y-63060000D03*
G04 #@! TD*
G04 #@! TO.C,C8*
X47342000Y-30080000D03*
X47342000Y-35080000D03*
G04 #@! TD*
G04 #@! TO.C,R15*
X63852000Y-27500000D03*
D10*
X63852000Y-17340000D03*
G04 #@! TD*
D13*
G04 #@! TO.C,C14*
X62582000Y-35120000D03*
X62582000Y-30120000D03*
G04 #@! TD*
D11*
G04 #@! TO.C,U4*
X75272000Y-21160000D03*
D10*
X72732000Y-21160000D03*
X70192000Y-21160000D03*
X67652000Y-21160000D03*
X67652000Y-28780000D03*
X70192000Y-28780000D03*
X72732000Y-28780000D03*
X75272000Y-28780000D03*
G04 #@! TD*
D11*
G04 #@! TO.C,C1*
X40992000Y-56710000D03*
D13*
X42992000Y-56710000D03*
G04 #@! TD*
D11*
G04 #@! TO.C,C2*
X40992000Y-50360000D03*
D13*
X42992000Y-50360000D03*
G04 #@! TD*
G04 #@! TO.C,R11*
X66392000Y-40200000D03*
D10*
X76552000Y-40200000D03*
G04 #@! TD*
D12*
G04 #@! TO.C,C4*
X59690000Y-63500000D03*
X57190000Y-63500000D03*
G04 #@! TD*
D13*
G04 #@! TO.C,R12*
X54962000Y-36195000D03*
D10*
X54962000Y-26035000D03*
G04 #@! TD*
D20*
G04 #@! TO.C,Ref\u002A\u002A*
X87982000Y-63060000D03*
G04 #@! TD*
D13*
G04 #@! TO.C,R16*
X76552000Y-32580000D03*
D10*
X66392000Y-32580000D03*
G04 #@! TD*
D18*
G04 #@! TO.C,J6*
X87982000Y-44264000D03*
D19*
X87982000Y-46804000D03*
G04 #@! TD*
D13*
G04 #@! TO.C,R13*
X51152000Y-26035000D03*
D10*
X51152000Y-36195000D03*
G04 #@! TD*
D13*
G04 #@! TO.C,R5*
X63852000Y-50360000D03*
D10*
X63852000Y-60520000D03*
G04 #@! TD*
D20*
G04 #@! TO.C,REF\u002A\u002A*
X28956000Y-62992000D03*
G04 #@! TD*
G04 #@! TO.C,REF\u002A\u002A*
X87982000Y-18610000D03*
G04 #@! TD*
G04 #@! TO.C,REF\u002A\u002A*
X28956000Y-18610000D03*
G04 #@! TD*
D12*
G04 #@! TO.C,C9*
X79092000Y-57980000D03*
X79092000Y-55480000D03*
G04 #@! TD*
D13*
G04 #@! TO.C,R9*
X66392000Y-47820000D03*
D10*
X76552000Y-47820000D03*
G04 #@! TD*
D13*
G04 #@! TO.C,C7*
X58772000Y-35080000D03*
X58772000Y-30080000D03*
G04 #@! TD*
D21*
G04 #@! TO.C,PS1*
X37524000Y-32610000D03*
D22*
X37524000Y-30070000D03*
X37524000Y-24990000D03*
X37524000Y-22450000D03*
X37524000Y-19910000D03*
G04 #@! TD*
D11*
G04 #@! TO.C,C10*
X86712000Y-33850000D03*
D13*
X88712000Y-33850000D03*
G04 #@! TD*
D23*
G04 #@! TO.C,J3*
X57832000Y-20312000D03*
D24*
X52832000Y-20312000D03*
X47832000Y-20312000D03*
G04 #@! TD*
D12*
G04 #@! TO.C,C11*
X79092000Y-26230000D03*
X79092000Y-23730000D03*
G04 #@! TD*
M02*
